<svg width="700px" height="470px" viewBox="0 0 700 470" version="1.1" xmlns="http://www.w3.org/2000/svg" xmlns:xlink="http://www.w3.org/1999/xlink" id="bg-stars">
	<defs>
		<linearGradient id="bg-grad" x1="0%" y1="0%" x2="0%" y2="100%">
			<stop offset="0%" stop-color="#1c1c2e"/>
			<stop offset="100%" stop-color="#363755"/>
		</linearGradient>
	</defs>
	<rect id="bg" width="100%" height="100%" fill="url(#bg-grad)"/>
	<g id="cube" transform="translate(-40, 30)" opacity="0">
		<animate attributeType="CSS" attributeName="opacity" from="0" to="1" dur="1s" begin="1.8s" fill="freeze" />
		<g id="starpaths" stroke="#FFFFFF" stroke-linecap="round" opacity="0.05">
			<path d="M102.5,125.5 L36.5,48.5"></path>
			<path d="M228.5,95.5 L119.5,130.5"></path>
			<path d="M214.5,215.5 L96.5,254.5"></path>
			<path d="M78.5,250.5 L6.5,168.5"></path>
			<path d="M88.5,246.5 L105.5,143.5"></path>
			<path d="M221.5,204.5 L234.5,106.5"></path>
			<path d="M144.5,6.5 L36.5,38.5"></path>
			<path d="M24.5,51.5 L3.5,158.5"></path>
			<path d="M162.5,9.5 L230.5,86.5"></path>
		</g>
		<g id="stars" fill="#3B3B5A">
			<g id="twinkle-1">
				<path d="M155.873805,0.0311599761 C154.118353,0.0311599761 151,-0.659215749 151,4.45922988 C151,9.57767551 154.646533,8.97842941 156.19358,8.97842938 C157.740627,8.97842935 160,6.61182142 160,4.04362369 C160,1.47542596 157.629258,0.0311599761 155.873805,0.0311599761 Z"></path>
			</g>
			<g id="twinkle-2">
				<path d="M108.592445,129.554688 C104.523011,129.554688 103.59375,130.733329 103.59375,134.251618 C103.59375,137.769906 105.671536,138.554688 108.461931,138.554688 C111.252325,138.554688 113.59375,137.966836 113.59375,134.251618 C113.59375,130.536399 112.661878,129.554688 108.592445,129.554688 Z"></path>
				<path d="M235.030205,91.9828999 C233.402432,91.9828999 233.030727,92.5067406 233.030727,94.0704244 C233.030727,95.6341083 233.861842,95.9828999 234.977999,95.9828999 C236.094157,95.9828999 237.030727,95.7216328 237.030727,94.0704244 C237.030727,92.4192161 236.657978,91.9828999 235.030205,91.9828999 Z"></path>
			</g>
			<g id="twinkle-3">
				<path d="M1.99947794,163 C0.371704516,163 0,163.523841 0,165.087524 C0,166.651208 0.831114591,167 1.94727225,167 C3.06342991,167 4,166.738733 4,165.087525 C4,163.436316 3.62725137,163 1.99947794,163 Z"></path>
			</g>
			<g id="twinkle-4">
				<path d="M86.5,251 L85.2443712,255.03595 C85.0787262,255.56838 84.517228,256.156937 84.0085111,256.343812 L79.5,258 L84.0085111,259.656188 C84.5254128,259.84607 85.0770702,260.426297 85.2443712,260.96405 L86.5,265 L87.7556288,260.96405 C87.9212738,260.43162 88.482772,259.843063 88.9914889,259.656188 L93.5,258 L88.9914889,256.343812 C88.4745872,256.15393 87.9229298,255.573703 87.7556288,255.03595 L86.5,251 Z"></path>
			</g>
			<g id="twinkle-5">
				<path d="M28.5,38 L27.7679816,40.6143513 C27.6199795,41.1429305 27.0847598,41.7409144 26.5804162,41.9467689 L24,43 L26.5804162,44.0532311 C27.0882883,44.2605258 27.6226196,44.8664987 27.7679816,45.3856487 L28.5,48 L29.2320184,45.3856487 C29.3800205,44.8570695 29.9152402,44.2590856 30.4195838,44.0532311 L33,43 L30.4195838,41.9467689 C29.9117117,41.7394742 29.3773804,41.1335013 29.2320184,40.6143513 L28.5,38 Z"></path>
				<path d="M220.499347,211 C218.464631,211 218,211.523841 218,213.087524 C218,214.651208 219.038893,215 220.43409,215 C221.829287,215 223,214.738733 223,213.087525 C223,211.436316 222.534064,211 220.499347,211 Z"></path>
			</g>
		</g>
	</g>
	<g id="pyramid" transform="translate(90, 290)" opacity="0">
		<animate attributeType="CSS" attributeName="opacity" from="0" to="1" dur="1s" begin="1.3s" fill="freeze" />
		<g id="starpaths" stroke="#FFFFFF" stroke-linecap="round" opacity="0.05">
			<path d="M8.5,79.5 L92.5,13.5"></path>
			<path d="M170.5,105.5 L107.5,14.5"></path>
			<path d="M167.5,117.5 L93.5,144.5"></path>
			<path d="M74.5,141.5 L7.5,87.5"></path>
			<path d="M87.5,135.5 L99.5,18.5"></path>
		</g>
		<g id="stars" fill="#3B3B5A">
			<g id="twinkle-1a">
				<path d="M84.8738054,141.03116 C83.1183533,141.03116 80,140.340784 80,145.45923 C80,150.577676 83.6465327,149.978429 85.19358,149.978429 C86.7406273,149.978429 89,147.611821 89,145.043624 C89,142.475426 86.6292575,141.03116 84.8738054,141.03116 Z"></path>
			</g>
			<g id="twinkle-2a">
				<path d="M2.03020498,80.9828999 C0.402431553,80.9828999 0.0307270375,81.5067406 0.0307270375,83.0704244 C0.0307270375,84.6341083 0.861841629,84.9828999 1.97799929,84.9828999 C3.09415695,84.9828999 4.03072704,84.7216328 4.03072704,83.0704244 C4.03072704,81.4192161 3.65797841,80.9828999 2.03020498,80.9828999 Z"></path>
			</g>
			<g id="twinkle-3a">
				<path d="M175.5,107 L174.767982,109.614351 C174.619979,110.14293 174.08476,110.740914 173.580416,110.946769 L171,112 L173.580416,113.053231 C174.088288,113.260526 174.62262,113.866499 174.767982,114.385649 L175.5,117 L176.232018,114.385649 C176.380021,113.85707 176.91524,113.259086 177.419584,113.053231 L180,112 L177.419584,110.946769 C176.911712,110.739474 176.37738,110.133501 176.232018,109.614351 L175.5,107 Z"></path>
			</g>
			<g id="twinkle-4a">
				<path d="M100,0 L98.7443712,4.03594971 C98.5787262,4.56837998 98.017228,5.15693665 97.5085111,5.34381226 L93,7 L97.5085111,8.65618774 C98.0254128,8.84607001 98.5770702,9.42629719 98.7443712,9.96405029 L100,14 L101.255629,9.96405029 C101.421274,9.43162002 101.982772,8.84306335 102.491489,8.65618774 L107,7 L102.491489,5.34381226 C101.974587,5.15392999 101.42293,4.57370281 101.255629,4.03594971 L100,0 Z"></path>
			</g>
		</g>
	</g>
	<g id="stargroup" transform="translate(400, -20)" opacity="0">
		<animate attributeType="CSS" attributeName="opacity" from="0" to="1" dur="1s" begin="2s" fill="freeze" />
		<g id="starpaths" stroke="#FFFFFF" stroke-linecap="round" opacity="0.05">
			<path d="M187.5,62.5 L130.5,10.5"></path>
			<path d="M272.5,43.5 L204.5,65.5"></path>
			<path d="M297.5,202.5 L258.5,145.5"></path>
			<path d="M14.5,131.5 L97.5,98.5"></path>
			<path d="M199.5,193.5 L286.5,218.5"></path>
			<path d="M256.5,126.5 L279.5,48.5"></path>
			<path d="M181.5,201.5 L145.5,270.5"></path>
			<path d="M118.5,13.5 L105.5,88.5"></path>
			<path d="M14.5,142.5 L104.5,173.5"></path>
			<path d="M131.5,269.5 L113.5,184.5"></path>
		</g>
		<g id="stars" fill="#3B3B5A">
			<g id="twinkle-1b">
				<path d="M188.373805,188.03116 C186.618353,188.03116 183.5,187.340784 183.5,192.45923 C183.5,197.577676 187.146533,196.978429 188.69358,196.978429 C190.240627,196.978429 192.5,194.611821 192.5,192.043624 C192.5,189.475426 190.129258,188.03116 188.373805,188.03116 Z"></path>
			</g>
			<g id="twinkle-2b">
				<path d="M194.592445,63.5546875 C190.523011,63.5546875 189.59375,64.7333289 189.59375,68.2516176 C189.59375,71.7699063 191.671536,72.5546875 194.461931,72.5546875 C197.252325,72.5546875 199.59375,71.9668365 199.59375,68.2516177 C199.59375,64.5363989 198.661878,63.5546875 194.592445,63.5546875 Z"></path>			
				<path d="M282.030205,36.9828999 C280.402432,36.9828999 280.030727,37.5067406 280.030727,39.0704244 C280.030727,40.6341083 280.861842,40.9828999 281.977999,40.9828999 C283.094157,40.9828999 284.030727,40.7216328 284.030727,39.0704244 C284.030727,37.4192161 283.657978,36.9828999 282.030205,36.9828999 Z"></path>
			</g>
			<g id="twinkle-3b">	
				<path d="M104.030205,93.9828999 C102.402432,93.9828999 102.030727,94.5067406 102.030727,96.0704244 C102.030727,97.6341083 102.861842,97.9828999 103.977999,97.9828999 C105.094157,97.9828999 106.030727,97.7216328 106.030727,96.0704244 C106.030727,94.4192161 105.657978,93.9828999 104.030205,93.9828999 Z"></path>
				<path d="M123.5,0 L122.767982,2.61435126 C122.619979,3.14293046 122.08476,3.74091438 121.580416,3.9467689 L119,5 L121.580416,6.0532311 C122.088288,6.26052584 122.62262,6.86649867 122.767982,7.38564874 L123.5,10 L124.232018,7.38564874 C124.380021,6.85706954 124.91524,6.25908562 125.419584,6.0532311 L128,5 L125.419584,3.9467689 C124.911712,3.73947416 124.37738,3.13350133 124.232018,2.61435126 L123.5,0 Z"></path>			
				<path d="M297,207 L295.744371,211.03595 C295.578726,211.56838 295.017228,212.156937 294.508511,212.343812 L290,214 L294.508511,215.656188 C295.025413,215.84607 295.57707,216.426297 295.744371,216.96405 L297,221 L298.255629,216.96405 C298.421274,216.43162 298.982772,215.843063 299.491489,215.656188 L304,214 L299.491489,212.343812 C298.974587,212.15393 298.42293,211.573703 298.255629,211.03595 L297,207 Z"></path>
			</g>
			<g id="twinkle-4b">
				<path d="M7,130 L5.7443712,134.03595 C5.57872623,134.56838 5.01722802,135.156937 4.50851108,135.343812 L0,137 L4.50851108,138.656188 C5.0254128,138.84607 5.57707024,139.426297 5.7443712,139.96405 L7,144 L8.2556288,139.96405 C8.42127377,139.43162 8.98277198,138.843063 9.49148892,138.656188 L14,137 L9.49148892,135.343812 C8.9745872,135.15393 8.42292976,134.573703 8.2556288,134.03595 L7,130 Z"></path>
				<path d="M252.499347,134 C250.464631,134 250,134.523841 250,136.087524 C250,137.651208 251.038893,138 252.43409,138 C253.829287,138 255,137.738733 255,136.087525 C255,134.436316 254.534064,134 252.499347,134 Z"></path>
			</g>
			<g id="twinkle-5b">
				<path d="M111.499347,174 C109.464631,174 109,174.523841 109,176.087524 C109,177.651208 110.038893,178 111.43409,178 C112.829287,178 114,177.738733 114,176.087525 C114,174.436316 113.534064,174 111.499347,174 Z"></path>
				<path d="M137,272 L135.962577,275.334575 C135.79915,275.859875 135.252531,276.437846 134.722297,276.632626 L131,278 L134.722297,279.367374 C135.243858,279.558968 135.799386,280.140885 135.962577,280.665425 L137,284 L138.037423,280.665425 C138.20085,280.140125 138.747469,279.562154 139.277703,279.367374 L143,278 L139.277703,276.632626 C138.756142,276.441032 138.200614,275.859115 138.037423,275.334575 L137,272 Z"></path>
			</g>
		</g>
	</g>
	<g id="spiral" transform="translate(250, 230) rotate(-20)" opacity="0">
		<animate attributeType="CSS" attributeName="opacity" from="0" to="1" dur="1s" begin="1.6s" fill="freeze" />
		<g id="starpaths" stroke="#FFFFFF" stroke-linecap="round" opacity="0.05">
			<path d="M164.5,10.5 L97.5,5.5"></path>
			<path d="M136.5,63.5 L95.5,53.5"></path>
			<path d="M60.5,115.5 L82.5,59.5"></path>
			<path d="M2.5,137.5 L20.5,62.5"></path>
			<path d="M63.5,125.5 L91.5,139.5"></path>
			<path d="M149.5,68.5 L185.5,132.5"></path>
			<path d="M82.5,10.5 L28.5,49.5"></path>
			<path d="M6.5,152.5 L97.5,203.5"></path>
			<path d="M178.5,147.5 L108.5,204.5"></path>
		</g>
		<g id="stars" fill="#3B3B5A">
			<g id="twinkle-1c">
				<path d="M98,139 L96.7443712,143.03595 C96.5787262,143.56838 96.017228,144.156937 95.5085111,144.343812 L91,146 L95.5085111,147.656188 C96.0254128,147.84607 96.5770702,148.426297 96.7443712,148.96405 L98,153 L99.2556288,148.96405 C99.4212738,148.43162 99.982772,147.843063 100.491489,147.656188 L105,146 L100.491489,144.343812 C99.9745872,144.15393 99.4229298,143.573703 99.2556288,143.03595 L98,139 Z"></path>
				<path d="M24.030205,51.9828999 C22.4024316,51.9828999 22.030727,52.5067406 22.030727,54.0704244 C22.030727,55.6341083 22.8618416,55.9828999 23.9779993,55.9828999 C25.094157,55.9828999 26.030727,55.7216328 26.030727,54.0704244 C26.030727,52.4192161 25.6579784,51.9828999 24.030205,51.9828999 Z"></path>
			</g>
			<g id="twinkle-2c">
				<path d="M144.030205,61.9828999 C142.402432,61.9828999 142.030727,62.5067406 142.030727,64.0704244 C142.030727,65.6341083 142.861842,65.9828999 143.977999,65.9828999 C145.094157,65.9828999 146.030727,65.7216328 146.030727,64.0704244 C146.030727,62.4192161 145.657978,61.9828999 144.030205,61.9828999 Z"></path>			
				<path d="M58.030205,119.9829 C56.4024316,119.9829 56.030727,120.506741 56.030727,122.070424 C56.030727,123.634108 56.8618416,123.9829 57.9779993,123.9829 C59.094157,123.9829 60.030727,123.721633 60.030727,122.070424 C60.030727,120.419216 59.6579784,119.9829 58.030205,119.9829 Z"></path>
			</g>
			<g id="twinkle-3c">
				<path d="M174.592445,8.5546875 C170.523011,8.5546875 169.59375,9.73332891 169.59375,13.2516176 C169.59375,16.7699063 171.671536,17.5546875 174.461931,17.5546875 C177.252325,17.5546875 179.59375,16.9668365 179.59375,13.2516177 C179.59375,9.53639886 178.661878,8.5546875 174.592445,8.5546875 Z"></path>
				<path d="M88.5,0 L87.7679816,2.61435126 C87.6199795,3.14293046 87.0847598,3.74091438 86.5804162,3.9467689 L84,5 L86.5804162,6.0532311 C87.0882883,6.26052584 87.6226196,6.86649867 87.7679816,7.38564874 L88.5,10 L89.2320184,7.38564874 C89.3800205,6.85706954 89.9152402,6.25908562 90.4195838,6.0532311 L93,5 L90.4195838,3.9467689 C89.9117117,3.73947416 89.3773804,3.13350133 89.2320184,2.61435126 L88.5,0 Z"></path>
			</g>
			<g id="twinkle-4c">
				<path d="M185.373805,137.03116 C183.618353,137.03116 180.5,136.340784 180.5,141.45923 C180.5,146.577676 184.146533,145.978429 185.69358,145.978429 C187.240627,145.978429 189.5,143.611821 189.5,141.043624 C189.5,138.475426 187.129258,137.03116 185.373805,137.03116 Z"></path>
				<path d="M86.4993474,51 C84.4646306,51 84,51.5238406 84,53.0875245 C84,54.6512084 85.0388932,55 86.4340903,55 C87.8292874,55 89,54.7387329 89,53.0875245 C89,51.4363162 88.5340642,51 86.4993474,51 Z"></path>
			</g>
			<g id="twinkle-5c">
				<path d="M2.49934743,144 C0.464630645,144 0,144.523841 0,146.087524 C0,147.651208 1.03889324,148 2.43409032,148 C3.82928739,148 5,147.738733 5,146.087525 C5,144.436316 4.53406421,144 2.49934743,144 Z"></path>
				<path d="M103,202 L101.962577,205.334575 C101.79915,205.859875 101.252531,206.437846 100.722297,206.632626 L97,208 L100.722297,209.367374 C101.243858,209.558968 101.799386,210.140885 101.962577,210.665425 L103,214 L104.037423,210.665425 C104.20085,210.140125 104.747469,209.562154 105.277703,209.367374 L109,208 L105.277703,206.632626 C104.756142,206.441032 104.200614,205.859115 104.037423,205.334575 L103,202 Z"></path>
			</g>
		</g>
	</g>	
	<g id="heart" transform="translate(220, 40)" opacity="0">
		<animate attributeType="CSS" attributeName="opacity" from="0" to="1" dur="1s" begin="1s" fill="freeze" />
		<g id="starpaths" stroke="#FFFFFF" stroke-linecap="round" opacity="0.05">
			<path d="M81.5,32.5 L110.5,14.5"></path>
			<path d="M70.5,31.5 L44.5,8.5"></path>
			<path d="M10.5,28.5 L36.5,7.5"></path>
			<path d="M120.5,14.5 L135.5,48.5"></path>
			<path d="M9.5,41.5 L51.5,112.5"></path>
			<path d="M133.5,63.5 L66.5,114.5"></path>
		</g>
		<g id="stars" fill="#3B3B5A">
			<g id="twinkle-1d">
				<path d="M58.3738054,114.03116 C56.6183533,114.03116 53.5,113.340784 53.5,118.45923 C53.5,123.577676 57.1465327,122.978429 58.69358,122.978429 C60.2406273,122.978429 62.5,120.611821 62.5,118.043624 C62.5,115.475426 60.1292575,114.03116 58.3738054,114.03116 Z"></path>
			</g>
			<g id="twinkle-2d">
				<path d="M116.030205,8.98289992 C114.402432,8.98289992 114.030727,9.50674055 114.030727,11.0704244 C114.030727,12.6341083 114.861842,12.9828999 115.977999,12.9828999 C117.094157,12.9828999 118.030727,12.7216328 118.030727,11.0704244 C118.030727,9.41921608 117.657978,8.98289992 116.030205,8.98289992 Z"></path>
			</g>
			<g id="twinkle-3d">
				<path d="M41.030205,0.982899923 C39.4024316,0.982899923 39.030727,1.50674055 39.030727,3.07042442 C39.030727,4.63410828 39.8618416,4.98289992 40.9779993,4.98289992 C42.094157,4.98289992 43.030727,4.7216328 43.030727,3.07042444 C43.030727,1.41921608 42.6579784,0.982899923 41.030205,0.982899923 Z"></path>
			</g>
			<g id="twinkle-4d">
				<path d="M5.5,29 L4.76798165,31.6143513 C4.61997947,32.1429305 4.08475977,32.7409144 3.5804162,32.9467689 L1,34 L3.5804162,35.0532311 C4.08828831,35.2605258 4.62261963,35.8664987 4.76798165,36.3856487 L5.5,39 L6.23201835,36.3856487 C6.38002053,35.8570695 6.91524023,35.2590856 7.4195838,35.0532311 L10,34 L7.4195838,32.9467689 C6.91171169,32.7394742 6.37738037,32.1335013 6.23201835,31.6143513 L5.5,29 Z"></path>
			</g>
			<g id="twinkle-5d">
				<path d="M77,31 L75.7443712,35.0359497 C75.5787262,35.56838 75.017228,36.1569366 74.5085111,36.3438123 L70,38 L74.5085111,39.6561877 C75.0254128,39.84607 75.5770702,40.4262972 75.7443712,40.9640503 L77,45 L78.2556288,40.9640503 C78.4212738,40.43162 78.982772,39.8430634 79.4914889,39.6561877 L84,38 L79.4914889,36.3438123 C78.9745872,36.15393 78.4229298,35.5737028 78.2556288,35.0359497 L77,31 Z"></path>
				<path d="M137.499347,54 C135.464631,54 135,54.5238406 135,56.0875245 C135,57.6512084 136.038893,58 137.43409,58 C138.829287,58 140,57.7387329 140,56.0875245 C140,54.4363162 139.534064,54 137.499347,54 Z"></path>
			</g>
		</g>
	</g>
	<g id="musicnote" transform="translate(520, 440) rotate(-90)" opacity="0">
		<animate attributeType="CSS" attributeName="opacity" from="0" to="1" dur="1s" begin="1.5s" fill="freeze" />
		<g id="starpaths" stroke="#FFFFFF" stroke-linecap="round" opacity="0.05">
			<path d="M48,88 L6.5,57.5"></path>
			<path d="M167,123.5 L195,87"></path>
			<path d="M48.5,8.5 L81,38"></path>
			<path d="M65.40625,92.5 L190,82"></path>
			<path d="M35.5,9.5 L5.5,45.5"></path>
			<path d="M82,51 L60,85.5"></path>
		</g>
		<g id="stars" fill="#3B3B5A">
			<g id="twinkle-1e">
				<path d="M86.030205,41.9828999 C84.4024316,41.9828999 84.030727,42.5067406 84.030727,44.0704244 C84.030727,45.6341083 84.8618416,45.9828999 85.9779993,45.9828999 C87.094157,45.9828999 88.030727,45.7216328 88.030727,44.0704244 C88.030727,42.4192161 87.6579784,41.9828999 86.030205,41.9828999 Z"></path>
			</g>
			<g id="twinkle-2e">
				<path d="M2.03020498,49.9828999 C0.402431553,49.9828999 0.0307270375,50.5067406 0.0307270375,52.0704244 C0.0307270375,53.6341083 0.861841629,53.9828999 1.97799929,53.9828999 C3.09415695,53.9828999 4.03072704,53.7216328 4.03072704,52.0704244 C4.03072704,50.4192161 3.65797841,49.9828999 2.03020498,49.9828999 Z"></path>
				<path d="M41.5,0 L40.7679816,2.61435126 C40.6199795,3.14293046 40.0847598,3.74091438 39.5804162,3.9467689 L37,5 L39.5804162,6.0532311 C40.0882883,6.26052584 40.6226196,6.86649867 40.7679816,7.38564874 L41.5,10 L42.2320184,7.38564874 C42.3800205,6.85706954 42.9152402,6.25908562 43.4195838,6.0532311 L46,5 L43.4195838,3.9467689 C42.9117117,3.73947416 42.3773804,3.13350133 42.2320184,2.61435126 L41.5,0 Z"></path>
			</g>
			<g id="twinkle-3e">
				<path d="M54,86 L52.7443712,90.0359497 C52.5787262,90.56838 52.017228,91.1569366 51.5085111,91.3438123 L47,93 L51.5085111,94.6561877 C52.0254128,94.84607 52.5770702,95.4262972 52.7443712,95.9640503 L54,100 L55.2556288,95.9640503 C55.4212738,95.43162 55.982772,94.8430634 56.4914889,94.6561877 L61,93 L56.4914889,91.3438123 C55.9745872,91.15393 55.4229298,90.5737028 55.2556288,90.0359497 L54,86 Z"></path>
			</g>
			<g id="twinkle-4e">
				<path d="M162.499347,126 C160.464631,126 160,126.523841 160,128.087524 C160,129.651208 161.038893,130 162.43409,130 C163.829287,130 165,129.738733 165,128.087525 C165,126.436316 164.534064,126 162.499347,126 Z"></path>
			</g>
			<g id="twinkle-5e">
				<path d="M200.5,76 L199.462577,79.3345754 C199.29915,79.8598749 198.752531,80.4378457 198.222297,80.6326256 L194.5,82 L198.222297,83.3673744 C198.743858,83.5589682 199.299386,84.1408847 199.462577,84.6654246 L200.5,88 L201.537423,84.6654246 C201.70085,84.1401251 202.247469,83.5621543 202.777703,83.3673744 L206.5,82 L202.777703,80.6326256 C202.256142,80.4410318 201.700614,79.8591153 201.537423,79.3345754 L200.5,76 Z"></path>
			</g>
		</g>
	</g>	

	<!-- Animations -->
	<!-- 1, 1a, 1b, etc are all the same... how do you make multiple xlink refs?? -->
	<animate xlink:href="#twinkle-1" attributeName="fill" from="#3C3C5A" to="#3C3C5A" dur="2.5s" values="#3C3C5A; #3C3C5A; #7C80A7; #3C3C5A;" keyTimes="0; 0.5; 0.75; 1" repeatCount="indefinite" />
	<animate xlink:href="#twinkle-1a" attributeName="fill" from="#3C3C5A" to="#3C3C5A" dur="2.4s" values="#3C3C5A; #3C3C5A; #7C80A7; #3C3C5A;" keyTimes="0; 0.5; 0.75; 1" repeatCount="indefinite" />
	<animate xlink:href="#twinkle-1b" attributeName="fill" from="#3C3C5A" to="#3C3C5A" dur="2.3s" values="#3C3C5A; #3C3C5A; #7C80A7; #3C3C5A;" keyTimes="0; 0.5; 0.75; 1" repeatCount="indefinite" />
	<animate xlink:href="#twinkle-1c" attributeName="fill" from="#3C3C5A" to="#3C3C5A" dur="2.2s" values="#3C3C5A; #3C3C5A; #7C80A7; #3C3C5A;" keyTimes="0; 0.5; 0.75; 1" repeatCount="indefinite" />
	<animate xlink:href="#twinkle-1d" attributeName="fill" from="#3C3C5A" to="#3C3C5A" dur="2.1s" values="#3C3C5A; #3C3C5A; #7C80A7; #3C3C5A;" keyTimes="0; 0.5; 0.75; 1" repeatCount="indefinite" />
	<animate xlink:href="#twinkle-1e" attributeName="fill" from="#3C3C5A" to="#3C3C5A" dur="2s" values="#3C3C5A; #3C3C5A; #7C80A7; #3C3C5A;" keyTimes="0; 0.5; 0.75; 1" repeatCount="indefinite" />

	<animate xlink:href="#twinkle-2" attributeName="fill" from="#3C3C5A" to="#3C3C5A" dur="2s" values="#3C3C5A; #3C3C5A; #B8BEDB; #3C3C5A;" keyTimes="0; 0.5; 0.75; 1" repeatCount="indefinite" begin="0s" />
	<animate xlink:href="#twinkle-2a" attributeName="fill" from="#3C3C5A" to="#3C3C5A" dur="1.9s" values="#3C3C5A; #3C3C5A; #B8BEDB; #3C3C5A;" keyTimes="0; 0.5; 0.75; 1" repeatCount="indefinite" begin="0.2s" />
	<animate xlink:href="#twinkle-2b" attributeName="fill" from="#3C3C5A" to="#3C3C5A" dur="1.8s" values="#3C3C5A; #3C3C5A; #B8BEDB; #3C3C5A;" keyTimes="0; 0.5; 0.75; 1" repeatCount="indefinite" begin="0.4s" />
	<animate xlink:href="#twinkle-2c" attributeName="fill" from="#3C3C5A" to="#3C3C5A" dur="1.7s" values="#3C3C5A; #3C3C5A; #B8BEDB; #3C3C5A;" keyTimes="0; 0.5; 0.75; 1" repeatCount="indefinite" begin="0.6s" />
	<animate xlink:href="#twinkle-2d" attributeName="fill" from="#3C3C5A" to="#3C3C5A" dur="1.6s" values="#3C3C5A; #3C3C5A; #B8BEDB; #3C3C5A;" keyTimes="0; 0.5; 0.75; 1" repeatCount="indefinite" begin="0.8s" />
	<animate xlink:href="#twinkle-2e" attributeName="fill" from="#3C3C5A" to="#3C3C5A" dur="1.5s" values="#3C3C5A; #3C3C5A; #B8BEDB; #3C3C5A;" keyTimes="0; 0.5; 0.75; 1" repeatCount="indefinite" begin="1s" />

	<animate xlink:href="#twinkle-3" attributeName="fill" from="#3C3C5A" to="#3C3C5A" dur="2.1s" values="#3C3C5A; #3C3C5A; #5F6185; #3C3C5A;" keyTimes="0; 0.5; 0.75; 1" repeatCount="indefinite" begin="1s" />
	<animate xlink:href="#twinkle-3a" attributeName="fill" from="#3C3C5A" to="#3C3C5A" dur="2.3s" values="#3C3C5A; #3C3C5A; #5F6185; #3C3C5A;" keyTimes="0; 0.5; 0.75; 1" repeatCount="indefinite" begin="1.2s" />
	<animate xlink:href="#twinkle-3b" attributeName="fill" from="#3C3C5A" to="#3C3C5A" dur="2.5s" values="#3C3C5A; #3C3C5A; #5F6185; #3C3C5A;" keyTimes="0; 0.5; 0.75; 1" repeatCount="indefinite" begin="1.4s" />
	<animate xlink:href="#twinkle-3c" attributeName="fill" from="#3C3C5A" to="#3C3C5A" dur="1.9s" values="#3C3C5A; #3C3C5A; #5F6185; #3C3C5A;" keyTimes="0; 0.5; 0.75; 1" repeatCount="indefinite" begin="1.6s" />
	<animate xlink:href="#twinkle-3d" attributeName="fill" from="#3C3C5A" to="#3C3C5A" dur="1.7s" values="#3C3C5A; #3C3C5A; #5F6185; #3C3C5A;" keyTimes="0; 0.5; 0.75; 1" repeatCount="indefinite" begin="1.8s" />
	<animate xlink:href="#twinkle-3e" attributeName="fill" from="#3C3C5A" to="#3C3C5A" dur="1.5s" values="#3C3C5A; #3C3C5A; #5F6185; #3C3C5A;" keyTimes="0; 0.5; 0.75; 1" repeatCount="indefinite" begin="2s" />

	<animate xlink:href="#twinkle-4" attributeName="fill" from="#3C3C5A" to="#3C3C5A" dur="2.2s" values="#3C3C5A; #3C3C5A; #5F6185; #3C3C5A;" keyTimes="0; 0.5; 0.75; 1" repeatCount="indefinite" begin="1.2s" />
	<animate xlink:href="#twinkle-4a" attributeName="fill" from="#3C3C5A" to="#3C3C5A" dur="2.4s" values="#3C3C5A; #3C3C5A; #5F6185; #3C3C5A;" keyTimes="0; 0.5; 0.75; 1" repeatCount="indefinite" begin="1.4s" />
	<animate xlink:href="#twinkle-4b" attributeName="fill" from="#3C3C5A" to="#3C3C5A" dur="2.6s" values="#3C3C5A; #3C3C5A; #5F6185; #3C3C5A;" keyTimes="0; 0.5; 0.75; 1" repeatCount="indefinite" begin="1.6s" />
	<animate xlink:href="#twinkle-4c" attributeName="fill" from="#3C3C5A" to="#3C3C5A" dur="2.8s" values="#3C3C5A; #3C3C5A; #5F6185; #3C3C5A;" keyTimes="0; 0.5; 0.75; 1" repeatCount="indefinite" begin="1.8s" />
	<animate xlink:href="#twinkle-4d" attributeName="fill" from="#3C3C5A" to="#3C3C5A" dur="3s" values="#3C3C5A; #3C3C5A; #5F6185; #3C3C5A;" keyTimes="0; 0.5; 0.75; 1" repeatCount="indefinite" begin="2s" />
	<animate xlink:href="#twinkle-4e" attributeName="fill" from="#3C3C5A" to="#3C3C5A" dur="3.2s" values="#3C3C5A; #3C3C5A; #5F6185; #3C3C5A;" keyTimes="0; 0.5; 0.75; 1" repeatCount="indefinite" begin="2.2s" />

	<animate xlink:href="#twinkle-5" attributeName="fill" from="#3C3C5A" to="#3C3C5A" dur="2s" values="#3C3C5A; #3C3C5A; #7C80A7; #3C3C5A;" keyTimes="0; 0.5; 0.75; 1" repeatCount="indefinite" begin="1.8s" />
	<animate xlink:href="#twinkle-5b" attributeName="fill" from="#3C3C5A" to="#3C3C5A" dur="1.8s" values="#3C3C5A; #3C3C5A; #7C80A7; #3C3C5A;" keyTimes="0; 0.5; 0.75; 1" repeatCount="indefinite" begin="1.6s" />
	<animate xlink:href="#twinkle-5c" attributeName="fill" from="#3C3C5A" to="#3C3C5A" dur="1.6s" values="#3C3C5A; #3C3C5A; #7C80A7; #3C3C5A;" keyTimes="0; 0.5; 0.75; 1" repeatCount="indefinite" begin="1.4s" />
	<animate xlink:href="#twinkle-5d" attributeName="fill" from="#3C3C5A" to="#3C3C5A" dur="1.4s" values="#3C3C5A; #3C3C5A; #7C80A7; #3C3C5A;" keyTimes="0; 0.5; 0.75; 1" repeatCount="indefinite" begin="1.2s" />
	<animate xlink:href="#twinkle-5e" attributeName="fill" from="#3C3C5A" to="#3C3C5A" dur="1.2s" values="#3C3C5A; #3C3C5A; #7C80A7; #3C3C5A;" keyTimes="0; 0.5; 0.75; 1" repeatCount="indefinite" begin="1s" />
</svg>