<?xml version="1.0" encoding="UTF-8"?>
<svg width="270px" height="221px" viewBox="0 0 270 221" version="1.1" xmlns="http://www.w3.org/2000/svg" xmlns:xlink="http://www.w3.org/1999/xlink">
    <!-- Generator: Sketch 50.2 (55047) - http://www.bohemiancoding.com/sketch -->
    <title>uvis-preview</title>
    <desc>Created with Sketch.</desc>
    <defs>
        <linearGradient x1="50%" y1="0%" x2="50%" y2="13.7524458%" id="linearGradient-1">
            <stop stop-color="#D5D5D5" offset="0%"></stop>
            <stop stop-color="#A5A5A5" offset="100%"></stop>
        </linearGradient>
        <path d="M0,2.99399078 C0,1.34045533 1.34098906,0 3.00909453,0 L266.990905,0 C268.652782,0 270,1.33871504 270,2.99399078 L270,22.2 L0,22.2 L0,2.99399078 Z" id="path-2"></path>
        <rect id="path-3" x="0" y="0" width="9.6" height="9.6"></rect>
        <linearGradient x1="66.6401611%" y1="50%" x2="5.03321275%" y2="50%" id="linearGradient-5">
            <stop stop-color="#F2F2F2" offset="0%"></stop>
            <stop stop-color="#F2F2F2" stop-opacity="0" offset="100%"></stop>
        </linearGradient>
        <path d="M187.975037,10.8 L202.240777,10.8 C202.47046,10.8 202.679988,10.9311212 202.780401,11.1376924 L206.863581,19.5376924 C207.008449,19.8357188 206.88429,20.1947561 206.586264,20.3396246 C206.504529,20.3793554 206.414836,20.4 206.323956,20.4 L192.058217,20.4 C191.828534,20.4 191.619005,20.2688788 191.518592,20.0623076 L187.435413,11.6623076 C187.290544,11.3642812 187.414703,11.0052439 187.71273,10.8603754 C187.794465,10.8206446 187.884158,10.8 187.975037,10.8 Z" id="path-6"></path>
        <filter x="-4.1%" y="-8.3%" width="108.2%" height="127.1%" filterUnits="objectBoundingBox" id="filter-7">
            <feMorphology radius="0.3" operator="dilate" in="SourceAlpha" result="shadowSpreadOuter1"></feMorphology>
            <feOffset dx="0" dy="1" in="shadowSpreadOuter1" result="shadowOffsetOuter1"></feOffset>
            <feComposite in="shadowOffsetOuter1" in2="SourceAlpha" operator="out" result="shadowOffsetOuter1"></feComposite>
            <feColorMatrix values="0 0 0 0 0.788235294   0 0 0 0 0.788235294   0 0 0 0 0.788235294  0 0 0 0.5 0" type="matrix" in="shadowOffsetOuter1"></feColorMatrix>
        </filter>
    </defs>
    <g id="Page-2" stroke="none" stroke-width="1" fill="none" fill-rule="evenodd">
        <g id="uvis-preview">
            <g id="Group">
                <path d="M0,23.0647073 L270,23.0647073 L270,217.429665 C270,219.087395 268.659011,220.43125 266.990905,220.43125 L3.00909453,220.43125 C1.34721751,220.43125 0,219.092255 0,217.429665 L0,23.0647073 Z" id="Background" fill="#FFFFFF"></path>
                <rect id="Browser-Border" stroke="url(#linearGradient-1)" stroke-width="0.6" x="0.3" y="0.9" width="269.4" height="219.4" rx="3"></rect>
                <g id="WIndow-Frame" transform="translate(0.000000, 0.600000)" fill="#DEDEDE">
                    <g id="Window-Frame">
                        <use xlink:href="#path-2"></use>
                        <use xlink:href="#path-2"></use>
                    </g>
                </g>
                <g id="Toolbar+Tab" transform="translate(0.000000, 6.000000)" fill="#F2F2F2" stroke="#9C9C9C" stroke-width="0.6">
                    <path d="M0.3,17.1 L0.3,39.3 L269.7,39.3 L269.7,17.1 L189.404621,17.1 L181.656651,0.666326275 C181.565295,0.472556805 181.290867,0.3 181.067584,0.3 L52.6961369,0.3 C52.477508,0.3 52.1913845,0.478342305 52.099115,0.669050136 L44.1493801,17.1 L0.3,17.1 Z"></path>
                </g>
                <g id="Navigation-Icons" transform="translate(6.600000, 30.000000)">
                    <path d="M0.796531421,4.78739083 L4.06678235,7.98558779 C4.30081231,8.21446134 4.68408544,8.2116841 4.92659708,7.97573593 L4.92659708,7.97573593 C5.16742967,7.74142136 5.17710939,7.37094011 4.93314912,7.13358251 L2.5346524,4.8 L8.10619178,4.8 C8.43252498,4.8 8.69707031,4.52167969 8.69707031,4.2 L8.69707031,4.2 C8.69707031,3.86862915 8.43227892,3.6 8.10619178,3.6 L2.5346524,3.6 L4.93314912,1.26641749 C5.17036312,1.03562357 5.16910872,0.660212242 4.92659708,0.424264069 L4.92659708,0.424264069 C4.68576448,0.189949494 4.29192562,0.193551636 4.06678235,0.412965775 L0.796531421,3.6 L0.796531421,3.62717285 L0.63360455,3.78569018 C0.39428894,4.01852882 0.388941304,4.39083195 0.63360455,4.6288735 L0.796531421,4.78739083 Z" id="Back" fill="#6D6D6D"></path>
                    <path d="M17.4713776,4.79058388 L20.7416285,7.98878085 C20.9756585,8.21765439 21.3589316,8.21487716 21.6014433,7.97892899 L21.6014433,7.97892899 C21.8422759,7.74461441 21.8519556,7.37413316 21.6079953,7.13677556 L19.2094986,4.80319305 L24.7818036,4.80319305 C25.1081816,4.80319305 25.3727633,4.52487274 25.3727633,4.20319305 L25.3727633,4.20319305 C25.3727633,3.8718222 25.1079355,3.60319305 24.7818036,3.60319305 L19.2094986,3.60319305 L21.6079953,1.26961055 C21.8452093,1.03881663 21.8439549,0.663405296 21.6014433,0.427457123 L21.6014433,0.427457123 C21.3606107,0.193142548 20.9667718,0.19674469 20.7416285,0.416158829 L17.4713776,3.60319305 L17.4713776,3.63036591 L17.3084507,3.78888324 C17.0691351,4.02172188 17.0637875,4.394025 17.3084507,4.63206655 L17.4713776,4.79058388 Z" id="Forward-Inactive" fill="#D7D7D7" transform="translate(21.249858, 4.201597) rotate(-180.000000) translate(-21.249858, -4.201597) "></path>
                    <path d="M40.9042451,1.23015152 L41.7301752,0.426574874 C41.9723195,0.190984076 42.1686163,0.270585108 42.1686163,0.594466782 L42.1686163,3.6 L39.0794769,3.6 C38.7420291,3.6 38.6664636,3.40736847 38.9069147,3.17342513 L40.0321131,2.07867966 C38.8279501,0.907106781 36.8756162,0.907106781 35.6714532,2.07867966 C34.4672902,3.25025253 34.4672902,5.14974747 35.6714532,6.32132034 C36.8756162,7.49289322 38.8279501,7.49289322 40.0321131,6.32132034 C40.186341,6.17126657 40.727131,5.29927468 40.7816028,5.13763638 C40.8877159,4.8227588 41.2360969,4.65119364 41.5597336,4.75443487 C41.8833702,4.8576761 42.0597079,5.19662837 41.9535948,5.51150594 C41.8398699,5.84897025 41.1978495,6.88419042 40.9042451,7.16984848 C39.2184169,8.81005051 36.4851494,8.81005051 34.7993212,7.16984848 C33.113493,5.52964646 33.113493,2.87035354 34.7993212,1.23015152 C36.4851494,-0.410050506 39.2184169,-0.410050506 40.9042451,1.23015152 L40.9042451,1.23015152 Z" id="Refresh" fill="#6D6D6D"></path>
                </g>
                <g id="Address-Bar" transform="translate(55.800000, 25.800000)">
                    <rect id="Address-Bar-Background" stroke="#B7B7B7" stroke-width="0.6" fill="#FFFFFF" x="0.3" y="0.3" width="195.6" height="16.2" rx="1.8"></rect>
                    <path d="M186.900584,4.54148474 L185.993014,7.24122883 L183.223209,7.315658 L185.422683,9.08772509 L184.642282,11.8511694 L186.900584,10.2172629 L189.158886,11.8511694 L188.378485,9.08772799 L190.5779,7.31565799 L187.808153,7.2412287 L186.900584,4.54148474 Z" id="star" stroke="#6D6D6D" stroke-width="0.6"></path>
                    <g id="Address-Bar-Content" transform="translate(4.200000, 4.200000)" fill="#5A5A5A">
                        <g id="Info-Icon">
                            <path d="M3.6,3.6 L4.8,3.6 L4.8,6.6 L3.6,6.6 L3.6,3.6 Z M3.6,1.8 L4.8,1.8 L4.8,3 L3.6,3 L3.6,1.8 Z" id="i"></path>
                            <path d="M4.2,7.8 C6.1882251,7.8 7.8,6.1882251 7.8,4.2 C7.8,2.2117749 6.1882251,0.6 4.2,0.6 C2.2117749,0.6 0.6,2.2117749 0.6,4.2 C0.6,6.1882251 2.2117749,7.8 4.2,7.8 Z M4.2,8.4 C1.88040405,8.4 0,6.51959595 0,4.2 C0,1.88040405 1.88040405,0 4.2,0 C6.51959595,0 8.4,1.88040405 8.4,4.2 C8.4,6.51959595 6.51959595,8.4 4.2,8.4 Z" id="border" fill-rule="nonzero"></path>
                        </g>
                    </g>
                </g>
                <g id="Tab-Content" transform="translate(53.400000, 10.200000)">
                    <text id="FORD-|-Used-Vehicel" font-family="SFUIText-Regular, SF UI Text" font-size="7.2" font-weight="normal" letter-spacing="-0.000256593717" fill="#000000">
                        <tspan x="13.2" y="7.6">FORD | Used Vehicel Informat..</tspan>
                    </text>
                    <g id="Group-2">
                        <mask id="mask-4" fill="white">
                            <use xlink:href="#path-3"></use>
                        </mask>
                        <use id="Mask" fill="#D8D8D8" xlink:href="#path-3"></use>
                        <path d="M1.78541278,9.20730511 C0.87954907,9.20730511 0.0808677048,8.61787834 -0.0101796869,7.58730062 C-0.0640420074,7.05040732 0.08107536,6.51233806 0.394347238,6.08738724 C0.673338816,5.70739477 1.06550044,5.43949404 1.50650817,5.32762719 C1.63213048,5.30189338 1.80154774,5.31782386 1.87185016,5.40605406 C1.98133748,5.54207561 1.94906754,5.69157676 1.83958019,5.75039689 C1.5456931,5.91092685 1.19072363,6.18419537 1.01554387,6.55917371 C0.850358265,6.8827285 0.868126771,7.27711474 1.06164379,7.58239895 C1.42583329,8.16692402 2.44464183,8.18285446 3.38277551,7.25153571 C3.6139024,7.0298066 3.83285388,6.79413752 4.03854706,6.54569412 C4.43528273,6.06877894 4.80437908,5.56665591 5.143793,5.04210449 C5.14830252,5.0333214 5.14830252,5.02270292 5.143793,5.01391983 C5.143793,5.00411646 5.13226803,5.0004402 5.11613304,5.0004402 C4.7525837,5.00696231 4.40080201,5.1385211 4.11345947,5.37541855 C4.07289018,5.41041569 4.02085575,5.42673599 3.96891755,5.42075334 C3.91697935,5.4147707 3.86943918,5.3869806 3.83685986,5.34355767 C3.7800793,5.23108228 3.81853376,5.0909742 3.92329724,5.02862486 C4.42578651,4.66099903 4.97437574,4.58992472 5.53679496,4.4894403 C5.56530175,4.48680997 5.59115275,4.47058835 5.60709734,4.4453252 C5.83759703,4.13161784 6.01162427,3.84854596 6.25710642,3.53116234 C6.50245577,3.22647442 6.77240087,2.94518983 7.06385527,2.6905246 C7.30118743,2.47379029 7.56381851,2.29050784 7.84524916,2.14521296 C7.90287408,2.11335205 7.83718168,2.07413863 7.8198942,2.07413863 C6.57980595,1.82905475 5.29246529,1.50554402 4.06159704,1.99081011 C3.21220574,2.32780044 2.84340628,3.04589624 3.02319603,3.52626064 C3.15112334,3.86692725 3.57293774,3.92207112 3.96709218,3.71742607 C4.31158204,3.5363772 4.60380902,3.25994933 4.81302596,2.91722721 C4.92827582,2.72116008 5.18643543,2.86208333 5.04352565,3.20397535 C4.68394616,4.10465863 3.99590463,4.81785273 3.15688581,4.84848821 C2.44464183,4.87299661 1.98364249,4.31543076 1.98479498,3.62306879 C1.98479498,2.26530406 3.40928296,1.37074788 4.90407335,1.23717716 C6.70312329,1.07909806 8.40651588,1.58887254 10.1928883,1.81925139 C11.5620564,1.99571179 12.8735995,1.99938805 14.2496826,1.66362312 C14.3180829,1.64016104 14.3930429,1.65647051 14.4472775,1.70661502 C14.5015121,1.75675953 14.5271114,1.83342546 14.5147572,1.90870701 C14.5020797,2.16114341 14.31768,2.40500186 13.8647481,2.66724164 C13.3671418,2.94252171 12.812005,3.07912512 12.2512504,3.06427754 C10.8901498,3.07653172 9.62124914,2.51161335 8.30970602,2.20648393 C8.30970602,2.2677549 8.32584097,2.34005466 8.27743604,2.37926806 C7.55136207,2.94908809 6.89443801,3.52748608 6.45418364,4.33993916 C6.43920117,4.35832045 6.44726865,4.37670174 6.4726236,4.37425089 C6.85525307,4.35219334 7.19869757,4.34238997 7.55481957,4.3117545 C7.61705448,4.3117545 7.61935949,4.28969695 7.6147495,4.24190559 C7.57512179,3.93696367 7.67844846,3.63071676 7.89134911,3.4221 C8.12876375,3.19539739 8.42610833,3.16966358 8.62318555,3.33264439 C8.84677024,3.51890812 8.82717776,3.85222221 8.70501294,4.10220778 C8.5938224,4.32389044 8.40301571,4.4883156 8.1760162,4.5580638 C8.1760162,4.5580638 8.13452625,4.56786717 8.14144125,4.60708057 C8.14835624,4.67202781 8.41804085,4.83010692 8.44109083,4.87299661 C8.46121091,4.92461712 8.44929164,4.98408475 8.41112586,5.02249775 C8.37926883,5.06423763 8.33144937,5.08853528 8.28089354,5.0886704 C8.23270353,5.08502954 8.18641549,5.06720969 8.14720375,5.03720279 C8.00524442,4.95705158 7.87891484,4.84892801 7.77494677,4.71859376 C7.74037181,4.67202781 7.72308434,4.67202781 7.63779945,4.67692948 C7.25171252,4.70021247 6.64895585,4.76270886 6.24212395,4.81662729 C6.14300908,4.82888151 6.1268741,4.84848821 6.10843413,4.88525079 C5.45842506,6.02489085 4.76346854,7.25398653 4.00166714,8.0713413 C3.18685078,8.96834832 2.50687674,9.201178 1.78541278,9.20730511 Z M7.98124398,4.14142121 C7.99161647,4.20024134 8.01236144,4.21127012 8.03771639,4.20636842 C8.17658299,4.16639298 8.29702208,4.07405071 8.37655091,3.94657952 C8.4503108,3.83261552 8.48488575,3.6684093 8.41227835,3.60223665 C8.33331615,3.54679703 8.22830332,3.55972032 8.1633387,3.63287213 C8.02760704,3.76018003 7.95950695,3.95036808 7.98124398,4.14142121 Z" id="Shape" fill="#FFFFFF" fill-rule="nonzero" mask="url(#mask-4)"></path>
                    </g>
                    <rect id="gradient" fill="url(#linearGradient-5)" x="102.6" y="0.6" width="24.6" height="10.2"></rect>
                    <path d="M123,4.37573593 L124.587868,2.78786797 C124.705025,2.67071068 124.894975,2.67071068 125.012132,2.78786797 C125.129289,2.90502525 125.129289,3.09497475 125.012132,3.21213203 L123.424264,4.8 L125.012132,6.38786797 C125.129289,6.50502525 125.129289,6.69497475 125.012132,6.81213203 C124.894975,6.92928932 124.705025,6.92928932 124.587868,6.81213203 L123,5.22426407 L121.412132,6.81213203 C121.294975,6.92928932 121.105025,6.92928932 120.987868,6.81213203 C120.870711,6.69497475 120.870711,6.50502525 120.987868,6.38786797 L122.575736,4.8 L120.987868,3.21213203 C120.870711,3.09497475 120.870711,2.90502525 120.987868,2.78786797 C121.105025,2.67071068 121.294975,2.67071068 121.412132,2.78786797 L123,4.37573593 Z" id="Close-Icon" fill="#5A5A5A" fill-rule="nonzero"></path>
                </g>
                <g id="Streetlights" transform="translate(7.416976, 9.000000)" stroke-width="0.6">
                    <circle id="close" stroke="#E14640" fill="#FF6059" cx="3.98302425" cy="3.6" r="3.3"></circle>
                    <circle id="maximize" stroke="#1DAC2C" fill="#28CA42" cx="27.9830243" cy="3.6" r="3.3"></circle>
                    <circle id="minimize" stroke="#DFA023" fill="#FFBD2E" cx="15.9830243" cy="3.6" r="3.3"></circle>
                </g>
                <g id="New-Tab">
                    <use fill="black" fill-opacity="1" filter="url(#filter-7)" xlink:href="#path-6"></use>
                    <use stroke="#A1A1A1" stroke-width="0.6" fill="#D0D0D0" fill-rule="evenodd" xlink:href="#path-6"></use>
                </g>
                <g id="Three-Dots" transform="translate(257.400000, 30.000000)" fill="#5A5A5A">
                    <path d="M1.2,2.1 C0.702943725,2.1 0.3,1.69705627 0.3,1.2 C0.3,0.702943725 0.702943725,0.3 1.2,0.3 C1.69705627,0.3 2.1,0.702943725 2.1,1.2 C2.1,1.69705627 1.69705627,2.1 1.2,2.1 Z M1.2,5.1 C0.702943725,5.1 0.3,4.69705627 0.3,4.2 C0.3,3.70294373 0.702943725,3.3 1.2,3.3 C1.69705627,3.3 2.1,3.70294373 2.1,4.2 C2.1,4.69705627 1.69705627,5.1 1.2,5.1 Z M1.2,8.1 C0.702943725,8.1 0.3,7.69705627 0.3,7.2 C0.3,6.70294373 0.702943725,6.3 1.2,6.3 C1.69705627,6.3 2.1,6.70294373 2.1,7.2 C2.1,7.69705627 1.69705627,8.1 1.2,8.1 Z" id="threeDots"></path>
                </g>
            </g>
            <rect id="Rectangle" fill="#FFFFFF" x="0.600006104" y="45.3999939" width="268.799988" height="25"></rect>
            <rect id="Rectangle-6" fill="#D8D8D8" x="44" y="54" width="67" height="8"></rect>
            <rect id="Rectangle-6" fill="#D8D8D8" x="72" y="31" width="67" height="6"></rect>
            <rect id="Rectangle" fill="#589EF9" x="0.600006104" y="70.3999939" width="268.799988" height="25"></rect>
            <rect id="Rectangle-2" fill="#D8D8D8" x="14" y="107" width="152" height="97"></rect>
            <rect id="Rectangle-3" fill="#D8D8D8" x="179" y="108" width="81" height="8"></rect>
            <rect id="Rectangle-3" fill="#D8D8D8" x="179" y="120" width="81" height="8"></rect>
            <rect id="Rectangle-3" fill="#D8D8D8" x="179" y="132" width="81" height="8"></rect>
            <rect id="Rectangle-3" fill="#D8D8D8" x="179" y="144" width="81" height="8"></rect>
            <rect id="Rectangle-3" fill="#D8D8D8" x="179" y="156" width="57" height="8"></rect>
            <g id="Logo" transform="translate(11.945692, 52.932688)" fill="#589EF9" fill-rule="nonzero">
                <path d="M12.2591678,9.72571429 C18.8839272,9.72571429 24.2553191,7.58243324 24.2553191,4.93046206 C24.2553191,2.27849089 18.8839272,0.125714286 12.2591678,0.125714286 C5.63440831,0.125714286 0.255319149,2.27849089 0.255319149,4.93181856 C0.255319149,7.58514625 5.62671106,9.72571429 12.2591678,9.72571429 Z" id="Mask"></path>
            </g>
            <g id="Group-3" transform="translate(29.500000, 79.399994)" fill="#FFFFFF">
                <rect id="Rectangle-4" x="0" y="0" width="30" height="7" rx="3.5"></rect>
                <rect id="Rectangle-4" x="60.210908" y="0" width="30" height="7" rx="3.5"></rect>
                <rect id="Rectangle-4" x="120.421816" y="0" width="30" height="7" rx="3.5"></rect>
                <rect id="Rectangle-4" x="180.632724" y="0" width="30" height="7" rx="3.5"></rect>
            </g>
            <circle id="Oval-2" fill="#589EF9" cx="251" cy="58" r="6"></circle>
            <path d="M15,108 L164,202" id="Line-2" stroke="#C7C7C7" stroke-width="2" stroke-linecap="round" stroke-linejoin="round"></path>
            <path d="M165,108 L16,203" id="Line-3" stroke="#C7C7C7" stroke-width="2" stroke-linecap="round" stroke-linejoin="round"></path>
            <rect id="Rectangle-5" fill="#589EF9" x="179" y="192" width="43" height="12" rx="1"></rect>
        </g>
    </g>
</svg>