<?xml version="1.0" encoding="UTF-8" standalone="no"?>
<svg width="300px" height="300px" viewBox="0 0 300 300" version="1.1" xmlns="http://www.w3.org/2000/svg" xmlns:xlink="http://www.w3.org/1999/xlink">
    <!-- Generator: Sketch 3.8.3 (29802) - http://www.bohemiancoding.com/sketch -->
    <title>preview</title>
    <desc>Created with Sketch.</desc>
    <defs>
        <filter x="-50%" y="-50%" width="200%" height="200%" filterUnits="objectBoundingBox" id="filter-1">
            <feOffset dx="0" dy="4" in="SourceAlpha" result="shadowOffsetOuter1"></feOffset>
            <feColorMatrix values="0 0 0 0 0   0 0 0 0 0   0 0 0 0 0  0 0 0 0.1 0" type="matrix" in="shadowOffsetOuter1" result="shadowMatrixOuter1"></feColorMatrix>
            <feMerge>
                <feMergeNode in="shadowMatrixOuter1"></feMergeNode>
                <feMergeNode in="SourceGraphic"></feMergeNode>
            </feMerge>
        </filter>
        <rect id="path-2" x="0" y="0" width="220" height="192" rx="2"></rect>
        <ellipse id="path-4" cx="58" cy="1.77635684e-15" rx="10" ry="10"></ellipse>
        <mask id="mask-5" maskContentUnits="userSpaceOnUse" maskUnits="objectBoundingBox" x="0" y="0" width="20" height="20" fill="white">
            <use xlink:href="#path-4"></use>
        </mask>
        <ellipse id="path-6" cx="58" cy="192" rx="10" ry="10"></ellipse>
        <mask id="mask-7" maskContentUnits="userSpaceOnUse" maskUnits="objectBoundingBox" x="0" y="0" width="20" height="20" fill="white">
            <use xlink:href="#path-6"></use>
        </mask>
        <ellipse id="path-8" cx="190" cy="1.77635684e-15" rx="10" ry="10"></ellipse>
        <mask id="mask-9" maskContentUnits="userSpaceOnUse" maskUnits="objectBoundingBox" x="0" y="0" width="20" height="20" fill="white">
            <use xlink:href="#path-8"></use>
        </mask>
        <ellipse id="path-10" cx="190" cy="192" rx="10" ry="10"></ellipse>
        <mask id="mask-11" maskContentUnits="userSpaceOnUse" maskUnits="objectBoundingBox" x="0" y="0" width="20" height="20" fill="white">
            <use xlink:href="#path-10"></use>
        </mask>
        <path d="M125,186 C174.705627,186 215,145.705627 215,96 C215,46.2943725 174.705627,6 125,6 C75.2943725,6 35,46.2943725 35,96 C35,145.705627 75.2943725,186 125,186 Z M125,125 C141.016258,125 154,112.016258 154,96 C154,79.9837423 141.016258,67 125,67 C108.983742,67 96,79.9837423 96,96 C96,112.016258 108.983742,125 125,125 Z" id="path-12"></path>
        <filter x="-50%" y="-50%" width="200%" height="200%" filterUnits="objectBoundingBox" id="filter-13">
            <feOffset dx="0" dy="4" in="SourceAlpha" result="shadowOffsetOuter1"></feOffset>
            <feComposite in="shadowOffsetOuter1" in2="SourceAlpha" operator="out" result="shadowOffsetOuter1"></feComposite>
            <feColorMatrix values="0 0 0 0 0   0 0 0 0 0   0 0 0 0 0  0 0 0 0.1 0" type="matrix" in="shadowOffsetOuter1"></feColorMatrix>
        </filter>
        <mask id="mask-14" maskContentUnits="userSpaceOnUse" maskUnits="objectBoundingBox" x="0" y="0" width="180" height="180" fill="white">
            <use xlink:href="#path-12"></use>
        </mask>
        <filter x="-50%" y="-50%" width="200%" height="200%" filterUnits="objectBoundingBox" id="filter-15">
            <feOffset dx="0" dy="4" in="SourceAlpha" result="shadowOffsetOuter1"></feOffset>
            <feColorMatrix values="0 0 0 0 0   0 0 0 0 0   0 0 0 0 0  0 0 0 0.1 0" type="matrix" in="shadowOffsetOuter1" result="shadowMatrixOuter1"></feColorMatrix>
            <feMerge>
                <feMergeNode in="shadowMatrixOuter1"></feMergeNode>
                <feMergeNode in="SourceGraphic"></feMergeNode>
            </feMerge>
        </filter>
        <path d="M0.821693748,16.3661009 C0.367884822,16.0476385 -4.26130364e-16,15.3333628 -4.04679255e-16,14.7885569 L-3.94099549e-17,5.51160753 C-1.76444378e-17,4.95881648 0.357358932,4.24203485 0.796753675,3.91170588 L2.80675963,2.40061999 C4.57033759,1.07479418 7.78590281,0 9.99293804,0 L170,0 L170,20 L9.99293804,20 C7.78769925,20 4.53223488,18.9699894 2.71911621,17.6976254 L0.821693748,16.3661009 Z" id="path-16"></path>
    </defs>
    <g id="Page-1" stroke="none" stroke-width="1" fill="none" fill-rule="evenodd">
        <g id="preview">
            <g id="Wintr.mx-Artwork" transform="translate(15.000000, 32.000000)">
                <g id="CD" transform="translate(25.000000, 0.000000)">
                    <g filter="url(#filter-1)">
                        <mask id="mask-3" fill="white">
                            <use xlink:href="#path-2"></use>
                        </mask>
                        <use id="Mask" fill="#40445E" xlink:href="#path-2"></use>
                        <g id="Grooves" mask="url(#mask-3)" stroke-linecap="square" stroke="#000000" stroke-width="2" opacity="0.2">
                            <g transform="translate(2.000000, 1.000000)">
                                <path d="M1,-1.66533454e-16 L1,189.690002" id="Line" style="mix-blend-mode: overlay;"></path>
                                <path d="M5,-1.66533454e-16 L5,189.690002" id="Line-Copy" style="mix-blend-mode: overlay;"></path>
                                <path d="M9,-1.66533454e-16 L9,189.690002" id="Line-Copy-3" style="mix-blend-mode: overlay;"></path>
                                <path d="M13,-1.66533454e-16 L13,189.690002" id="Line-Copy-2" style="mix-blend-mode: overlay;"></path>
                                <path d="M17,-1.66533454e-16 L17,189.690002" id="Line-Copy-5" style="mix-blend-mode: overlay;"></path>
                                <path d="M21,-1.66533454e-16 L21,189.690002" id="Line-Copy-4" style="mix-blend-mode: overlay;"></path>
                                <path d="M25,-1.66533454e-16 L25,189.690002" id="Line-Copy-6" style="mix-blend-mode: overlay;"></path>
                            </g>
                        </g>
                        <rect id="Mask" fill="#60668D" mask="url(#mask-3)" x="28" y="0" width="2" height="192"></rect>
                        <g id="Oval-7" mask="url(#mask-3)" stroke-linecap="square" stroke-width="4" stroke="#60668D">
                            <use mask="url(#mask-5)" xlink:href="#path-4"></use>
                        </g>
                        <g id="Oval-7-Copy-2" mask="url(#mask-3)" stroke-linecap="square" stroke-width="4" stroke="#60668D">
                            <use mask="url(#mask-7)" xlink:href="#path-6"></use>
                        </g>
                        <g id="Oval-7-Copy" mask="url(#mask-3)" stroke-linecap="square" stroke-width="4" stroke="#60668D">
                            <use mask="url(#mask-9)" xlink:href="#path-8"></use>
                        </g>
                        <g id="Oval-7-Copy-3" mask="url(#mask-3)" stroke-linecap="square" stroke-width="4" stroke="#60668D">
                            <use mask="url(#mask-11)" xlink:href="#path-10"></use>
                        </g>
                        <g id="Mask">
                            <use fill="black" fill-opacity="1" filter="url(#filter-13)" xlink:href="#path-12"></use>
                            <use stroke="#FFFFFF" mask="url(#mask-14)" stroke-width="8" stroke-linecap="square" fill="#E9EAF0" fill-rule="evenodd" xlink:href="#path-12"></use>
                        </g>
                        <path d="M143.264852,73.4733496 L181.684022,26.0897057 C194.844739,36.773693 204.929702,51.0991343 210.40466,67.5317799 L152.519279,86.8269069 C150.755126,81.5319433 147.505527,76.9159678 143.264852,73.4733496 Z" id="Combined-Shape" fill-opacity="0.5" fill="#FFFFFF" style="mix-blend-mode: overlay;"></path>
                        <path d="M106.735148,118.52665 L68.3159776,165.910294 C55.1552607,155.226307 45.0702982,140.900866 39.5953398,124.46822 L97.4807206,105.173093 C99.2448739,110.468057 102.494473,115.084032 106.735148,118.52665 Z" id="Combined-Shape" fill-opacity="0.5" fill="#FFFFFF" style="mix-blend-mode: overlay;"></path>
                        <path d="M125,125 C141.016258,125 154,112.016258 154,96 C154,79.9837423 141.016258,67 125,67 C108.983742,67 96,79.9837423 96,96 C96,112.016258 108.983742,125 125,125 Z M125,108 C131.627417,108 137,102.627417 137,96 C137,89.372583 131.627417,84 125,84 C118.372583,84 113,89.372583 113,96 C113,102.627417 118.372583,108 125,108 Z" id="Oval-4" fill-opacity="0.5" fill="#FFFFFF" style="mix-blend-mode: overlay;"></path>
                        <path d="M64.8447266,60.3427734 C64.2294891,60.061522 63.741701,59.6484402 63.3813477,59.1035156 C63.0209943,58.558591 62.6650408,57.9521518 62.3134766,57.2841797 C62.2607419,57.1787104 62.2080081,57.0732427 62.1552734,56.9677734 C62.1025388,56.8623042 62.049805,56.7656254 61.9970703,56.6777344 L61.6279297,55.9921875 L61.4169922,55.5703125 L61.1005859,55.8603516 L60.6259766,56.2822266 L60.3623047,56.5458984 C59.9052712,56.9677755 59.44385,57.3852518 58.9780273,57.7983398 C58.5122047,58.2114278 58.0200221,58.5805648 57.5014648,58.9057617 C56.9829076,59.2309587 56.4379911,59.4946279 55.8666992,59.6967773 C55.2954073,59.8989268 54.6757846,60.008789 54.0078125,60.0263672 L53.4277344,59.7363281 C53.0937483,59.560546 52.8125011,59.4023445 52.5839844,59.2617188 C52.3554676,59.121093 52.0917984,58.9013687 51.7929688,58.6025391 C51.7050777,58.4443351 51.6303714,58.2949226 51.5688477,58.1542969 C51.5073239,58.0136712 51.4414066,57.8730476 51.3710938,57.7324219 C51.1777334,57.3808576 51.0195319,57.0644545 50.8964844,56.7832031 C50.7734369,56.5019517 50.6503912,56.1855486 50.5273438,55.8339844 C50.5800784,55.5878894 50.6591792,55.1704131 50.7646484,54.581543 C50.8701177,53.9926728 50.9975578,53.3466832 51.1469727,52.6435547 C51.2963875,51.9404262 51.454589,51.2329137 51.621582,50.5209961 C51.7885751,49.8090785 51.9599601,49.1894558 52.1357422,48.6621094 C52.2939461,48.2050758 52.4741201,47.7216822 52.6762695,47.2119141 C52.878419,46.7021459 53.0981433,46.2319357 53.3354492,45.8012695 C53.5727551,45.3706033 53.8320298,45.0014664 54.1132812,44.6938477 C54.3945327,44.3862289 54.6933578,44.206055 55.0097656,44.1533203 C55.0976567,44.2763678 55.1943354,44.3642575 55.2998047,44.4169922 C55.405274,44.4697268 55.5019527,44.5136717 55.5898438,44.5488281 C55.8359387,44.9003924 56.0776355,45.1992175 56.3149414,45.4453125 C56.5522473,45.6914075 56.8291,45.9374988 57.1455078,46.1835938 C57.0576167,46.6230491 56.9301766,47.1108372 56.7631836,47.6469727 C56.5961906,48.1831081 56.4204111,48.7192356 56.2358398,49.2553711 C56.0512686,49.7915066 55.8710946,50.3144506 55.6953125,50.8242188 C55.5195304,51.3339869 55.3789068,51.7734357 55.2734375,52.1425781 C55.1679682,52.4414077 55.0800785,52.7753888 55.0097656,53.1445312 C54.8515617,53.7949251 54.7021491,54.6826116 54.5615234,55.8076172 C54.772462,55.7548825 55.0009753,55.6406259 55.2470703,55.4648438 C55.4931653,55.2890616 55.7304676,55.1044932 55.9589844,54.9111328 C56.2226576,54.7001943 56.4863268,54.4628919 56.75,54.1992188 C57.083986,53.8652327 57.3652332,53.5576186 57.59375,53.2763672 C57.8222668,52.9951158 58.0375966,52.7050796 58.2397461,52.40625 C58.4418955,52.1074204 58.6484364,51.7778338 58.859375,51.4174805 C59.0703136,51.0571271 59.3251938,50.6308618 59.6240234,50.1386719 C59.8876966,49.7167948 60.1645493,49.2641626 60.4545898,48.7807617 C60.7446304,48.2973609 61.0346665,47.8315452 61.324707,47.3833008 C61.6147475,46.9350564 61.9003892,46.526369 62.1816406,46.1572266 C62.462892,45.7880841 62.7177723,45.4980479 62.9462891,45.2871094 C63.0869148,45.4628915 63.2670887,45.629882 63.4868164,45.7880859 C63.7065441,45.9462899 63.9394519,46.0693355 64.1855469,46.1572266 C64.2910162,46.3154305 64.3920894,46.4604486 64.4887695,46.5922852 C64.5854497,46.7241218 64.6777339,46.8427729 64.765625,46.9482422 C64.8710943,47.1064461 64.9721675,47.2558587 65.0688477,47.3964844 C65.1655278,47.5371101 65.2578121,47.6777337 65.3457031,47.8183594 C65.3281249,47.9414069 65.301758,48.0996084 65.2666016,48.2929688 C65.2314451,48.4863291 65.1918948,48.6972645 65.1479492,48.9257812 C65.1040037,49.154298 65.0556643,49.3872058 65.0029297,49.6245117 C64.950195,49.8618176 64.8974612,50.0859364 64.8447266,50.296875 C64.7041009,50.9648471 64.5986332,51.4658186 64.5283203,51.7998047 C64.4580075,52.1337907 64.4096681,52.39746 64.3833008,52.5908203 C64.3569335,52.7841807 64.3393555,52.9467767 64.3305664,53.0786133 C64.3217773,53.2104499 64.3173828,53.3906239 64.3173828,53.6191406 C64.2998046,53.7949228 64.3085936,53.9707022 64.34375,54.1464844 C64.3613282,54.3046883 64.3964841,54.4716788 64.4492188,54.6474609 C64.5019534,54.8232431 64.5722652,54.9814446 64.6601562,55.1220703 L65.7148438,54.3046875 C66.0136734,54.0761707 66.299315,53.7641621 66.5717773,53.3686523 C66.8442396,52.9731426 67.1079089,52.5161159 67.362793,51.9975586 C67.6176771,51.4790013 67.8681628,50.9121125 68.1142578,50.296875 C68.3603528,49.6816375 68.6064441,49.0576204 68.8525391,48.4248047 C69.2216815,47.4931594 69.595213,46.587895 69.9731445,45.7089844 C70.3510761,44.8300737 70.7158186,44.1533227 71.0673828,43.6787109 C71.4541035,43.9248059 71.792479,44.1752917 72.0825195,44.4301758 C72.37256,44.6850599 72.6230458,44.9619126 72.8339844,45.2607422 C73.0449229,45.5595718 73.2163079,45.9023418 73.3481445,46.2890625 C73.4799811,46.6757832 73.5722654,47.1328099 73.625,47.6601562 C73.3085922,48.2753937 73.0053725,48.9081999 72.715332,49.5585938 C72.4252915,50.2089876 72.1484388,50.8593717 71.8847656,51.5097656 C71.5332014,52.3535198 71.1684589,53.1972614 70.7905273,54.0410156 C70.4125958,54.8847698 69.9951195,55.688961 69.5380859,56.4536133 C69.0810524,57.2182655 68.5712919,57.9213835 68.0087891,58.5629883 C67.4462862,59.2045931 66.7959021,59.745115 66.0576172,60.1845703 C65.8642568,60.1318357 65.6972663,60.1054688 65.5566406,60.1054688 C65.2753892,60.1054688 65.0380869,60.1845695 64.8447266,60.3427734 L64.8447266,60.3427734 Z M77.2490234,58.359375 C77.3271488,58.8281273 77.2998054,59.1953112 77.1669922,59.4609375 C77.034179,59.7265638 76.8466809,59.9257806 76.6044922,60.0585938 C76.3623035,60.1914069 76.0849625,60.2656249 75.7724609,60.28125 C75.4599594,60.2968751 75.1630873,60.2812502 74.8818359,60.234375 C74.7255852,60.0156239 74.5849616,59.7421891 74.4599609,59.4140625 C74.3349603,59.0859359 74.217774,58.7460955 74.1083984,58.3945312 C73.9990229,58.042967 73.9013676,57.6953142 73.8154297,57.3515625 C73.7294918,57.0078108 73.6552737,56.7031263 73.5927734,56.4375 C73.6708988,56.2499991 73.7216796,56.0351575 73.7451172,55.7929688 C73.7685548,55.55078 73.7841796,55.3046887 73.7919922,55.0546875 C73.7998047,54.8046863 73.8076171,54.5507825 73.8154297,54.2929688 C73.8232422,54.035155 73.8427733,53.7890637 73.8740234,53.5546875 C73.983399,52.8984342 74.1435536,52.2734405 74.3544922,51.6796875 C74.5654307,51.0859345 74.7333978,50.4687532 74.8583984,49.828125 C74.8896486,49.6874993 74.87793,49.5546881 74.8232422,49.4296875 C74.7685544,49.3046869 74.7568358,49.1875005 74.7880859,49.078125 C74.803711,49.0156247 74.8505855,48.9726564 74.9287109,48.9492188 C75.0068363,48.9257811 75.0537109,48.8750004 75.0693359,48.796875 C75.1162112,48.6249991 75.1279298,48.4843755 75.1044922,48.375 C75.0810546,48.2656245 75.108398,48.1328133 75.1865234,47.9765625 C75.2646488,47.8515619 75.3623041,47.66797 75.4794922,47.4257812 C75.5966803,47.1835925 75.6396486,46.9296888 75.6083984,46.6640625 C75.7490241,46.570312 75.8818353,46.4609381 76.0068359,46.3359375 C76.1318366,46.2109369 76.2607415,46.0976568 76.3935547,45.9960938 C76.5263679,45.8945307 76.6748039,45.8046879 76.8388672,45.7265625 C77.0029305,45.6484371 77.2021473,45.609375 77.4365234,45.609375 C77.5615241,45.7656258 77.6435545,45.9374991 77.6826172,46.125 C77.7216799,46.3125009 77.760742,46.4999991 77.7998047,46.6875 C77.8388674,46.8750009 77.8974605,47.0507804 77.9755859,47.2148438 C78.0537113,47.3789071 78.1865225,47.507812 78.3740234,47.6015625 L78.3740234,48.0703125 C78.3740234,48.2578134 78.3818359,48.4414054 78.3974609,48.6210938 C78.413086,48.8007821 78.4482419,48.964843 78.5029297,49.1132812 C78.5576175,49.2617195 78.6474603,49.3593748 78.7724609,49.40625 C78.4912095,50.1562538 78.2294934,50.8984338 77.9873047,51.6328125 C77.745116,52.3671912 77.5458992,53.105465 77.3896484,53.8476562 C77.2333977,54.5898475 77.1357424,55.3359338 77.0966797,56.0859375 C77.057617,56.8359413 77.1083977,57.5937462 77.2490234,58.359375 L77.2490234,58.359375 Z M84.0722656,55.9121094 C83.9374993,55.9420574 83.8401696,56.0206699 83.7802734,56.1479492 C83.7203773,56.2752285 83.6642255,56.4062493 83.6118164,56.5410156 C83.5594073,56.6757819 83.506999,56.7993158 83.4545898,56.9116211 C83.4021807,57.0239263 83.3235682,57.0800781 83.21875,57.0800781 C83.203776,57.1998704 83.162598,57.3046871 83.0952148,57.3945312 C83.0278317,57.4843754 82.964193,57.5779618 82.9042969,57.675293 C82.8444007,57.7726242 82.7994793,57.8774408 82.7695312,57.9897461 C82.7395832,58.1020513 82.754557,58.2330722 82.8144531,58.3828125 C82.6946609,58.4726567 82.6197918,58.5999341 82.5898438,58.7646484 C82.5598957,58.9293628 82.5262046,59.0865878 82.4887695,59.2363281 C82.4513344,59.3860685 82.3876958,59.5133458 82.2978516,59.6181641 C82.2080074,59.7229823 82.0432955,59.7679037 81.8037109,59.7529297 C81.7587888,59.8128258 81.7513019,59.8502603 81.78125,59.8652344 C81.8111981,59.8802084 81.8336588,59.9326167 81.8486328,60.0224609 C81.6839184,59.9925129 81.5603845,60.0037432 81.4780273,60.0561523 C81.3956702,60.1085615 81.294597,60.1422525 81.1748047,60.1572266 C80.8902981,60.0673824 80.6544606,59.9101574 80.4672852,59.6855469 C80.2801097,59.4609364 80.1153978,59.2101251 79.9731445,58.9331055 C79.8308912,58.6560859 79.7036138,58.3753269 79.5913086,58.0908203 C79.4790033,57.8063137 79.3704432,57.5592458 79.265625,57.3496094 C79.3105471,57.184895 79.318034,57.0239266 79.2880859,56.8666992 C79.2581379,56.7094719 79.2057295,56.578451 79.1308594,56.4736328 C79.864587,54.9163334 80.6656858,53.2542406 81.5341797,51.4873047 C82.4026736,49.7203688 83.2262331,47.9759201 84.0048828,46.2539062 C84.3492856,46.3886725 84.6899397,46.5421541 85.0268555,46.7143555 C85.3637712,46.8865569 85.6707343,47.0849598 85.9477539,47.3095703 C86.2247735,47.5341808 86.460611,47.792479 86.6552734,48.0844727 C86.8499359,48.3764663 86.9772132,48.7021466 87.0371094,49.0615234 C87.0071613,49.1513676 86.9734702,49.1850587 86.9360352,49.1625977 C86.8986001,49.1401366 86.864909,49.151367 86.8349609,49.1962891 C86.8948571,49.2711592 86.9285481,49.3235676 86.9360352,49.3535156 C86.9435222,49.3834637 86.9435222,49.4134113 86.9360352,49.4433594 C86.9285481,49.4733074 86.9248047,49.5144854 86.9248047,49.5668945 C86.9248047,49.6193036 86.9472654,49.6904292 86.9921875,49.7802734 C86.9322914,49.7652994 86.8911134,49.7727863 86.8686523,49.8027344 C86.8461913,49.8326824 86.7975264,49.8326824 86.7226562,49.8027344 C86.7825524,49.9674487 86.8012696,50.102213 86.7788086,50.2070312 C86.7563475,50.3118495 86.7226565,50.4054358 86.6777344,50.487793 C86.6328123,50.5701502 86.5953778,50.659993 86.5654297,50.7573242 C86.5354816,50.8546554 86.5429685,50.9781894 86.5878906,51.1279297 C86.5429685,51.1279297 86.5092775,51.13916 86.4868164,51.1616211 C86.4643554,51.1840821 86.4456381,51.2065429 86.4306641,51.2290039 C86.41569,51.251465 86.3969728,51.2739257 86.3745117,51.2963867 C86.3520507,51.3188478 86.3183596,51.3225912 86.2734375,51.3076172 C86.3183596,51.6370459 86.3333334,51.9664697 86.3183594,52.2958984 C86.3033853,52.6253272 86.292155,52.9584944 86.284668,53.2954102 C86.277181,53.6323259 86.2809244,53.9842104 86.2958984,54.3510742 C86.3108725,54.717938 86.3632808,55.0960267 86.453125,55.4853516 C86.9921902,55.1708969 87.4226872,54.766604 87.7446289,54.2724609 C88.0665706,53.7783178 88.3286123,53.2242869 88.5307617,52.6103516 C88.7329112,51.9964162 88.8863927,51.3375686 88.9912109,50.6337891 C89.0960292,49.9300095 89.2083327,49.2112667 89.328125,48.4775391 C89.4628913,48.3427728 89.567708,48.1780609 89.6425781,47.9833984 C89.7174483,47.788736 89.7848304,47.5828461 89.8447266,47.3657227 C89.9046227,47.1485992 89.9645179,46.931479 90.0244141,46.7143555 C90.0843102,46.497232 90.1591792,46.298829 90.2490234,46.1191406 C90.4736339,46.1490887 90.66455,46.2202143 90.8217773,46.3325195 C90.9790047,46.4448248 91.1249993,46.5646152 91.2597656,46.6918945 C91.3945319,46.8191738 91.5367831,46.9389643 91.6865234,47.0512695 C91.8362638,47.1635748 92.0234364,47.2347004 92.2480469,47.2646484 C92.4277353,47.519207 92.5924472,47.7662748 92.7421875,48.0058594 C92.8919278,48.2454439 92.9892576,48.4999987 93.0341797,48.7695312 C92.9593095,48.8893235 92.9031577,49.0240878 92.8657227,49.1738281 C92.8282876,49.3235685 92.7871096,49.4733065 92.7421875,49.6230469 C92.6972654,49.7727872 92.6373702,49.9112949 92.5625,50.0385742 C92.4876298,50.1658535 92.3828132,50.2744136 92.2480469,50.3642578 C92.2031248,50.7535827 92.146973,51.1092106 92.0795898,51.4311523 C92.0122067,51.7530941 91.9448246,52.0712875 91.8774414,52.3857422 C91.8100583,52.7001969 91.7539065,53.0258772 91.7089844,53.362793 C91.6640623,53.6997087 91.6490885,54.0703105 91.6640625,54.4746094 C91.5442702,54.8190121 91.4169929,55.1858704 91.2822266,55.5751953 C91.1474603,55.9645202 91.0426436,56.3164047 90.9677734,56.6308594 C90.7281889,56.8255218 90.5410163,57.0576158 90.40625,57.3271484 C90.2714837,57.596681 90.1292325,57.8662096 89.9794922,58.1357422 C89.9195961,58.1956383 89.8821615,58.2106121 89.8671875,58.1806641 C89.8522135,58.150716 89.7998051,58.1282553 89.7099609,58.1132812 C89.724935,58.1731774 89.724935,58.2180988 89.7099609,58.2480469 C89.6949869,58.2779949 89.6762696,58.3041991 89.6538086,58.3266602 C89.6313475,58.3491212 89.6163737,58.3828123 89.6088867,58.4277344 C89.6013997,58.4726565 89.6126301,58.5325517 89.6425781,58.6074219 C89.4329417,58.6972661 89.2457691,58.8245434 89.0810547,58.9892578 C88.9163403,59.1539722 88.7403981,59.3037103 88.5532227,59.4384766 C88.3660472,59.5732429 88.1414401,59.6630857 87.8793945,59.7080078 C87.617349,59.7529299 87.2766948,59.7005216 86.8574219,59.5507812 C86.2434865,59.1015603 85.700686,58.5849639 85.2290039,58.0009766 C84.7573219,57.4169893 84.3717463,56.7207072 84.0722656,55.9121094 L84.0722656,55.9121094 Z M106.986133,48.7265625 C106.595506,48.7265625 106.173635,48.753906 105.720508,48.8085938 C105.267381,48.8632815 104.822073,48.9218747 104.38457,48.984375 C104.072069,49.0312502 103.771291,49.0703123 103.482227,49.1015625 C103.193163,49.1328127 102.931447,49.1562499 102.69707,49.171875 C102.587695,49.5156267 102.478321,49.8203112 102.368945,50.0859375 C102.25957,50.3515638 102.142383,50.6093738 102.017383,50.859375 C101.892382,51.1250013 101.779102,51.3945299 101.677539,51.6679688 C101.575976,51.9414076 101.478321,52.2343734 101.38457,52.546875 C101.22832,52.7968762 101.099415,53.0273427 100.997852,53.2382812 C100.896289,53.4492198 100.814258,53.6874987 100.751758,53.953125 C100.564257,54.1875012 100.423633,54.4335925 100.329883,54.6914062 C100.236132,54.94922 100.165821,55.1718741 100.118945,55.359375 L100.025195,55.640625 C99.9314449,55.7343755 99.8767579,55.8085935 99.8611329,55.8632812 C99.8455078,55.917969 99.8064457,55.9687498 99.7439454,56.015625 C99.7283203,56.1875009 99.6736333,56.3593741 99.5798829,56.53125 C99.5486327,56.6093754 99.5251954,56.6835934 99.5095704,56.7539062 C99.4939453,56.8242191 99.4861329,56.8749998 99.4861329,56.90625 C99.4861329,57.0625008 99.4470708,57.1640623 99.3689454,57.2109375 C99.3845704,57.2890629 99.3845704,57.3710933 99.3689454,57.4570312 C99.3533203,57.5429692 99.3376954,57.6249996 99.3220704,57.703125 C99.2751951,57.8906259 99.2595703,58.039062 99.2751954,58.1484375 C99.3220706,58.2109378 99.3650389,58.2656248 99.4041016,58.3125 C99.4431643,58.3593752 99.4705078,58.4218746 99.4861329,58.5 C99.5798833,58.5625003 99.6501951,58.6015624 99.6970704,58.6171875 C99.7595707,58.6640627 99.8533197,58.7187497 99.9783204,58.78125 L100.189258,59.015625 C100.267383,59.4687523 100.197071,59.8281237 99.9783204,60.09375 C99.7439442,60.3906265 99.3455107,60.5390625 98.7830079,60.5390625 L98.5017579,60.5390625 C98.4236325,60.4609371 98.3767579,60.3984377 98.3611329,60.3515625 C98.2361322,60.3046873 98.1345708,60.2656252 98.0564454,60.234375 C97.97832,60.2031248 97.9080082,60.1406255 97.8455079,60.046875 C97.6423818,59.9531245 97.478321,59.8750003 97.3533204,59.8125 L97.1423829,59.6953125 L97.1423829,59.4140625 C97.0330073,59.2734368 96.9509769,59.1171884 96.8962891,58.9453125 C96.8416013,58.7734366 96.798633,58.6015634 96.7673829,58.4296875 C96.7361327,58.2890618 96.7009768,58.1562506 96.6619141,58.03125 C96.6228514,57.9062494 96.5720707,57.7968755 96.5095704,57.703125 C96.4783202,56.7968705 96.5642568,56.0312531 96.7673829,55.40625 C96.9705089,54.7812469 97.1814443,54.1796904 97.4001954,53.6015625 C97.525196,53.2890609 97.6501947,52.9726579 97.7751954,52.6523438 C97.900196,52.3320296 98.0095699,52.0000017 98.1033204,51.65625 L98.3142579,51.421875 C98.4236334,51.1718738 98.5134763,50.9648446 98.5837891,50.8007812 C98.654102,50.6367179 98.72832,50.4687509 98.8064454,50.296875 C98.8533206,50.1874995 98.8962889,50.0820318 98.9353516,49.9804688 C98.9744143,49.8789057 99.0095702,49.7890629 99.0408204,49.7109375 C98.9470699,49.7109375 98.8611333,49.7148437 98.7830079,49.7226562 C98.7048825,49.7304688 98.6267583,49.7421874 98.5486329,49.7578125 C98.4548824,49.7734376 98.3689458,49.7851562 98.2908204,49.7929688 C98.212695,49.8007813 98.1345708,49.8046875 98.0564454,49.8046875 C97.9470698,49.8046875 97.8689456,49.7968751 97.8220704,49.78125 C97.6501945,49.8593754 97.4626964,49.8984375 97.2595704,49.8984375 L97.0251954,49.8984375 C96.9783201,49.8984375 96.9353518,49.8945313 96.8962891,49.8867188 C96.8572264,49.8789062 96.8220705,49.875 96.7908204,49.875 C96.6345696,49.875 96.5095708,49.8984373 96.4158204,49.9453125 L95.8767579,49.9453125 L95.6423829,49.9453125 C95.6111327,49.9453125 95.5720706,49.9492187 95.5251954,49.9570312 C95.4783201,49.9648438 95.439258,49.96875 95.4080079,49.96875 C95.2986323,49.96875 95.181446,49.9570314 95.0564454,49.9335938 C94.9314447,49.9101561 94.7986336,49.8593754 94.6580079,49.78125 C94.4705069,49.5312488 94.3455082,49.3984376 94.2830079,49.3828125 L94.0720704,49.1015625 C94.0564453,49.007812 94.033008,48.9179692 94.0017579,48.8320312 C93.9705077,48.7460933 93.939258,48.648438 93.9080079,48.5390625 C93.8455075,48.3828117 93.7869144,48.2148446 93.7322266,48.0351562 C93.6775388,47.8554679 93.6501954,47.6406262 93.6501954,47.390625 C93.6658204,47.2656244 93.6970701,47.1718753 93.7439454,47.109375 C93.7908206,47.0468747 93.8298827,46.9921877 93.8611329,46.9453125 L93.9314454,46.59375 L94.2361329,46.6171875 L94.8923829,46.6171875 C95.3923854,46.6171875 95.9001928,46.5976564 96.4158204,46.5585938 C96.9314479,46.5195311 97.4626926,46.4765627 98.0095704,46.4296875 C98.3220719,46.3984373 98.638475,46.3671877 98.9587891,46.3359375 C99.2791032,46.3046873 99.6111311,46.2734377 99.9548829,46.2421875 C100.017383,46.1015618 100.079883,45.9687506 100.142383,45.84375 L100.376758,45.7265625 C100.658009,45.7109374 100.857226,45.7460933 100.974414,45.8320312 C101.091602,45.9179692 101.189257,45.9999996 101.267383,46.078125 C101.611135,46.0468748 101.958787,46.0117189 102.310352,45.9726562 C102.661916,45.9335936 103.017381,45.8828128 103.376758,45.8203125 C103.908011,45.7421871 104.443161,45.6718753 104.982227,45.609375 C105.521292,45.5468747 106.040818,45.515625 106.54082,45.515625 C106.759571,45.515625 106.970507,45.5234374 107.173633,45.5390625 C107.376759,45.5546876 107.564257,45.5781248 107.736133,45.609375 L107.970508,45.7734375 C108.017383,45.867188 108.083789,45.9531246 108.169727,46.03125 C108.255665,46.1093754 108.345507,46.1874996 108.439258,46.265625 C108.626759,46.4375009 108.814257,46.6406238 109.001758,46.875 C109.189259,47.1093762 109.259571,47.4531227 109.212695,47.90625 C109.087695,48.0937509 108.993946,48.2031248 108.931445,48.234375 L108.720508,48.515625 L108.486133,48.4921875 C108.392382,48.4921875 108.306446,48.5039061 108.22832,48.5273438 C108.150195,48.5507814 108.072071,48.5781248 107.993945,48.609375 C107.931445,48.6406252 107.868946,48.6679686 107.806445,48.6914062 C107.743945,48.7148439 107.673633,48.7343749 107.595508,48.75 C107.454882,48.75 107.341602,48.7460938 107.255664,48.7382812 C107.169726,48.7304687 107.079883,48.7265625 106.986133,48.7265625 L106.986133,48.7265625 Z M109.731445,57.5625 C109.55957,58.1875031 109.407227,58.6601546 109.274414,58.9804688 C109.141601,59.3007829 108.942384,59.6328108 108.676758,59.9765625 C108.473632,59.9453123 108.333008,59.9687496 108.254883,60.046875 C108.176757,60.1250004 108.090821,60.1953122 107.99707,60.2578125 C107.856445,60.2890627 107.754883,60.2890627 107.692383,60.2578125 C107.629883,60.2265623 107.575196,60.1914064 107.52832,60.1523438 C107.481445,60.1132811 107.422852,60.0742189 107.352539,60.0351562 C107.282226,59.9960936 107.176759,59.9765625 107.036133,59.9765625 C107.004883,59.8515619 106.969727,59.7343755 106.930664,59.625 C106.891601,59.5156245 106.786134,59.4765623 106.614258,59.5078125 C106.645508,59.3828119 106.65332,59.2773442 106.637695,59.1914062 C106.62207,59.1054683 106.602539,59.0273441 106.579102,58.9570312 C106.555664,58.8867184 106.536133,58.8164066 106.520508,58.7460938 C106.504883,58.6757809 106.512695,58.585938 106.543945,58.4765625 C106.46582,58.4765625 106.403321,58.4218755 106.356445,58.3125 C106.30957,58.2031245 106.254883,58.0937505 106.192383,57.984375 C106.239258,57.7031236 106.286133,57.4375012 106.333008,57.1875 C106.379883,56.9374988 106.438476,56.7031261 106.508789,56.484375 C106.579102,56.2656239 106.637695,56.0468761 106.68457,55.828125 C106.731446,55.6093739 106.708008,55.3828137 106.614258,55.1484375 C106.676758,55.1953127 106.723633,55.1835941 106.754883,55.1132812 C106.786133,55.0429684 106.80957,54.9492193 106.825195,54.8320312 C106.84082,54.7148432 106.848633,54.5976568 106.848633,54.4804688 C106.848633,54.3632807 106.84082,54.2656254 106.825195,54.1875 C106.981446,53.781248 107.110351,53.3632834 107.211914,52.9335938 C107.313477,52.5039041 107.407226,52.0781271 107.493164,51.65625 C107.579102,51.2343729 107.668945,50.8203145 107.762695,50.4140625 C107.856446,50.0078105 107.981445,49.6328142 108.137695,49.2890625 C108.309571,49.2578123 108.500976,49.2773434 108.711914,49.3476562 C108.922853,49.4179691 109.051758,49.507812 109.098633,49.6171875 C109.504885,49.3046859 109.864256,48.9257835 110.176758,48.4804688 C110.489259,48.035154 110.809569,47.6015646 111.137695,47.1796875 C111.465822,46.7578104 111.8291,46.3828141 112.227539,46.0546875 C112.625979,45.7265609 113.12988,45.5312503 113.739258,45.46875 C114.051759,45.7031262 114.399412,45.941405 114.782227,46.1835938 C115.165041,46.4257825 115.481444,46.7421855 115.731445,47.1328125 C115.856446,47.1953128 115.961914,47.2617184 116.047852,47.3320312 C116.13379,47.4023441 116.239257,47.4765621 116.364258,47.5546875 L116.364258,47.8359375 C116.551759,48.0078134 116.704101,48.2070301 116.821289,48.4335938 C116.938477,48.6601574 117.043945,48.9023425 117.137695,49.1601562 C117.231446,49.41797 117.325195,49.67578 117.418945,49.9335938 C117.512696,50.1914075 117.62207,50.4374988 117.74707,50.671875 C117.71582,50.7500004 117.700195,50.816406 117.700195,50.8710938 C117.700195,50.9257815 117.711914,50.9843747 117.735352,51.046875 C117.758789,51.1093753 117.77832,51.1718747 117.793945,51.234375 C117.80957,51.2968753 117.80957,51.382812 117.793945,51.4921875 C117.74707,52.1796909 117.524416,52.7343729 117.125977,53.15625 C116.727537,53.5781271 116.247073,53.9257799 115.68457,54.1992188 C115.122068,54.4726576 114.520511,54.7031241 113.879883,54.890625 C113.239255,55.0781259 112.661135,55.2812489 112.145508,55.5 C112.145508,55.5625003 112.172851,55.59375 112.227539,55.59375 C112.282227,55.59375 112.301758,55.6328121 112.286133,55.7109375 C112.661135,55.9453137 112.958007,56.1328118 113.176758,56.2734375 C113.395509,56.4140632 113.602538,56.5312495 113.797852,56.625 C113.993165,56.7187505 114.2041,56.8007809 114.430664,56.8710938 C114.657228,56.9414066 114.973631,57.023437 115.379883,57.1171875 C115.786135,57.210938 116.102538,57.285156 116.329102,57.3398438 C116.555665,57.3945315 116.762694,57.4414061 116.950195,57.4804688 C117.137696,57.5195314 117.329101,57.5507811 117.524414,57.5742188 C117.719728,57.5976564 117.997069,57.6249998 118.356445,57.65625 C118.497071,57.7968757 118.618164,57.9648428 118.719727,58.1601562 C118.82129,58.3554697 118.887695,58.5507803 118.918945,58.7460938 C118.950196,58.9414072 118.958008,59.1289054 118.942383,59.3085938 C118.926758,59.4882821 118.872071,59.632812 118.77832,59.7421875 C118.793945,59.7890627 118.829101,59.8085938 118.883789,59.8007812 C118.938477,59.7929687 118.99707,59.7968749 119.05957,59.8125 C118.96582,59.8750003 118.887696,59.9531245 118.825195,60.046875 C118.762695,60.1406255 118.700196,60.2343745 118.637695,60.328125 C118.575195,60.4218755 118.504883,60.5039059 118.426758,60.5742188 C118.348632,60.6445316 118.239259,60.6874999 118.098633,60.703125 C117.614255,60.8906259 117.004887,60.9023446 116.270508,60.7382812 C115.536129,60.5742179 114.606451,60.2734397 113.481445,59.8359375 C112.918943,59.6171864 112.461916,59.4257821 112.110352,59.2617188 C111.758787,59.0976554 111.454103,58.9335946 111.196289,58.7695312 C110.938475,58.6054679 110.704103,58.4296884 110.493164,58.2421875 C110.282226,58.0546866 110.028322,57.8281263 109.731445,57.5625 L109.731445,57.5625 Z M113.083008,49.5234375 C112.911132,49.7734387 112.719728,49.999999 112.508789,50.203125 C112.297851,50.406251 112.094728,50.6132802 111.899414,50.8242188 C111.704101,51.0351573 111.528321,51.26953 111.37207,51.5273438 C111.21582,51.7851575 111.106446,52.0859358 111.043945,52.4296875 C111.590823,52.3671872 112.16113,52.214845 112.754883,51.9726562 C113.348636,51.7304675 113.91113,51.5000011 114.442383,51.28125 C114.379883,50.7968726 114.211915,50.4062515 113.938477,50.109375 C113.665038,49.8124985 113.379884,49.617188 113.083008,49.5234375 L113.083008,49.5234375 Z M124.864258,57.2109375 C124.895508,57.3359381 124.918945,57.4531245 124.93457,57.5625 C124.950195,57.6718755 124.973633,57.7890619 125.004883,57.9140625 C124.942383,58.0703133 124.887696,58.2226555 124.84082,58.3710938 C124.793945,58.519532 124.747071,58.6640618 124.700195,58.8046875 C124.65332,58.914063 124.62207,58.9843748 124.606445,59.015625 C124.59082,59.0468752 124.583008,59.0703124 124.583008,59.0859375 C124.583008,59.1015626 124.586914,59.1210936 124.594727,59.1445312 C124.602539,59.1679689 124.606445,59.2343745 124.606445,59.34375 L124.512695,59.625 C124.43457,59.7343755 124.340821,59.8203122 124.231445,59.8828125 C124.12207,59.9453128 124.012696,59.9999998 123.90332,60.046875 C123.87207,60.0781252 123.825196,60.1054686 123.762695,60.1289062 C123.700195,60.1523439 123.653321,60.1796873 123.62207,60.2109375 L123.551758,60.4921875 L123.24707,60.5390625 C122.981444,60.6015628 122.754884,60.6328125 122.567383,60.6328125 L122.286133,60.6328125 C122.098632,60.4609366 121.950196,60.3281255 121.84082,60.234375 C121.731445,60.1406245 121.614258,60.0546879 121.489258,59.9765625 C121.333007,59.7578114 121.24707,59.5976568 121.231445,59.4960938 C121.21582,59.3945307 121.192383,59.2968755 121.161133,59.203125 C121.129883,58.999999 121.090821,58.8671878 121.043945,58.8046875 L120.71582,58.4765625 L120.99707,58.265625 L120.739258,57.8203125 C120.926759,57.6796868 121.067382,57.5781253 121.161133,57.515625 C121.254883,57.4531247 121.333008,57.3867191 121.395508,57.3164062 C121.458008,57.2460934 121.52832,57.1562505 121.606445,57.046875 C121.684571,56.9374995 121.80957,56.7578137 121.981445,56.5078125 L122.192383,56.203125 L122.49707,56.3671875 C122.559571,56.4140627 122.696288,56.4570311 122.907227,56.4960938 C123.118165,56.5351564 123.301757,56.5703123 123.458008,56.6015625 C123.723634,56.6796879 123.973632,56.7382811 124.208008,56.7773438 C124.442384,56.8164064 124.629882,56.8984369 124.770508,57.0234375 L124.864258,57.2109375 Z M144.49707,59.5429688 C144.327799,59.6276046 144.171225,59.7037757 144.027344,59.7714844 C143.883463,59.839193 143.718425,59.8730469 143.532227,59.8730469 C142.872067,59.382159 142.529297,58.5273498 142.503906,57.3085938 C142.478516,56.0898377 142.736651,54.541025 143.27832,52.6621094 C143.362956,52.6113279 143.405273,52.5097664 143.405273,52.3574219 L143.176758,52.1035156 C143.109049,52.1035156 143.045573,52.1119791 142.986328,52.1289062 C142.927083,52.1458334 142.880534,52.2050776 142.84668,52.3066406 C142.406573,52.6282568 141.924156,52.9625634 141.399414,53.3095703 C140.874672,53.6565773 140.328779,53.9781886 139.761719,54.2744141 C139.194659,54.5706395 138.619144,54.811848 138.035156,54.9980469 C137.451169,55.1842457 136.879886,55.2773438 136.321289,55.2773438 C134.899407,55.2773438 133.833011,54.5579499 133.12207,53.1191406 L132.918945,52.7382812 L132.71582,53.0683594 C132.665039,53.136068 132.588868,53.2757151 132.487305,53.4873047 C132.385742,53.6988943 132.28418,53.9401028 132.182617,54.2109375 C132.081054,54.4817722 131.992188,54.7568345 131.916016,55.0361328 C131.839843,55.3154311 131.810221,55.5566396 131.827148,55.7597656 C131.674804,55.9121101 131.513998,56.0898427 131.344727,56.2929688 C131.175455,56.4960948 131.048503,56.7246081 130.963867,56.9785156 C130.930013,57.113933 130.94694,57.2408848 131.014648,57.359375 C130.980794,57.5117195 130.904623,57.6302079 130.786133,57.7148438 C130.718424,57.7994796 130.646485,57.8798824 130.570313,57.9560547 C130.49414,58.0322269 130.430664,58.1126298 130.379883,58.1972656 C130.346029,58.2819015 130.32487,58.366536 130.316406,58.4511719 C130.307943,58.5358077 130.295248,58.6204423 130.27832,58.7050781 C130.27832,58.8235683 130.261393,58.9335932 130.227539,59.0351562 C129.939777,59.6276071 129.711264,60.0126944 129.541992,60.1904297 C129.372721,60.368165 129.144207,60.4570312 128.856445,60.4570312 C128.721028,60.4570312 128.500978,60.4316409 128.196289,60.3808594 C127.976236,60.143879 127.777345,59.8180359 127.599609,59.4033203 C127.421874,58.9886047 127.286459,58.5442732 127.193359,58.0703125 C127.10026,57.5963518 127.057943,57.1181665 127.066406,56.6357422 C127.07487,56.1533179 127.155273,55.7343768 127.307617,55.3789062 C127.307617,55.3619791 127.375325,55.1927099 127.510742,54.8710938 C127.64616,54.5494776 127.81966,54.1347682 128.03125,53.6269531 C128.24284,53.1191381 128.484048,52.5563182 128.754883,51.9384766 C129.025718,51.3206349 129.296548,50.7197295 129.567383,50.1357422 C129.838218,49.5517549 130.096353,49.0143254 130.341797,48.5234375 C130.587241,48.0325496 130.794596,47.6601575 130.963867,47.40625 C131.099285,47.203124 131.222005,47.0126962 131.332031,46.8349609 C131.442058,46.6572257 131.547851,46.4837248 131.649414,46.3144531 C131.954103,45.7897109 132.246092,45.3538429 132.525391,45.0068359 C132.804689,44.659829 133.215167,44.3847666 133.756836,44.1816406 C134.129234,44.3339851 134.400064,44.5117177 134.569336,44.7148438 L134.620117,44.9941406 C134.687826,45.1634123 134.789387,45.2480469 134.924805,45.2480469 C135.111004,45.2988284 135.267578,45.3453774 135.394531,45.3876953 C135.521485,45.4300132 135.661132,45.4680988 135.813477,45.5019531 C135.931967,45.6373705 136.041992,45.7981762 136.143555,45.984375 C136.278972,46.187501 136.410156,46.3863923 136.537109,46.5810547 C136.664063,46.7757171 136.765625,46.9703766 136.841797,47.1650391 C136.917969,47.3597015 136.960286,47.5585927 136.96875,47.7617188 C136.977214,47.9648448 136.939128,48.1764312 136.854492,48.3964844 L136.879883,48.6503906 C136.964519,48.8027351 136.981446,49.0143216 136.930664,49.2851562 C136.913737,49.4036464 136.905273,49.5263666 136.905273,49.6533203 C136.905273,49.7802741 136.9222,49.9199211 136.956055,50.0722656 C137.260744,50.309246 137.531574,50.4277344 137.768555,50.4277344 C138.039389,50.4277344 138.289061,50.3642584 138.517578,50.2373047 C138.746095,50.1103509 138.961913,49.9791673 139.165039,49.84375 C139.300456,49.742187 139.435872,49.6533207 139.571289,49.5771484 C139.706706,49.5009762 139.842122,49.4544272 139.977539,49.4375 C140.282228,49.1497381 140.55729,48.8958344 140.802734,48.6757812 C141.048178,48.4557281 141.306314,48.2356782 141.577148,48.015625 C142.084964,47.609373 142.575844,47.1692732 143.049805,46.6953125 C143.523765,46.2213518 143.904621,45.6289098 144.192383,44.9179688 C144.361655,44.8164057 144.539387,44.765625 144.725586,44.765625 C144.911785,44.765625 145.106444,44.8079423 145.30957,44.8925781 C145.512696,44.977214 145.707356,45.0618485 145.893555,45.1464844 C145.944336,45.1803387 145.990885,45.2057291 146.033203,45.2226562 C146.075521,45.2395834 146.113607,45.2565103 146.147461,45.2734375 C146.147461,45.4427092 146.215169,45.5865879 146.350586,45.7050781 C146.418295,45.7558596 146.460612,45.7897135 146.477539,45.8066406 C146.494466,45.8235678 146.519857,45.8404947 146.553711,45.8574219 C146.807619,45.9928392 146.968424,46.1282545 147.036133,46.2636719 C147.154623,46.6529967 147.366209,46.9492177 147.670898,47.1523438 C147.637044,47.3216154 147.641276,47.4781894 147.683594,47.6220703 C147.725912,47.7659512 147.780924,47.9140617 147.848633,48.0664062 C147.86556,48.1171878 147.882487,48.1679685 147.899414,48.21875 C147.916341,48.2695315 147.941732,48.3287757 147.975586,48.3964844 L147.493164,48.3457031 L147.569336,48.828125 C147.60319,49.0651054 147.582032,49.3274725 147.505859,49.6152344 C147.429687,49.9029962 147.340821,50.1315096 147.239258,50.3007812 C147.256185,50.7408876 147.26888,51.0836576 147.277344,51.3291016 C147.285807,51.5745455 147.273112,51.8030588 147.239258,52.0146484 C147.205404,52.226238 147.158855,52.4251293 147.099609,52.6113281 C147.040364,52.797527 146.959962,53.0006499 146.858398,53.2207031 C146.926107,54.3040419 146.803387,55.2900346 146.490234,56.1787109 C146.177082,57.0673873 145.851239,57.9010378 145.512695,58.6796875 C145.478841,58.7643233 145.440755,58.8489579 145.398438,58.9335938 C145.35612,59.0182296 145.318034,59.1028642 145.28418,59.1875 C145.131835,59.2382815 144.99642,59.293294 144.87793,59.3525391 C144.75944,59.4117842 144.632488,59.4752601 144.49707,59.5429688 L144.49707,59.5429688 Z M156.235352,59.390625 C156.000975,58.6093711 155.661135,57.8593786 155.21582,57.140625 C154.770506,56.4218714 154.344729,55.8046901 153.938477,55.2890625 C153.297848,55.7734399 152.692386,56.3085908 152.12207,56.8945312 C151.551755,57.4804717 151.032229,58.1093716 150.563477,58.78125 C150.532226,59.1093766 150.493164,59.3789052 150.446289,59.5898438 C150.399414,59.8007823 150.317383,59.9765618 150.200195,60.1171875 C150.083007,60.2578132 149.934571,60.3789057 149.754883,60.4804688 C149.575194,60.5820318 149.344728,60.6874995 149.063477,60.796875 C148.547849,60.4218731 148.172853,59.957034 147.938477,59.4023438 C147.7041,58.8476535 147.672851,58.2968777 147.844727,57.75 C147.860352,57.359373 147.958007,56.9765644 148.137695,56.6015625 C148.317384,56.2265606 148.536132,55.8710954 148.793945,55.5351562 C149.051759,55.1992171 149.3291,54.8789078 149.625977,54.5742188 C149.922853,54.2695297 150.2041,53.9843763 150.469727,53.71875 C150.516602,53.5624992 150.606445,53.4257818 150.739258,53.3085938 C150.872071,53.1914057 151.012695,53.0781255 151.161133,52.96875 C151.309571,52.8593745 151.458007,52.7421881 151.606445,52.6171875 C151.754884,52.4921869 151.875976,52.3437509 151.969727,52.171875 C151.860351,51.8124982 151.649416,51.4492206 151.336914,51.0820312 C151.024413,50.7148419 150.735353,50.3359395 150.469727,49.9453125 C150.438476,49.8671871 150.379883,49.8437498 150.293945,49.875 C150.208007,49.9062502 150.149414,49.8984377 150.118164,49.8515625 C150.149414,49.6484365 150.106446,49.4296887 149.989258,49.1953125 C149.87207,48.9609363 149.72754,48.7578134 149.555664,48.5859375 C149.602539,48.4140616 149.657226,48.2070325 149.719727,47.9648438 C149.782227,47.722655 149.766602,47.4531265 149.672852,47.15625 C149.672852,47.0312494 149.696289,46.9101568 149.743164,46.7929688 C149.790039,46.6757807 149.836914,46.5664068 149.883789,46.4648438 C149.930664,46.3632807 149.969726,46.2617193 150.000977,46.1601562 C150.032227,46.0585932 150.024414,45.960938 149.977539,45.8671875 C150.180665,45.8359373 150.360351,45.8437498 150.516602,45.890625 C150.672852,45.9375002 150.821288,45.9921872 150.961914,46.0546875 C151.10254,46.1171878 151.231445,46.1640623 151.348633,46.1953125 C151.465821,46.2265627 151.586913,46.2187502 151.711914,46.171875 C151.696289,46.2500004 151.696289,46.3046873 151.711914,46.3359375 C151.727539,46.3671877 151.750976,46.3906249 151.782227,46.40625 C151.813477,46.4218751 151.844726,46.4414061 151.875977,46.4648438 C151.907227,46.4882814 151.922852,46.5234373 151.922852,46.5703125 C152.172853,46.6484379 152.446288,46.816405 152.743164,47.0742188 C153.040041,47.3320325 153.325194,47.6171859 153.598633,47.9296875 C153.872072,48.2421891 154.118163,48.5546859 154.336914,48.8671875 C154.555665,49.1796891 154.719726,49.4140617 154.829102,49.5703125 C155.204103,49.3359363 155.610349,49.0585954 156.047852,48.7382812 C156.485354,48.4179671 156.938474,48.0859392 157.407227,47.7421875 C157.875979,47.3984358 158.34863,47.0742203 158.825195,46.7695312 C159.30176,46.4648422 159.766599,46.2187509 160.219727,46.03125 C160.485353,46.1562506 160.692382,46.3085929 160.84082,46.4882812 C160.989259,46.6679696 161.114257,46.8554678 161.21582,47.0507812 C161.317383,47.2460947 161.407226,47.4492177 161.485352,47.6601562 C161.563477,47.8710948 161.672851,48.0546867 161.813477,48.2109375 C161.688476,48.4765638 161.551759,48.6992179 161.40332,48.8789062 C161.254882,49.0585946 161.149414,49.2656238 161.086914,49.5 C160.758787,49.6406257 160.368166,49.8515611 159.915039,50.1328125 C159.508787,50.3828137 159.012698,50.7187479 158.426758,51.140625 C157.840817,51.5625021 157.133793,52.1249965 156.305664,52.828125 C156.493165,53.0468761 156.649413,53.2578115 156.774414,53.4609375 C156.899415,53.6640635 157.000976,53.8359368 157.079102,53.9765625 C157.157227,54.1484384 157.227539,54.3046868 157.290039,54.4453125 C157.430665,54.554688 157.547851,54.6796868 157.641602,54.8203125 C157.735352,54.9609382 157.825195,55.105468 157.911133,55.2539062 C157.997071,55.4023445 158.094726,55.5429681 158.204102,55.6757812 C158.313477,55.8085944 158.454101,55.9140621 158.625977,55.9921875 C158.719727,56.4609398 158.852538,56.8789044 159.024414,57.2460938 C159.19629,57.6132831 159.274414,57.9921855 159.258789,58.3828125 C159.149414,58.7421893 158.989259,59.0390613 158.77832,59.2734375 C158.567382,59.5078137 158.41504,59.7499988 158.321289,60 C158.180663,60.0468752 158.04004,60.0937498 157.899414,60.140625 C157.758788,60.1875002 157.649415,60.257812 157.571289,60.3515625 L156.235352,59.390625 Z" id="wintr.mx" fill="#474B66" transform="translate(106.170410, 52.265918) rotate(-20.000000) translate(-106.170410, -52.265918) "></path>
                        <path d="M75.8045334,146.947703 C75.3553124,146.693145 75.0109148,146.333773 74.7713302,145.869578 C74.5317457,145.405383 74.3969814,144.963656 74.3670334,144.544383 C74.4119555,144.185006 74.5055418,143.904247 74.6477951,143.702098 C74.7900484,143.499948 74.9585037,143.335236 75.1531662,143.207957 C75.3478286,143.080678 75.549975,142.983348 75.7596115,142.915965 C75.969248,142.848582 76.1713944,142.79243 76.3660568,142.747508 L76.7029709,142.859812 C76.777841,142.934683 76.8564535,143.002065 76.9388107,143.061961 C77.0211679,143.121857 77.0997804,143.181752 77.1746506,143.241648 C77.3243909,143.181752 77.4179772,143.091909 77.4554123,142.972117 C77.4928474,142.852325 77.5340253,142.732534 77.5789474,142.612742 C77.6238695,142.448028 77.6762779,142.283316 77.736174,142.118602 C77.7960701,141.953887 77.8709392,141.789175 77.9607834,141.624461 C77.9458093,141.489695 77.9532962,141.369904 77.9832443,141.265086 C78.0131924,141.160268 78.04314,141.070425 78.0730881,140.995555 C77.9832439,140.920685 77.9196052,140.879507 77.8821701,140.87202 C77.844735,140.864533 77.7810963,140.845815 77.6912521,140.815867 C77.64633,140.815867 77.6014086,140.812124 77.5564865,140.804637 C77.5115644,140.79715 77.4591561,140.785919 77.3992599,140.770945 C77.1746494,140.606231 77.0286548,140.467723 76.9612716,140.355418 C76.8938885,140.243113 76.8227629,140.127066 76.7478927,140.007273 C76.6730226,139.887481 76.6056404,139.782665 76.5457443,139.69282 C76.4858482,139.602976 76.418466,139.52062 76.3435959,139.44575 L76.0740646,139.266062 L76.2088302,138.996531 C76.2387783,138.966583 76.2537521,138.925405 76.2537521,138.872996 C76.2537521,138.820587 76.2238045,138.741974 76.1639084,138.637156 C76.1189863,138.442494 76.1114994,138.300243 76.1414474,138.210398 L76.1863693,137.940867 C76.3361096,137.746205 76.4184656,137.633901 76.4334396,137.603953 L76.658049,137.379344 C77.0024518,137.2895 77.3543363,137.188426 77.7137131,137.076121 C78.0730898,136.963816 78.4249744,136.847769 78.7693771,136.727977 C79.1137799,136.608184 79.4656644,136.488394 79.8250412,136.368602 C80.184418,136.248809 80.5437894,136.143993 80.9031662,136.054148 C81.0229584,135.94933 81.1539793,135.885692 81.2962326,135.86323 C81.4384859,135.840769 81.5695067,135.822052 81.689299,135.807078 C81.7941172,135.807078 81.891447,135.799591 81.9812912,135.784617 C82.0711354,135.769643 82.1385175,135.732209 82.1834396,135.672312 C82.4379982,135.582468 82.685066,135.507599 82.9246506,135.447703 C83.3738715,135.327911 83.965337,135.18566 84.6990646,135.020945 C85.4327922,134.856231 86.2563517,134.73644 87.1697677,134.66157 L87.6414474,134.639109 C87.7312916,134.654083 87.8211345,134.657827 87.9109787,134.65034 C88.0008229,134.642853 88.0906657,134.639109 88.1805099,134.639109 C88.9591597,134.639109 89.4757561,134.87869 89.7303146,135.357859 C89.8800549,135.43273 90.0148192,135.526316 90.1346115,135.638621 C90.2544038,135.750926 90.3667073,135.859486 90.4715256,135.964305 C90.5463957,136.039175 90.6137779,136.102814 90.673674,136.155223 C90.7335701,136.207632 90.7859785,136.24881 90.8309006,136.278758 L91.0105881,136.458445 C91.1753024,136.817822 91.20525,137.169707 91.1004318,137.514109 C91.0105876,137.693798 90.9132578,137.798614 90.8084396,137.828562 C90.7036214,137.858511 90.5988047,137.888458 90.4939865,137.918406 L90.2019943,138.075633 C90.0073319,138.060659 89.8613372,138.053172 89.764006,138.053172 L89.4383224,138.053172 C88.9891014,138.053172 88.4687616,138.079376 87.8772873,138.131785 C87.285813,138.184194 86.6831172,138.259063 86.0691818,138.356395 C85.4552464,138.453726 84.8562941,138.573516 84.2723068,138.71577 C83.6883195,138.858023 83.17921,139.011504 82.7449631,139.176219 C82.6251708,139.266063 82.4679458,139.348419 82.2732834,139.423289 C82.2283613,139.438263 82.1609791,139.475698 82.0711349,139.535594 C82.086109,139.655386 82.086109,139.771433 82.0711349,139.883738 C82.0561609,139.996044 82.0337002,140.104604 82.0037521,140.209422 C81.9887781,140.284292 81.9775477,140.362905 81.9700607,140.445262 C81.9625737,140.527619 81.9513433,140.613718 81.9363693,140.703562 C81.6219146,141.077913 81.4721765,141.519641 81.4871506,142.028758 L81.3748459,142.253367 C81.3149497,142.313263 81.2662849,142.399363 81.2288498,142.511668 C81.1914147,142.623973 81.1876712,142.74002 81.2176193,142.859812 L81.3074631,143.129344 C81.6069437,143.099396 81.9026764,143.065705 82.1946701,143.02827 C82.4866637,142.990834 82.7973703,142.949656 83.126799,142.904734 C83.5460719,142.829864 83.969082,142.766226 84.395842,142.713816 C84.8226019,142.661407 85.2680727,142.635203 85.7322677,142.635203 L86.6082443,142.635203 L86.4060959,142.837352 L86.6531662,142.859812 L86.5184006,143.219187 C86.6232188,143.26411 86.7018313,143.297801 86.7542404,143.320262 C86.8066495,143.342723 86.8553144,143.368927 86.9002365,143.398875 L87.0574631,143.623484 C87.1323332,143.668406 87.1997154,143.739532 87.2596115,143.836863 C87.3195076,143.934194 87.3569421,144.065215 87.3719162,144.22993 L87.3045334,144.454539 L86.2488693,145.802195 L86.1141037,145.981883 L85.8894943,145.9145 C85.6049877,145.899526 85.3354591,145.929474 85.0809006,146.004344 C84.9611083,146.034292 84.8338309,146.067983 84.6990646,146.105418 C84.5642983,146.142853 84.429534,146.16157 84.2947677,146.16157 C83.9353909,146.221466 83.6359148,146.270131 83.3963302,146.307566 C83.1567457,146.345001 82.9171648,146.378693 82.6775802,146.408641 C82.3481515,146.468537 82.0299581,146.524689 81.7229904,146.577098 C81.4160227,146.629507 81.1277769,146.708119 80.8582443,146.812937 C80.6935299,146.827912 80.5962002,146.831655 80.5662521,146.824168 C80.536304,146.816681 80.5063564,146.812937 80.4764084,146.812937 C80.326668,146.812937 80.1769299,146.835398 80.0271896,146.88032 C79.8774493,146.925242 79.7351981,146.970164 79.6004318,147.015086 C79.5105876,147.089956 79.4506924,147.168569 79.4207443,147.250926 C79.3907962,147.333283 79.3608486,147.419382 79.3309006,147.509227 C79.3009525,147.614045 79.2597745,147.715118 79.2073654,147.812449 C79.1549563,147.90978 79.0913176,148.010854 79.0164474,148.115672 L79.0389084,148.519969 C78.9041421,148.549917 78.8367599,148.568634 78.8367599,148.576121 C78.8367599,148.583608 78.829273,148.587352 78.814299,148.587352 C78.814299,148.707144 78.7955817,148.819447 78.7581466,148.924266 C78.7207116,149.029084 78.6870205,149.126414 78.6570724,149.216258 C78.6271244,149.276154 78.6046636,149.328562 78.5896896,149.373484 C78.5747156,149.418406 78.5672287,149.463328 78.5672287,149.50825 C78.716969,149.777783 78.7544035,150.084746 78.6795334,150.429148 C78.6196372,150.713655 78.5073337,150.964466 78.3426193,151.18159 C78.1779049,151.398713 77.9832454,151.567169 77.7586349,151.686961 C77.5190504,151.716909 77.3431081,151.709422 77.2308029,151.6645 C77.1184976,151.619578 77.0024506,151.574656 76.8826584,151.529734 C76.8077882,151.499786 76.7329192,151.473582 76.658049,151.451121 C76.5831788,151.42866 76.5083098,151.409943 76.4334396,151.394969 L76.1639084,151.170359 C76.1189863,151.080515 76.0665779,150.994416 76.0066818,150.912059 C75.9467857,150.829701 75.8868904,150.743602 75.8269943,150.653758 C75.7521241,150.54894 75.6772551,150.444123 75.6023849,150.339305 C75.5275148,150.234486 75.4601326,150.114696 75.4002365,149.97993 C75.2954183,149.455839 75.276701,149.017855 75.3440841,148.665965 C75.4114673,148.314075 75.5050536,147.965934 75.6248459,147.621531 C75.6547939,147.501739 75.6847415,147.389435 75.7146896,147.284617 C75.7446377,147.179799 75.7745853,147.067495 75.8045334,146.947703 L75.8045334,146.947703 Z M91.6619552,149.171336 C91.4972409,149.770297 91.3512462,150.223255 91.223967,150.530223 C91.0966877,150.83719 90.9057716,151.155384 90.6512131,151.484812 C90.4565506,151.454864 90.3217863,151.477325 90.2469162,151.552195 C90.172046,151.627065 90.0896901,151.694448 89.9998459,151.754344 C89.8650796,151.784292 89.7677498,151.784292 89.7078537,151.754344 C89.6479575,151.724396 89.5955492,151.690705 89.5506271,151.65327 C89.505705,151.615834 89.4495532,151.5784 89.3821701,151.540965 C89.3147869,151.50353 89.2137137,151.484812 89.0789474,151.484812 C89.0489994,151.36502 89.0153083,151.252717 88.9778732,151.147898 C88.9404381,151.04308 88.8393649,151.005646 88.6746506,151.035594 C88.7045986,150.915801 88.7120855,150.814728 88.6971115,150.732371 C88.6821375,150.650014 88.6634202,150.575145 88.6409591,150.507762 C88.6184981,150.440379 88.5997808,150.372996 88.5848068,150.305613 C88.5698328,150.23823 88.5773197,150.152131 88.6072677,150.047312 C88.5323976,150.047312 88.4725023,149.994904 88.4275802,149.890086 C88.3826581,149.785268 88.3302498,149.680451 88.2703537,149.575633 C88.3152758,149.3061 88.3601972,149.051545 88.4051193,148.811961 C88.4500414,148.572376 88.5061932,148.347769 88.5735763,148.138133 C88.6409595,147.928496 88.6971113,147.718863 88.7420334,147.509227 C88.7869555,147.29959 88.7644948,147.08247 88.6746506,146.857859 C88.7345467,146.902781 88.7794681,146.891551 88.8094162,146.824168 C88.8393642,146.756785 88.861825,146.666942 88.876799,146.554637 C88.891773,146.442331 88.8992599,146.330028 88.8992599,146.217723 C88.8992599,146.105417 88.891773,146.011831 88.876799,145.936961 C89.0265393,145.547636 89.1500732,145.147087 89.2474045,144.735301 C89.3447357,144.323515 89.4345785,143.915479 89.5169357,143.51118 C89.5992929,143.106881 89.6853923,142.710075 89.7752365,142.32075 C89.8650807,141.931425 89.9848712,141.572054 90.1346115,141.242625 C90.2993259,141.212677 90.482755,141.231394 90.6849045,141.298777 C90.8870539,141.36616 91.0105878,141.45226 91.0555099,141.557078 C91.4448348,141.257597 91.7892324,140.894483 92.0887131,140.467723 C92.3881937,140.040963 92.6951568,139.62544 93.0096115,139.221141 C93.3240662,138.816842 93.6722072,138.45747 94.0540451,138.143016 C94.4358829,137.828561 94.9187883,137.641388 95.5027756,137.581492 C95.8022562,137.806103 96.1354235,138.034453 96.5022873,138.266551 C96.8691511,138.498648 97.1723707,138.801868 97.4119552,139.176219 C97.5317475,139.236115 97.6328207,139.299754 97.7151779,139.367137 C97.7975351,139.43452 97.8986083,139.505645 98.0184006,139.580516 L98.0184006,139.850047 C98.198089,140.014761 98.3440836,140.205677 98.4563888,140.422801 C98.5686941,140.639924 98.6697673,140.872018 98.7596115,141.11909 C98.8494557,141.366161 98.9392985,141.613229 99.0291427,141.860301 C99.1189869,142.107372 99.2238036,142.34321 99.3435959,142.56782 C99.3136478,142.64269 99.298674,142.706329 99.298674,142.758738 C99.298674,142.811147 99.3099043,142.867299 99.3323654,142.927195 C99.3548264,142.987091 99.3735437,143.046987 99.3885177,143.106883 C99.4034918,143.166779 99.4034918,143.249135 99.3885177,143.353953 C99.3435956,144.012811 99.1302189,144.544381 98.748381,144.94868 C98.3665432,145.352979 97.9060986,145.686146 97.3670334,145.948191 C96.8279682,146.210237 96.2514765,146.431101 95.6375412,146.610789 C95.0236058,146.790477 94.4695749,146.985137 93.9754318,147.194773 C93.9754318,147.25467 94.001636,147.284617 94.0540451,147.284617 C94.1064542,147.284617 94.1251715,147.322052 94.1101974,147.396922 C94.4695742,147.621532 94.7540766,147.801218 94.9637131,147.935984 C95.1733495,148.070751 95.3717525,148.183054 95.5589279,148.272898 C95.7461033,148.362743 95.9482497,148.441355 96.1653732,148.508738 C96.3824967,148.576121 96.6857163,148.654734 97.0750412,148.744578 C97.464366,148.834422 97.7675857,148.905548 97.9847091,148.957957 C98.2018326,149.010366 98.4002356,149.055288 98.579924,149.092723 C98.7596124,149.130158 98.9430415,149.160105 99.130217,149.182566 C99.3173924,149.205027 99.5831775,149.231232 99.9275802,149.26118 C100.062347,149.395946 100.178394,149.556914 100.275725,149.74409 C100.373056,149.931265 100.436695,150.118438 100.466643,150.305613 C100.496591,150.492789 100.504078,150.672474 100.489104,150.844676 C100.47413,151.016877 100.421721,151.155385 100.331877,151.260203 C100.346851,151.305125 100.380542,151.323842 100.432951,151.316355 C100.48536,151.308868 100.541512,151.312612 100.601408,151.327586 C100.511564,151.387482 100.436695,151.462351 100.376799,151.552195 C100.316903,151.64204 100.257008,151.731882 100.197111,151.821727 C100.137215,151.911571 100.069833,151.990183 99.9949631,152.057566 C99.9200929,152.12495 99.8152762,152.166128 99.6805099,152.181102 C99.2163149,152.36079 98.6323364,152.37202 97.9285568,152.214793 C97.2247772,152.057566 96.3338356,151.76932 95.2557052,151.350047 C94.71664,151.14041 94.2786561,150.956981 93.9417404,150.799754 C93.6048246,150.642527 93.3128354,150.485302 93.0657638,150.328074 C92.8186923,150.170847 92.5940852,150.002392 92.3919357,149.822703 C92.1897863,149.643015 91.9464619,149.425894 91.6619552,149.171336 L91.6619552,149.171336 Z M94.8738693,141.467234 C94.7091549,141.706819 94.5257258,141.923939 94.3235763,142.118602 C94.1214269,142.313264 93.9267674,142.511667 93.739592,142.713816 C93.5524165,142.915966 93.3839612,143.140573 93.2342209,143.387645 C93.0844805,143.634716 92.9796639,143.922962 92.9197677,144.252391 C93.4438589,144.192494 93.9904029,144.0465 94.5594162,143.814402 C95.1284294,143.582305 95.6674865,143.361441 96.1766037,143.151805 C96.1167075,142.68761 95.9557391,142.313264 95.6936935,142.028758 C95.4316479,141.744251 95.1583759,141.557079 94.8738693,141.467234 L94.8738693,141.467234 Z M113.58383,144.768992 C113.568856,144.948681 113.58383,145.120879 113.628752,145.285594 C113.673674,145.450308 113.729826,145.611277 113.797209,145.768504 C113.864592,145.925731 113.928231,146.0867 113.988127,146.251414 C114.048023,146.416128 114.092945,146.58084 114.122893,146.745555 C114.152841,146.955191 114.152841,147.183542 114.122893,147.430613 C114.092945,147.677685 114.040536,147.917266 113.965666,148.149363 C113.890796,148.381461 113.793466,148.591094 113.673674,148.77827 C113.553882,148.965445 113.411631,149.103953 113.246916,149.193797 C113.03728,149.463329 112.782725,149.672963 112.483244,149.822703 C112.183764,149.972443 111.906748,150.152129 111.65219,150.361766 C111.487475,150.466584 111.304046,150.541453 111.101897,150.586375 C110.899747,150.631297 110.693857,150.676219 110.484221,150.721141 C110.319507,150.810985 110.124847,150.904571 109.900236,151.001902 C109.675626,151.099234 109.443532,151.189076 109.203947,151.271434 C108.964363,151.353791 108.724782,151.413686 108.485197,151.451121 C108.245613,151.488556 108.03598,151.499787 107.856291,151.484812 C107.40707,151.649527 106.969086,151.758087 106.542326,151.810496 C106.115566,151.862905 105.617687,151.829214 105.048674,151.709422 C104.509609,151.784292 104.01173,151.761831 103.555022,151.642039 C103.098314,151.522247 102.694021,151.331331 102.342131,151.069285 C101.990241,150.80724 101.683278,150.49279 101.421233,150.125926 C101.159187,149.759062 100.94581,149.373486 100.781096,148.969187 C100.661304,148.115668 100.691251,147.340773 100.87094,146.64448 C101.050628,145.948188 101.308926,145.304314 101.645842,144.71284 C101.982758,144.121366 102.368333,143.574822 102.80258,143.073191 C103.236827,142.571561 103.656094,142.081169 104.060393,141.602 C104.150237,141.631948 104.221363,141.628205 104.273772,141.59077 C104.326181,141.553334 104.374846,141.500926 104.419768,141.433543 C104.46469,141.36616 104.513355,141.302521 104.565764,141.242625 C104.618173,141.182729 104.681812,141.145294 104.756682,141.13032 C104.8615,140.90571 105.014982,140.737254 105.217131,140.624949 C105.41928,140.512644 105.580249,140.351676 105.700041,140.142039 C105.834807,140.112091 105.947111,140.06717 106.036955,140.007273 C106.126799,139.947377 106.212899,139.879995 106.295256,139.805125 C106.377613,139.730255 106.463713,139.659129 106.553557,139.591746 C106.643401,139.524363 106.748218,139.475698 106.86801,139.44575 L106.86801,139.19868 C107.137543,139.078887 107.335945,138.94038 107.463225,138.783152 C107.590504,138.625925 107.743986,138.435009 107.923674,138.210398 C108.05844,138.195424 108.167,138.187937 108.249358,138.187937 C108.331715,138.187937 108.455249,138.172964 108.619963,138.143016 C108.739755,137.933379 108.848315,137.776154 108.945647,137.671336 C109.042978,137.566518 109.188972,137.454214 109.383635,137.334422 C109.563323,137.424266 109.761726,137.484161 109.97885,137.514109 C110.195973,137.544057 110.386889,137.641387 110.551604,137.806102 C110.566578,137.955842 110.611499,138.071889 110.686369,138.154246 C110.761239,138.236603 110.843595,138.311472 110.93344,138.378855 C111.023284,138.446239 111.109383,138.517364 111.19174,138.592234 C111.274098,138.667105 111.330249,138.771921 111.360197,138.906687 C111.420094,138.921662 111.461272,138.914175 111.483733,138.884227 C111.506194,138.854278 111.547372,138.846792 111.607268,138.861766 C111.65219,139.071402 111.704598,139.20991 111.764494,139.277293 C111.82439,139.344676 111.884286,139.475697 111.944182,139.670359 C111.869312,139.8201 111.81316,139.973581 111.775725,140.130809 C111.73829,140.288036 111.644703,140.404083 111.494963,140.478953 C111.479989,140.583771 111.509937,140.639923 111.584807,140.64741 C111.659677,140.654897 111.704598,140.696075 111.719572,140.770945 C111.734546,140.905712 111.712086,141.003041 111.65219,141.062937 C112.011566,141.646925 112.333503,142.264594 112.61801,142.915965 C112.902517,143.567335 113.224453,144.185005 113.58383,144.768992 L113.58383,144.768992 Z M110.776213,146.902781 C110.836109,146.738067 110.914722,146.603303 111.012053,146.498484 C111.109384,146.393666 111.165536,146.236441 111.18051,146.026805 C111.10564,145.907012 111.060718,145.813426 111.045744,145.746043 C111.03077,145.67866 111.023283,145.5701 111.023283,145.420359 C110.693855,144.956164 110.409352,144.458285 110.169768,143.926707 C109.930183,143.395129 109.660655,142.89725 109.361174,142.433055 C109.331226,142.492951 109.278818,142.552846 109.203947,142.612742 C109.129077,142.672638 109.046721,142.657665 108.956877,142.56782 C108.926929,142.687613 108.874521,142.773712 108.799651,142.826121 C108.72478,142.87853 108.642424,142.900991 108.55258,142.893504 C108.462736,142.886017 108.36915,142.863556 108.271819,142.826121 C108.174487,142.788686 108.088388,142.740021 108.013518,142.680125 C107.579271,143.024528 107.14503,143.361438 106.710783,143.690867 C106.276536,144.020296 105.887217,144.402128 105.542815,144.836375 C105.482918,144.866323 105.445484,144.877553 105.43051,144.870066 C105.415536,144.862579 105.370614,144.87381 105.295744,144.903758 C105.175952,145.188264 105.029957,145.446563 104.857756,145.67866 C104.685555,145.910758 104.517099,146.146595 104.352385,146.38618 C104.187671,146.625764 104.045419,146.880319 103.925627,147.149852 C103.805835,147.419384 103.738453,147.733834 103.723479,148.093211 C103.978037,148.302847 104.277513,148.430125 104.621916,148.475047 C104.966319,148.519969 105.321947,148.527456 105.688811,148.497508 C106.055675,148.46756 106.415046,148.418895 106.766936,148.351512 C107.118825,148.284129 107.444506,148.250437 107.743986,148.250437 C108.372896,148.100697 108.911953,147.902294 109.361174,147.655223 C109.810395,147.408151 110.28207,147.15734 110.776213,146.902781 L110.776213,146.902781 Z M130.496916,151.102977 C130.347176,151.177847 130.208668,151.245229 130.081389,151.305125 C129.95411,151.365021 129.808115,151.394969 129.643401,151.394969 C129.059413,150.960722 128.756194,150.204544 128.733733,149.126414 C128.711272,148.048284 128.939622,146.67818 129.418791,145.016062 C129.493661,144.97114 129.531096,144.881298 129.531096,144.746531 L129.328947,144.521922 C129.269051,144.521922 129.2129,144.529409 129.16049,144.544383 C129.108081,144.559357 129.066903,144.611765 129.036955,144.701609 C128.64763,144.986116 128.220877,145.281849 127.756682,145.588816 C127.292487,145.895784 126.809581,146.180286 126.307951,146.442332 C125.806321,146.704378 125.297212,146.917754 124.780608,147.082469 C124.264003,147.247183 123.758637,147.329539 123.264494,147.329539 C122.006676,147.329539 121.063326,146.693152 120.434416,145.420359 L120.254729,145.083445 L120.075041,145.375437 C120.030119,145.435334 119.962737,145.558868 119.872893,145.746043 C119.783049,145.933218 119.693206,146.146595 119.603361,146.38618 C119.513517,146.625764 119.434905,146.869089 119.367522,147.11616 C119.300138,147.363232 119.273934,147.576608 119.288908,147.756297 C119.154142,147.891063 119.011891,148.048288 118.862151,148.227977 C118.71241,148.407665 118.600107,148.609811 118.525236,148.834422 C118.495288,148.954214 118.510262,149.066518 118.570158,149.171336 C118.54021,149.306102 118.472828,149.410919 118.36801,149.485789 C118.308114,149.560659 118.244475,149.631785 118.177092,149.699168 C118.109709,149.766551 118.053557,149.837677 118.008635,149.912547 C117.978687,149.987417 117.95997,150.062286 117.952483,150.137156 C117.944996,150.212026 117.933765,150.286895 117.918791,150.361766 C117.918791,150.466584 117.903817,150.563914 117.873869,150.653758 C117.619311,151.177849 117.417164,151.518503 117.267424,151.67573 C117.117684,151.832958 116.915537,151.91157 116.660979,151.91157 C116.541186,151.91157 116.346527,151.88911 116.076994,151.844187 C115.882332,151.634551 115.70639,151.346305 115.549162,150.979441 C115.391935,150.612578 115.272144,150.219515 115.189787,149.800242 C115.10743,149.380969 115.069996,148.957959 115.077483,148.531199 C115.08497,148.104439 115.156095,147.733838 115.290861,147.419383 C115.290861,147.404409 115.350757,147.254671 115.470549,146.970164 C115.590341,146.685657 115.743823,146.318799 115.930998,145.869578 C116.118174,145.420357 116.33155,144.922478 116.571135,144.375926 C116.810719,143.829374 117.0503,143.297803 117.289885,142.781199 C117.529469,142.264595 117.75782,141.789177 117.974944,141.35493 C118.192067,140.920683 118.375496,140.591259 118.525236,140.366648 C118.645029,140.18696 118.753589,140.018505 118.85092,139.861277 C118.948251,139.70405 119.041838,139.550568 119.131682,139.400828 C119.401214,138.936633 119.659513,138.551058 119.906584,138.24409 C120.153656,137.937122 120.516771,137.693798 120.99594,137.514109 C121.325368,137.648876 121.564949,137.806101 121.71469,137.985789 L121.759611,138.232859 C121.819508,138.3826 121.90935,138.457469 122.029143,138.457469 C122.193857,138.502391 122.332365,138.543569 122.44467,138.581004 C122.556975,138.618439 122.680509,138.65213 122.815276,138.682078 C122.920094,138.80187 123.017424,138.944122 123.107268,139.108836 C123.22706,139.288524 123.343107,139.464467 123.455412,139.636668 C123.567718,139.808869 123.65756,139.981068 123.724944,140.15327 C123.792327,140.325471 123.829761,140.501413 123.837248,140.681102 C123.844735,140.86079 123.811044,141.047963 123.736174,141.242625 L123.758635,141.467234 C123.833505,141.602001 123.848479,141.789173 123.803557,142.028758 C123.788583,142.133576 123.781096,142.242136 123.781096,142.354441 C123.781096,142.466747 123.79607,142.590281 123.826018,142.725047 C124.09555,142.934683 124.335131,143.0395 124.544768,143.0395 C124.784352,143.0395 125.005216,142.983348 125.207365,142.871043 C125.409515,142.758738 125.600431,142.642691 125.780119,142.522898 C125.899912,142.433054 126.019702,142.354442 126.139494,142.287059 C126.259287,142.219675 126.379077,142.178497 126.498869,142.163523 C126.768402,141.908965 127.011726,141.684358 127.22885,141.489695 C127.445973,141.295033 127.674324,141.100373 127.913908,140.905711 C128.363129,140.546334 128.79737,140.157015 129.216643,139.737742 C129.635916,139.318469 129.972826,138.794386 130.227385,138.165477 C130.377125,138.075632 130.53435,138.030711 130.699065,138.030711 C130.863779,138.030711 131.035978,138.068145 131.215666,138.143016 C131.395355,138.217886 131.567553,138.292755 131.732268,138.367625 C131.77719,138.397573 131.818368,138.420034 131.855803,138.435008 C131.893238,138.449982 131.926929,138.464956 131.956877,138.47993 C131.956877,138.62967 132.016772,138.756947 132.136565,138.861766 C132.196461,138.906688 132.233895,138.936635 132.248869,138.951609 C132.263843,138.966583 132.286304,138.981557 132.316252,138.996531 C132.540863,139.116324 132.683114,139.236114 132.74301,139.355906 C132.847828,139.700309 133.035001,139.962351 133.304533,140.142039 C133.274585,140.291779 133.278329,140.430287 133.315764,140.557566 C133.353199,140.684846 133.401864,140.815867 133.46176,140.950633 C133.476734,140.995555 133.491708,141.040476 133.506682,141.085398 C133.521656,141.130321 133.544117,141.182729 133.574065,141.242625 L133.147307,141.197703 L133.21469,141.624461 C133.244638,141.834097 133.22592,142.066191 133.158537,142.32075 C133.091154,142.575309 133.012542,142.777455 132.922697,142.927195 C132.937671,143.31652 132.948902,143.61974 132.956389,143.836863 C132.963876,144.053987 132.952645,144.256133 132.922697,144.443309 C132.892749,144.630484 132.851571,144.806426 132.799162,144.971141 C132.746753,145.135855 132.675628,145.315541 132.585783,145.510203 C132.645679,146.468541 132.537119,147.340766 132.2601,148.126902 C131.98308,148.913039 131.694834,149.650499 131.395354,150.339305 C131.365406,150.414175 131.331715,150.489044 131.294279,150.563914 C131.256844,150.638784 131.223153,150.713653 131.193205,150.788523 C131.058439,150.833446 130.938648,150.88211 130.83383,150.93452 C130.729012,150.986929 130.616708,151.04308 130.496916,151.102977 L130.496916,151.102977 Z" id="From" fill="#474B66" transform="translate(104.026701, 143.481981) rotate(-10.000000) translate(-104.026701, -143.481981) "></path>
                        <path d="M116.507812,163.353516 C116.52474,163.285807 116.537435,163.235026 116.545898,163.201172 C116.554362,163.167318 116.52474,163.125 116.457031,163.074219 C116.423177,162.955729 116.448567,162.879557 116.533203,162.845703 C116.617839,162.811849 116.702474,162.777995 116.787109,162.744141 C116.871745,161.728511 117.045246,160.801762 117.307617,159.963867 C117.569988,159.125972 117.857746,158.309249 118.170898,157.513672 C118.484051,156.718095 118.797199,155.918298 119.110352,155.114258 C119.423504,154.310217 119.68164,153.43425 119.884766,152.486328 C120.104819,152.266275 120.286783,152.003908 120.430664,151.699219 C120.574545,151.39453 120.718424,151.085614 120.862305,150.772461 C121.006186,150.459308 121.175455,150.158856 121.370117,149.871094 C121.56478,149.583332 121.831379,149.346355 122.169922,149.160156 C122.322266,149.177083 122.461913,149.206706 122.588867,149.249023 C122.715821,149.291341 122.838541,149.33789 122.957031,149.388672 C123.075521,149.439453 123.202473,149.481771 123.337891,149.515625 C123.473308,149.549479 123.617187,149.566406 123.769531,149.566406 C123.83724,149.651042 123.896484,149.748372 123.947266,149.858398 C123.998047,149.968425 124.065755,150.065755 124.150391,150.150391 L124.607422,150.074219 C124.827475,150.260418 125.022135,150.493163 125.191406,150.772461 C125.360678,151.051759 125.479166,151.339517 125.546875,151.635742 C125.614584,151.931968 125.60612,152.219725 125.521484,152.499023 C125.436849,152.778322 125.242189,152.99414 124.9375,153.146484 C124.954427,153.248047 124.954427,153.324218 124.9375,153.375 C124.920573,153.425782 124.899414,153.472331 124.874023,153.514648 C124.848633,153.556966 124.835937,153.599284 124.835937,153.641602 C124.835937,153.683919 124.869791,153.738932 124.9375,153.806641 C124.751301,153.958985 124.582032,154.149413 124.429687,154.37793 C124.277343,154.606446 124.150391,154.847655 124.048828,155.101562 C123.947265,155.35547 123.866862,155.609374 123.807617,155.863281 C123.748372,156.117189 123.710287,156.354166 123.693359,156.574219 C124.184247,156.066404 124.759762,155.59245 125.419922,155.152344 C126.080081,154.712237 126.655597,154.297528 127.146484,153.908203 C127.535809,153.637368 127.878579,153.379233 128.174805,153.133789 C128.47103,152.888345 128.771483,152.659832 129.076172,152.448242 C129.380861,152.236653 129.698241,152.03353 130.02832,151.838867 C130.3584,151.644205 130.692707,151.428387 131.03125,151.191406 C131.200522,151.123698 131.331705,151.106771 131.424805,151.140625 C131.517904,151.174479 131.60677,151.216797 131.691406,151.267578 C131.708333,151.149088 131.682943,151.077149 131.615234,151.051758 C131.547526,151.026367 131.522135,150.945964 131.539062,150.810547 C131.826824,150.725911 132.08496,150.62435 132.313477,150.505859 C132.541993,150.387369 132.783202,150.277344 133.037109,150.175781 C133.206381,150.36198 133.37565,150.560871 133.544922,150.772461 C133.714194,150.984051 133.942707,151.098307 134.230469,151.115234 C134.332032,151.335288 134.454752,151.500325 134.598633,151.610352 C134.742514,151.720378 134.886393,151.826171 135.030273,151.927734 C135.174154,152.029297 135.296874,152.152018 135.398437,152.295898 C135.500001,152.439779 135.559245,152.664061 135.576172,152.96875 C135.508463,153.104167 135.42806,153.252278 135.334961,153.413086 C135.241862,153.573894 135.161459,153.772785 135.09375,154.009766 C134.687498,154.382163 134.27702,154.708006 133.862305,154.987305 C133.447589,155.266603 133.024416,155.533202 132.592773,155.787109 C132.161131,156.041017 131.721031,156.303384 131.272461,156.574219 C130.823891,156.845053 130.371096,157.158201 129.914062,157.513672 C129.812499,157.666016 129.685548,157.801432 129.533203,157.919922 C129.380859,158.038412 129.224285,158.152669 129.063477,158.262695 C128.902668,158.372722 128.750326,158.486979 128.606445,158.605469 C128.462564,158.723959 128.348308,158.867838 128.263672,159.037109 C128.195963,159.037109 128.136719,159.041341 128.085937,159.049805 C128.035156,159.058268 127.975912,159.070963 127.908203,159.087891 C127.840494,159.223308 127.743165,159.333333 127.616211,159.417969 C127.489257,159.502605 127.400391,159.61263 127.349609,159.748047 C127.654298,160.408206 128.052081,160.90755 128.542969,161.246094 C129.033857,161.584637 129.583981,161.830077 130.193359,161.982422 C130.802737,162.134766 131.462887,162.219401 132.173828,162.236328 C132.884769,162.253255 133.62109,162.261719 134.382812,162.261719 C134.467448,162.244792 134.505534,162.198243 134.49707,162.12207 C134.488607,162.045898 134.535156,162.016276 134.636719,162.033203 C134.890626,162.117839 135.102213,162.2194 135.271484,162.337891 C135.440756,162.456381 135.601562,162.583333 135.753906,162.71875 C135.906251,162.854167 136.054361,162.993814 136.198242,163.137695 C136.342123,163.281576 136.507161,163.429687 136.693359,163.582031 C136.659505,164.377608 136.42676,165.025063 135.995117,165.524414 C135.563474,166.023766 134.992191,166.42578 134.28125,166.730469 C133.299474,166.764323 132.444665,166.738933 131.716797,166.654297 C130.988929,166.569661 130.269535,166.383465 129.558594,166.095703 C129.507812,166.078776 129.461263,166.027995 129.418945,165.943359 C129.376627,165.858724 129.338542,165.799479 129.304687,165.765625 C129.16927,165.680989 129.016928,165.647135 128.847656,165.664062 C128.678385,165.68099 128.534506,165.664063 128.416016,165.613281 C128.263671,165.545573 128.013999,165.39323 127.666992,165.15625 C127.319985,164.91927 127.002606,164.69922 126.714844,164.496094 C126.359373,164.208332 126.016603,163.924806 125.686523,163.645508 C125.356444,163.36621 125.064454,163.057293 124.810547,162.71875 C124.759765,162.634114 124.687826,162.591797 124.594727,162.591797 C124.501627,162.591797 124.412761,162.566407 124.328125,162.515625 C123.735674,162.888023 123.240562,163.349281 122.842773,163.899414 C122.444985,164.449547 122.059898,165.008135 121.6875,165.575195 C121.315102,166.142255 120.921552,166.675453 120.506836,167.174805 C120.09212,167.674156 119.571618,168.059243 118.945312,168.330078 C118.759114,168.330078 118.598308,168.300456 118.462891,168.241211 C118.327473,168.181966 118.200521,168.105795 118.082031,168.012695 C117.963541,167.919596 117.845053,167.83073 117.726562,167.746094 C117.608072,167.661458 117.472657,167.602214 117.320312,167.568359 C117.320312,167.331379 117.273763,167.107097 117.180664,166.895508 C117.087565,166.683918 116.994467,166.489259 116.901367,166.311523 C116.808268,166.133788 116.74056,165.960287 116.698242,165.791016 C116.655924,165.621744 116.702473,165.452475 116.837891,165.283203 C116.651692,165.130859 116.473959,165.003907 116.304687,164.902344 C116.423178,164.783854 116.47819,164.673829 116.469727,164.572266 C116.461263,164.470703 116.431641,164.369141 116.380859,164.267578 C116.330078,164.166015 116.291992,164.060222 116.266602,163.950195 C116.241211,163.840169 116.270833,163.717449 116.355469,163.582031 C116.423177,163.565104 116.4528,163.53125 116.444336,163.480469 C116.435872,163.429687 116.457031,163.38737 116.507812,163.353516 L116.507812,163.353516 Z M144.310547,161.347656 C144.192057,161.449219 144.090495,161.571939 144.005859,161.71582 C143.921224,161.859701 143.836589,162.007812 143.751953,162.160156 C143.667317,162.346355 143.574219,162.524088 143.472656,162.693359 C143.371093,162.862631 143.244141,163.014973 143.091797,163.150391 C143.007161,163.404298 142.922526,163.603189 142.837891,163.74707 C142.753255,163.890951 142.617839,164.055989 142.431641,164.242188 C142.262369,164.919274 141.864586,165.655595 141.238281,166.451172 C141.221354,166.603516 141.174805,166.751627 141.098633,166.895508 C141.022461,167.039389 140.942058,167.179036 140.857422,167.314453 C140.823568,167.365235 140.789714,167.420247 140.755859,167.479492 C140.722005,167.538737 140.696615,167.585286 140.679687,167.619141 L140.628906,167.873047 C140.54427,168.008464 140.451172,168.126953 140.349609,168.228516 L140.070312,168.507812 C140.036458,168.558594 139.977214,168.626302 139.892578,168.710938 L139.511719,168.863281 C138.276035,168.69401 137.522788,168.03386 137.251953,166.882812 L137.277344,166.628906 C137.311198,166.54427 137.34082,166.455404 137.366211,166.362305 C137.391602,166.269205 137.421224,166.171876 137.455078,166.070312 C137.522787,165.833332 137.60319,165.596355 137.696289,165.359375 C137.789388,165.122395 137.929036,164.910808 138.115234,164.724609 C138.149089,164.606119 138.22526,164.415691 138.34375,164.15332 C138.46224,163.890949 138.665363,163.497398 138.953125,162.972656 C139.190105,162.566404 139.376301,162.244793 139.511719,162.007812 C139.647136,161.770832 139.757161,161.584636 139.841797,161.449219 C139.672525,161.178384 139.469402,160.932944 139.232422,160.712891 C139.012369,160.289711 138.821941,159.883465 138.661133,159.494141 C138.500325,159.104816 138.377605,158.757814 138.292969,158.453125 C138.276042,158.233072 138.250651,158.046876 138.216797,157.894531 C138.182943,157.742187 138.149089,157.581381 138.115234,157.412109 C138.064453,157.225911 138.022136,157.039714 137.988281,156.853516 C137.954427,156.667317 137.9375,156.472657 137.9375,156.269531 C137.852864,156.151041 137.802083,156.032553 137.785156,155.914062 L137.835937,155.660156 C137.886719,155.541666 137.895182,155.385092 137.861328,155.19043 C137.827474,154.995767 137.785157,154.796876 137.734375,154.59375 C137.700521,154.424478 137.662435,154.238282 137.620117,154.035156 C137.577799,153.83203 137.565104,153.628907 137.582031,153.425781 C137.598958,153.222655 137.653971,153.032227 137.74707,152.854492 C137.84017,152.676757 137.996744,152.520183 138.216797,152.384766 L138.648437,152.359375 C138.800782,152.444011 138.948893,152.524414 139.092773,152.600586 C139.236654,152.676758 139.376301,152.757161 139.511719,152.841797 C139.697918,152.926433 139.87565,153.011067 140.044922,153.095703 C140.214194,153.180339 140.391926,153.290364 140.578125,153.425781 L140.755859,153.78125 L141.085937,154.060547 L141.085937,154.339844 C141.102865,154.407552 141.111328,154.50065 141.111328,154.619141 C141.111328,154.839194 141.145182,154.974609 141.212891,155.025391 L141.314453,155.330078 C141.314453,155.567058 141.339843,155.79134 141.390625,156.00293 C141.441407,156.214519 141.492187,156.413411 141.542969,156.599609 C141.59375,156.785808 141.644531,156.980468 141.695312,157.183594 C141.746094,157.38672 141.754557,157.60677 141.720703,157.84375 C141.822266,157.792968 141.906901,157.733724 141.974609,157.666016 C142.008464,157.632161 142.042318,157.606771 142.076172,157.589844 C142.110026,157.572917 142.14388,157.547526 142.177734,157.513672 L143.675781,155.482422 L143.625,155.228516 L144.158203,154.720703 C144.29362,154.585286 144.424804,154.458334 144.551758,154.339844 C144.678712,154.221354 144.784505,154.094402 144.869141,153.958984 L145.148437,153.755859 C145.690107,152.909501 146.460281,152.384767 147.458984,152.181641 L147.814453,152.130859 L147.916016,152.460938 C147.983724,152.647136 148.123371,152.816405 148.334961,152.96875 C148.546551,153.121095 148.770832,153.264973 149.007812,153.400391 L149.236328,153.552734 C149.320964,153.722006 149.363281,153.848958 149.363281,153.933594 C149.363281,154.01823 149.354818,154.094401 149.337891,154.162109 L149.439453,154.416016 C149.304036,154.822268 149.138998,155.118489 148.944336,155.304688 C148.749674,155.490886 148.559246,155.660155 148.373047,155.8125 C148.220702,155.947917 148.081055,156.070637 147.954102,156.180664 C147.827148,156.290691 147.729818,156.430338 147.662109,156.599609 L147.484375,156.802734 C147.128904,157.00586 146.900391,157.276691 146.798828,157.615234 L146.722656,157.919922 L146.417969,157.919922 C146.401042,157.919922 146.362956,157.949544 146.303711,158.008789 C146.244466,158.068034 146.1556,158.216145 146.037109,158.453125 C145.918619,158.622397 145.833985,158.732422 145.783203,158.783203 L145.65625,158.910156 C145.639323,158.977865 145.618164,159.041341 145.592773,159.100586 C145.567383,159.159831 145.537761,159.23177 145.503906,159.316406 C145.283853,159.536459 145.148438,159.701497 145.097656,159.811523 C145.046875,159.92155 144.987631,160.04427 144.919922,160.179688 C144.852213,160.315105 144.788737,160.446288 144.729492,160.573242 C144.670247,160.700196 144.572917,160.83138 144.4375,160.966797 L144.310547,161.347656 Z M153.298828,167.720703 C152.824867,167.873048 152.308597,168.02539 151.75,168.177734 C151.191403,168.330079 150.632815,168.40625 150.074219,168.40625 C149.22786,168.40625 148.559247,168.194664 148.068359,167.771484 C147.983724,167.585286 147.907552,167.458334 147.839844,167.390625 C147.789062,167.322916 147.742513,167.250977 147.700195,167.174805 C147.657877,167.098632 147.628255,166.992839 147.611328,166.857422 C147.408202,166.620442 147.247396,166.345379 147.128906,166.032227 C147.010416,165.719074 146.930013,165.397463 146.887695,165.067383 C146.845377,164.737303 146.836914,164.402996 146.862305,164.064453 C146.887695,163.72591 146.942708,163.404298 147.027344,163.099609 C147.061198,163.031901 147.082357,162.964193 147.09082,162.896484 C147.099284,162.828776 147.111979,162.752605 147.128906,162.667969 C147.196615,162.397134 147.268554,162.134767 147.344727,161.880859 C147.420899,161.626952 147.526692,161.406902 147.662109,161.220703 C147.594401,161.068359 147.594401,160.899089 147.662109,160.712891 C147.729818,160.526692 147.805989,160.357423 147.890625,160.205078 C148.127605,159.561846 148.326497,159.015953 148.487305,158.567383 C148.648113,158.118813 148.81315,157.674481 148.982422,157.234375 C149.270184,156.472652 149.541014,155.719405 149.794922,154.974609 C150.048829,154.229814 150.277343,153.425786 150.480469,152.5625 C150.615886,152.477864 150.717448,152.41862 150.785156,152.384766 C150.886719,152.350911 150.971354,152.325521 151.039062,152.308594 C151.343752,152.460938 151.699217,152.609049 152.105469,152.75293 C152.511721,152.896811 152.850259,152.96875 153.121094,152.96875 C153.256511,153.053386 153.341146,153.116862 153.375,153.15918 C153.408854,153.201498 153.442708,153.239583 153.476562,153.273438 C153.662761,153.493491 153.823567,153.717772 153.958984,153.946289 C154.094402,154.174806 154.136719,154.475259 154.085937,154.847656 C153.984374,155.000001 153.908203,155.076172 153.857422,155.076172 C153.772786,155.414715 153.68392,155.702473 153.59082,155.939453 C153.497721,156.176433 153.400391,156.41341 153.298828,156.650391 C153.180338,156.904298 153.070313,157.158202 152.96875,157.412109 C152.867187,157.666017 152.782552,157.979165 152.714844,158.351562 C152.647135,158.436198 152.600586,158.512369 152.575195,158.580078 C152.549805,158.647787 152.520182,158.723958 152.486328,158.808594 C152.452474,158.89323 152.414388,158.982096 152.37207,159.075195 C152.329752,159.168295 152.266276,159.248698 152.181641,159.316406 C152.130859,159.756513 152.050456,160.111978 151.94043,160.382812 C151.830403,160.653647 151.716146,160.924478 151.597656,161.195312 C151.39453,161.6862 151.212566,162.177081 151.051758,162.667969 C150.89095,163.158857 150.79362,163.717445 150.759766,164.34375 C150.844401,164.309896 150.924804,164.292969 151.000977,164.292969 L151.216797,164.292969 C151.369141,164.292969 151.546874,164.318359 151.75,164.369141 C152.257815,164.098306 152.812171,163.9375 153.413086,163.886719 C154.014,163.835937 154.610674,163.802083 155.203125,163.785156 L155.914062,163.785156 C156.151043,163.785156 156.371093,163.768229 156.574219,163.734375 C156.726563,163.819011 156.823893,163.86556 156.866211,163.874023 C156.908529,163.882487 156.972005,163.886719 157.056641,163.886719 C157.175131,163.886719 157.276692,163.895182 157.361328,163.912109 C157.564454,164.098308 157.759114,164.233724 157.945312,164.318359 C158.131511,164.402995 158.326171,164.479166 158.529297,164.546875 C158.715496,164.614584 158.89746,164.686523 159.075195,164.762695 C159.252931,164.838868 159.426431,164.944661 159.595703,165.080078 L159.773437,166.171875 C159.891928,166.32422 159.942708,166.425781 159.925781,166.476562 C159.925781,166.61198 159.891927,166.713541 159.824219,166.78125 L159.875,167.060547 C159.621092,167.111328 159.447592,167.170573 159.354492,167.238281 C159.261393,167.30599 159.172526,167.382161 159.087891,167.466797 C158.952473,167.483724 158.855144,167.492188 158.795898,167.492188 L158.630859,167.492188 C158.393879,167.492188 158.106121,167.534505 157.767578,167.619141 C157.310545,167.466796 156.836591,167.390625 156.345703,167.390625 C156.159504,167.390625 155.964845,167.399088 155.761719,167.416016 C155.558593,167.432943 155.35547,167.44987 155.152344,167.466797 C154.949218,167.500651 154.741863,167.526042 154.530273,167.542969 C154.318684,167.559896 154.102866,167.568359 153.882812,167.568359 L153.298828,167.720703 Z M174.626953,153.705078 C174.64388,153.823568 174.648112,153.912435 174.639648,153.97168 C174.631185,154.030925 174.622721,154.085937 174.614258,154.136719 C174.605794,154.1875 174.601562,154.242513 174.601562,154.301758 C174.601562,154.361003 174.618489,154.449869 174.652344,154.568359 C174.296873,155.143883 173.886396,155.537434 173.420898,155.749023 C172.955401,155.960613 172.451826,156.112955 171.910156,156.206055 C171.368487,156.299154 170.81413,156.396484 170.24707,156.498047 C169.68001,156.59961 169.11719,156.81966 168.558594,157.158203 C168.338541,157.073567 168.139649,157.073567 167.961914,157.158203 C167.784179,157.242839 167.526043,157.268229 167.1875,157.234375 C167.085937,157.335938 166.958985,157.407877 166.806641,157.450195 C166.654296,157.492513 166.501954,157.539062 166.349609,157.589844 C166.417318,157.742188 166.44694,157.898762 166.438477,158.05957 C166.430013,158.220378 166.451172,158.351562 166.501953,158.453125 C167.094404,158.503907 167.750322,158.495443 168.469727,158.427734 C169.189131,158.360026 169.89583,158.317708 170.589844,158.300781 C170.606771,158.385417 170.598307,158.44043 170.564453,158.46582 C170.530599,158.491211 170.522135,158.53776 170.539062,158.605469 C170.657553,158.690105 170.776041,158.795898 170.894531,158.922852 C171.013021,159.049805 171.13151,159.172525 171.25,159.291016 C171.36849,159.409506 171.49121,159.506836 171.618164,159.583008 C171.745118,159.65918 171.893228,159.688802 172.0625,159.671875 C172.130209,159.807292 172.176758,159.955403 172.202148,160.116211 C172.227539,160.277019 172.206381,160.442056 172.138672,160.611328 C171.867837,160.797527 171.597007,160.987955 171.326172,161.182617 C171.055337,161.37728 170.771811,161.55078 170.475586,161.703125 C170.17936,161.85547 169.866213,161.97819 169.536133,162.071289 C169.206053,162.164388 168.837893,162.202474 168.431641,162.185547 L168.241211,162.185547 C168.198893,162.185547 168.143881,162.160157 168.076172,162.109375 C167.940755,162.194011 167.750327,162.219401 167.504883,162.185547 C167.259439,162.151693 167.069011,162.177083 166.933594,162.261719 C166.747395,162.177083 166.523113,162.138997 166.260742,162.147461 C165.998371,162.155925 165.765626,162.126302 165.5625,162.058594 C165.291665,162.414064 165.046225,162.79492 164.826172,163.201172 C164.606119,163.607424 164.411459,164.03906 164.242187,164.496094 C164.817711,164.58073 165.295897,164.614583 165.676758,164.597656 C166.057619,164.580729 166.417316,164.551107 166.755859,164.508789 C167.094403,164.466471 167.441404,164.424154 167.796875,164.381836 C168.152346,164.339518 168.600909,164.326823 169.142578,164.34375 C169.481121,164.157551 169.883136,164.034831 170.348633,163.975586 C170.81413,163.916341 171.241535,163.819011 171.630859,163.683594 C171.766277,163.734375 171.884765,163.823242 171.986328,163.950195 C172.087891,164.077149 172.185221,164.195637 172.27832,164.305664 C172.37142,164.415691 172.468749,164.51302 172.570312,164.597656 C172.671876,164.682292 172.798827,164.716146 172.951172,164.699219 C173.018881,164.766927 173.06543,164.84733 173.09082,164.94043 C173.116211,165.033529 173.13737,165.122395 173.154297,165.207031 C173.171224,165.291667 173.200846,165.363606 173.243164,165.422852 C173.285482,165.482097 173.357421,165.503255 173.458984,165.486328 C173.205077,166.044925 172.913088,166.472329 172.583008,166.768555 C172.252928,167.06478 171.876304,167.289062 171.453125,167.441406 C171.029946,167.593751 170.560224,167.712239 170.043945,167.796875 C169.527667,167.881511 168.956383,167.983072 168.330078,168.101562 C168.177734,168.135417 168.050782,168.131185 167.949219,168.088867 C167.847656,168.046549 167.729167,168.025391 167.59375,168.025391 C167.204425,168.110026 166.738935,168.186198 166.197266,168.253906 C165.655596,168.321615 165.105472,168.347005 164.546875,168.330078 C163.988278,168.313151 163.455081,168.241212 162.947266,168.114258 C162.439451,167.987304 162.024741,167.763022 161.703125,167.441406 C161.567708,167.322916 161.478841,167.183269 161.436523,167.022461 C161.394206,166.861653 161.279949,166.738933 161.09375,166.654297 C161.076823,166.434244 161.042969,166.188803 160.992187,165.917969 C160.941406,165.647134 160.890625,165.363608 160.839844,165.067383 C160.789062,164.771157 160.750977,164.479168 160.725586,164.191406 C160.700195,163.903644 160.71289,163.641277 160.763672,163.404297 C160.814453,163.150389 160.920247,162.921876 161.081055,162.71875 C161.241863,162.515624 161.296875,162.295574 161.246094,162.058594 C161.33073,162.041667 161.38151,161.995118 161.398437,161.918945 C161.415365,161.842773 161.483072,161.813151 161.601562,161.830078 C161.703126,161.525389 161.81315,161.237632 161.931641,160.966797 C162.050131,160.695962 162.172851,160.433595 162.299805,160.179688 C162.426758,159.92578 162.55371,159.667645 162.680664,159.405273 C162.807618,159.142902 162.930338,158.850913 163.048828,158.529297 C162.811848,158.309244 162.638347,158.068035 162.52832,157.805664 C162.418294,157.543293 162.337891,157.280926 162.287109,157.018555 C162.236328,156.756184 162.194011,156.485353 162.160156,156.206055 C162.126302,155.926756 162.067058,155.643231 161.982422,155.355469 C162.151694,155.101561 162.359048,154.894207 162.604492,154.733398 C162.849936,154.57259 163.116535,154.441407 163.404297,154.339844 C163.692059,154.238281 164.005207,154.153646 164.34375,154.085938 C164.682293,154.018229 165.037759,153.942058 165.410156,153.857422 C166.087243,153.637369 166.69238,153.4681 167.225586,153.349609 C167.758792,153.231119 168.283526,153.133789 168.799805,153.057617 C169.316083,152.981445 169.853513,152.909506 170.412109,152.841797 C170.970706,152.774088 171.605465,152.672527 172.316406,152.537109 C172.468751,152.689454 172.61263,152.765625 172.748047,152.765625 C172.815756,152.61328 172.896158,152.566731 172.989258,152.625977 C173.082357,152.685222 173.120443,152.638673 173.103516,152.486328 C173.272787,152.77409 173.488605,153.015299 173.750977,153.209961 C174.013348,153.404623 174.305337,153.569661 174.626953,153.705078 L174.626953,153.705078 Z" id="Kyle" fill="#474B66" transform="translate(145.455078, 159.011719) rotate(-10.000000) translate(-145.455078, -159.011719) "></path>
                        <path d="M180.870183,142 C180.870183,142 167.379044,130.096054 168.966236,124.540879 C170.553429,118.985704 180.076586,124.540879 180.076586,124.540879 C180.076586,124.540879 187.218955,115.017722 190.39334,118.192107 C193.567725,121.366493 184.250972,137.032018 184.250972,137.032018" id="Path-141" stroke="#474B66" stroke-width="4" stroke-linecap="round" stroke-linejoin="round"></path>
                    </g>
                </g>
                <g id="Sharpie" transform="translate(0.000000, 211.000000)">
                    <g filter="url(#filter-15)">
                        <g id="Base" transform="translate(0.000000, 6.000000)">
                            <mask id="mask-17" fill="white">
                                <use xlink:href="#path-16"></use>
                            </mask>
                            <use id="Rectangle-95" fill="#E9EBF0" xlink:href="#path-16"></use>
                            <rect id="Rectangle-98" fill="#C5C8D7" mask="url(#mask-17)" x="45" y="6" width="80" height="8" rx="2"></rect>
                            <rect id="Rectangle-495" fill-opacity="0.1" fill="#40445E" mask="url(#mask-17)" x="0" y="10" width="170" height="10"></rect>
                        </g>
                        <path d="M254,6.75516912 C264.666667,8.01214636 270,10.5394065 270,12 C270,14 270,18 270,20 C270,22 260,26 240,26 L170,26 L170,6 C170,6 239,6 240,6 C242.166861,6 244.216341,6.04695288 246.148438,6.13322812 L246.148438,6.0048815 C246.148438,4.89761602 245.25098,4 244.150725,4 L181.997713,4 C180.894407,4 180,3.11227036 180,2 C180,0.8954305 180.895725,0 181.998468,0 L249.995201,0 C252.20699,0 254,1.79965349 254,3.9999433 L254,6.75516912 Z" id="Combined-Shape" fill="#40445E"></path>
                        <path d="M205,26 L240,26 C259.999588,26 269.999588,22.0001649 270,20.0001237 L270,16 L170,16 L170,26 L205,26 Z" id="Combined-Shape" fill-opacity="0.1" fill="#000000"></path>
                    </g>
                </g>
            </g>
        </g>
    </g>
</svg>