<?xml version="1.0" encoding="UTF-8"?>
<svg width="606px" height="429px" viewBox="0 0 606 429" version="1.1" xmlns="http://www.w3.org/2000/svg" xmlns:xlink="http://www.w3.org/1999/xlink">
    <!-- Generator: Sketch 51.3 (57544) - http://www.bohemiancoding.com/sketch -->
    <title>318322-P9A6XZ-853 Copy 3</title>
    <desc>Created with Sketch.</desc>
    <defs>
        <rect id="path-1" x="0.0256406279" y="0.115493465" width="51.7171465" height="62.2253125" rx="1.49997673"></rect>
    </defs>
    <g id="illustration" stroke="none" stroke-width="1" fill="none" fill-rule="evenodd">
        <g id="318322-P9A6XZ-853-Copy-3">
            <g id="OBJECTS">
                <path d="M566,401.765578 C532,419.531157 436.066301,423.725043 396,427 C339.5226,431.616375 83.0837733,424.434203 40.0242391,401.765578 C-7.83373663,376.570822 -7.83373663,310.59593 15.6531883,266.620491 C76.0326511,184.23724 175.928687,9.37415741 332.476849,0.606515857 C495.433164,-8.53421682 569.492487,97.4810627 581.563325,227.331126 C583.46472,249.444663 588.91036,271.107596 597.691226,291.48845 C616.542951,334.322182 600,384 566,401.765578 Z" id="Shape" fill="#E194FF" fill-rule="nonzero"></path>
                <polygon id="Shape" fill="#8F1ABC" fill-rule="nonzero" points="90.0929376 352.607403 90.0929376 231.339265 157.617531 231.339265 157.617531 331.253945 237.962439 331.253945 237.962439 111.790696 316.589424 111.790696 316.589424 274.418328 356.755468 274.418328 356.755468 160.926749 419.151936 92.7086092 419.151936 184.744068 516.586322 184.744068 516.586322 368.160523 90.0929376 368.160523"></polygon>
                <polygon id="Shape" fill="#672F7D" fill-rule="nonzero" points="556.239553 290.266598 556.239553 380.531157 48.4525579 380.531157 48.4525579 300.442855 90.0929376 300.442855 90.0929376 335.386045 133.310216 335.386045 133.310216 208.445894 172.014744 208.445894 172.014744 311.222245 181.25819 311.222245 181.25819 138.559515 259.987738 138.559515 259.987738 363.296965 298.602524 363.296965 298.602524 237.832564 378.537181 237.832564 378.537181 333.448321 435.831164 333.448321 435.831164 122.326267 504.560867 122.326267 504.560867 290.266598"></polygon>
                <rect id="Rectangle-path" fill="#C668EA" fill-rule="nonzero" x="181.25819" y="152.251907" width="56.7042486" height="6.71145358"></rect>
                <rect id="Rectangle-path" fill="#C668EA" fill-rule="nonzero" x="181.25819" y="169.203781" width="56.7042486" height="6.71145358"></rect>
                <rect id="Rectangle-path" fill="#C668EA" fill-rule="nonzero" x="181.25819" y="186.168488" width="56.7042486" height="6.71145358"></rect>
                <rect id="Rectangle-path" fill="#C668EA" fill-rule="nonzero" x="181.25819" y="203.120362" width="56.7042486" height="6.71145358"></rect>
                <rect id="Rectangle-path" fill="#C668EA" fill-rule="nonzero" x="181.25819" y="220.085069" width="56.7042486" height="6.71145358"></rect>
                <rect id="Rectangle-path" fill="#C668EA" fill-rule="nonzero" x="181.25819" y="237.049775" width="56.7042486" height="6.71145358"></rect>
                <rect id="Rectangle-path" fill="#C668EA" fill-rule="nonzero" x="181.25819" y="254.001649" width="56.7042486" height="6.71145358"></rect>
                <rect id="Rectangle-path" fill="#C668EA" fill-rule="nonzero" x="181.25819" y="270.966356" width="56.7042486" height="6.71145358"></rect>
                <rect id="Rectangle-path" fill="#C668EA" fill-rule="nonzero" x="181.25819" y="287.931063" width="56.7042486" height="6.71145358"></rect>
                <rect id="Rectangle-path" fill="#C668EA" fill-rule="nonzero" x="305.269087" y="245.673287" width="8.32038376" height="8.32836209"></rect>
                <rect id="Rectangle-path" fill="#C668EA" fill-rule="nonzero" x="319.576557" y="245.673287" width="8.32038376" height="8.32836209"></rect>
                <rect id="Rectangle-path" fill="#C668EA" fill-rule="nonzero" x="333.896848" y="245.673287" width="8.32038376" height="8.32836209"></rect>
                <rect id="Rectangle-path" fill="#C668EA" fill-rule="nonzero" x="348.217139" y="245.673287" width="8.32038376" height="8.32836209"></rect>
                <rect id="Rectangle-path" fill="#C668EA" fill-rule="nonzero" x="362.524609" y="245.673287" width="8.32038376" height="8.32836209"></rect>
                <rect id="Rectangle-path" fill="#C668EA" fill-rule="nonzero" x="305.269087" y="259.147525" width="8.32038376" height="8.32836209"></rect>
                <rect id="Rectangle-path" fill="#C668EA" fill-rule="nonzero" x="319.576557" y="259.147525" width="8.32038376" height="8.32836209"></rect>
                <rect id="Rectangle-path" fill="#C668EA" fill-rule="nonzero" x="333.896848" y="259.147525" width="8.32038376" height="8.32836209"></rect>
                <rect id="Rectangle-path" fill="#C668EA" fill-rule="nonzero" x="348.217139" y="259.147525" width="8.32038376" height="8.32836209"></rect>
                <rect id="Rectangle-path" fill="#C668EA" fill-rule="nonzero" x="362.524609" y="259.147525" width="8.32038376" height="8.32836209"></rect>
                <rect id="Rectangle-path" fill="#C668EA" fill-rule="nonzero" x="305.269087" y="272.621763" width="8.32038376" height="8.32836209"></rect>
                <rect id="Rectangle-path" fill="#C668EA" fill-rule="nonzero" x="319.576557" y="272.621763" width="8.32038376" height="8.32836209"></rect>
                <rect id="Rectangle-path" fill="#C668EA" fill-rule="nonzero" x="333.896848" y="272.621763" width="8.32038376" height="8.32836209"></rect>
                <rect id="Rectangle-path" fill="#C668EA" fill-rule="nonzero" x="348.217139" y="272.621763" width="8.32038376" height="8.32836209"></rect>
                <rect id="Rectangle-path" fill="#C668EA" fill-rule="nonzero" x="362.524609" y="272.621763" width="8.32038376" height="8.32836209"></rect>
                <rect id="Rectangle-path" fill="#C668EA" fill-rule="nonzero" x="305.269087" y="286.096" width="8.32038376" height="8.32836209"></rect>
                <rect id="Rectangle-path" fill="#C668EA" fill-rule="nonzero" x="319.576557" y="286.096" width="8.32038376" height="8.32836209"></rect>
                <rect id="Rectangle-path" fill="#C668EA" fill-rule="nonzero" x="333.896848" y="286.096" width="8.32038376" height="8.32836209"></rect>
                <rect id="Rectangle-path" fill="#C668EA" fill-rule="nonzero" x="348.217139" y="286.096" width="8.32038376" height="8.32836209"></rect>
                <rect id="Rectangle-path" fill="#C668EA" fill-rule="nonzero" x="362.524609" y="286.096" width="8.32038376" height="8.32836209"></rect>
                <rect id="Rectangle-path" fill="#C668EA" fill-rule="nonzero" x="305.269087" y="299.570238" width="8.32038376" height="8.32836209"></rect>
                <rect id="Rectangle-path" fill="#C668EA" fill-rule="nonzero" x="319.576557" y="299.570238" width="8.32038376" height="8.32836209"></rect>
                <rect id="Rectangle-path" fill="#C668EA" fill-rule="nonzero" x="333.896848" y="299.570238" width="8.32038376" height="8.32836209"></rect>
                <rect id="Rectangle-path" fill="#C668EA" fill-rule="nonzero" x="348.217139" y="299.570238" width="8.32038376" height="8.32836209"></rect>
                <rect id="Rectangle-path" fill="#C668EA" fill-rule="nonzero" x="362.524609" y="299.570238" width="8.32038376" height="8.32836209"></rect>
                <g id="Group" opacity="0.9" transform="translate(40.875752, 35.115868)" fill="#F6FAF3" fill-rule="nonzero">
                    <path d="M512.722816,76.8544847 L386.263239,76.8544847 C385.79316,74.9569831 385.556368,73.0091162 385.558122,71.0541462 C385.567458,62.1459515 390.442202,53.9558616 398.264152,49.7066587 C406.086102,45.4574559 415.603151,45.8293363 423.07036,50.675966 C432.520736,40.1327832 448.553054,38.8147208 459.595435,47.6731359 C460.708254,42.9965129 464.465525,39.4128368 469.185898,38.5257773 C473.90627,37.6387177 478.706246,39.6143029 481.437871,43.5684723 C484.169495,47.5226416 484.321498,52.7153061 481.825859,56.8227848 C487.922544,58.7709929 492.699832,63.5528611 494.646173,69.6553921 C497.913218,67.6876447 501.912912,67.3667703 505.45136,68.7885485 C508.989808,70.2103267 511.657713,73.2102981 512.658714,76.8929825 L512.722816,76.8544847 Z" id="Shape"></path>
                    <path d="M543.581312,120.690671 L469.877327,120.690671 C468.431965,115.032417 470.616984,109.0675 475.373873,105.685562 C480.130762,102.303624 486.477126,102.203105 491.338532,105.432701 C496.849396,99.2975742 506.185261,98.5319748 512.620253,103.687466 C513.363321,101.05681 515.549969,99.0873081 518.241674,98.6242862 C520.933378,98.1612643 523.651455,99.2870643 525.229286,101.518484 C526.807117,103.749905 526.964106,106.690117 525.632872,109.077161 C529.180176,110.209716 531.963462,112.986113 533.107115,116.532906 C535.011744,115.384868 537.344103,115.197648 539.407169,116.027196 C541.470236,116.856744 543.025049,118.606975 543.606952,120.754834 L543.581312,120.690671 Z" id="Shape"></path>
                    <path d="M179.484395,79.7289887 L85.5114941,79.7289887 C85.160181,78.3187725 84.9836423,76.8706296 84.9858612,75.4172327 C84.996856,68.7835328 88.6361139,62.6885082 94.4677822,59.5369232 C100.29945,56.3853382 107.387029,56.6833019 112.934146,60.313254 C119.960338,52.4872691 131.866245,51.5077631 140.07475,58.0803803 C141.1335,53.607945 145.374291,50.6409298 149.934199,51.1823434 C154.494107,51.7237569 157.923751,55.6015092 157.907807,60.1977605 C157.918217,61.8472707 157.474661,63.467801 156.625776,64.8816622 C161.159174,66.3175225 164.71804,69.8606741 166.176909,74.3906241 C168.593453,72.9580733 171.537991,72.731381 174.144971,73.7771841 C176.751951,74.8229871 178.725096,77.0224326 179.484395,79.7289887 Z" id="Shape"></path>
                    <path d="M335.892226,42.1166169 C333.682616,42.115236 331.514705,42.7187507 329.623092,43.8618515 C327.84093,38.3369268 323.718902,33.8776761 318.354036,31.6708746 C324.018407,22.223566 320.959067,9.96872604 311.520809,4.29892342 C302.08255,-1.3708792 289.83945,1.69139446 284.175079,11.1387031 C279.494333,3.22617976 270.159658,-0.646711738 261.259135,1.63103734 C252.358612,3.90878641 246.026449,11.7910069 245.714137,20.9813128 C245.40645,20.9813128 245.085942,20.9813128 244.765434,20.9813128 C231.312553,20.9813128 220.406838,31.8974853 220.406838,45.3632666 C220.405083,47.3182365 220.641876,49.2661035 221.111955,51.163605 L347.571532,51.163605 C346.161219,45.8572788 341.377744,42.1519182 335.892226,42.1166169 Z" id="Shape"></path>
                    <path d="M256.957553,107.550081 C255.677985,107.547183 254.422465,107.898 253.329404,108.563857 C252.283069,105.366079 249.895485,102.784079 246.791044,101.493091 C250.069298,96.0004693 248.278465,88.8877211 242.791106,85.6063228 C237.303746,82.3249246 230.197812,84.117475 226.919557,89.6100963 C224.200876,85.0352072 218.795902,82.8001675 213.644124,84.120501 C208.492346,85.4408344 204.825522,90.0008572 204.637851,95.3206065 L204.086578,95.3206065 C196.298068,95.3206065 189.984232,101.640496 189.984232,109.436474 C189.983136,110.569763 190.120915,111.698908 190.394483,112.798618 L263.701038,112.798618 C262.888172,109.730222 260.128786,107.582558 256.957553,107.550081 Z" id="Shape"></path>
                    <path d="M67.498953,165.976942 C66.215571,165.97565 64.9563526,166.326261 63.8579838,166.990718 C62.8116489,163.79294 60.4240652,161.21094 57.3196237,159.919951 C58.5028751,158.07462 59.1304164,155.927351 59.127288,153.734635 C59.1601851,148.46212 55.6214951,143.836681 50.5276005,142.493942 C45.4337059,141.151203 40.0780077,143.432101 37.5122386,148.036957 C34.7871633,143.468539 29.3841346,141.239105 24.2343832,142.55816 C19.0846318,143.877215 15.4155656,148.430371 15.2177127,153.747467 L14.6664392,153.747467 C6.87792889,153.747467 0.564093814,160.067357 0.564093814,167.863335 C0.56221853,168.996671 0.700008848,170.125911 0.974343861,171.225478 L74.3578209,171.225478 C73.5259627,168.120964 70.7100933,165.966208 67.498953,165.976942 Z" id="Shape"></path>
                </g>
                <path d="M110.233651,294.629684 L110.233651,343.919728 L87.580156,343.919728 L87.580156,294.629684 C87.580156,290.334809 91.0585052,286.853124 95.3492663,286.853124 L102.413259,286.853124 C104.482626,286.839451 106.47193,287.652725 107.94003,289.112598 C109.408131,290.57247 110.233696,292.558288 110.233651,294.629684 Z" id="Shape" fill="#565656" fill-rule="nonzero"></path>
                <path d="M110.233651,294.629684 L110.233651,343.919728 L98.9133136,343.919728 L98.9133136,286.852954 L102.413259,286.853124 C104.482626,286.839451 106.47193,287.652725 107.94003,289.112598 C109.408131,290.57247 110.233696,292.558288 110.233651,294.629684 Z" id="Shape" fill="#3A3A3A" fill-rule="nonzero"></path>
                <path d="M102.079931,286.853124 L95.4774694,286.853124 L95.4774694,95.0698089 C95.2587638,84.7639148 100.626524,75.1457941 109.508474,69.9286141 C118.390425,64.7114341 129.396966,64.7114341 138.278916,69.9286141 C147.160867,75.1457941 152.528627,84.7639148 152.309921,95.0698089 L152.309921,96.4557305 L145.694639,96.4557305 L145.694639,95.0698089 C145.694639,83.0214784 135.936894,73.2543766 123.900105,73.2543766 C111.863317,73.2543766 102.105572,83.0214784 102.105572,95.0698089 L102.079931,286.853124 Z" id="Shape" fill="#606060" fill-rule="nonzero"></path>
                <path d="M141.758803,72.9720593 C133.044426,67.1477413 121.833848,66.6003108 112.594468,71.5479178 C103.355087,76.4955248 97.5885535,86.1340493 97.5928212,96.6225544 L97.5928212,286.853124 L95.4774631,286.853124 L95.4774694,95.0698089 C95.4701647,84.1063471 101.762696,74.1160491 111.648553,69.3958919 C121.534409,64.6757346 133.250983,66.0673017 141.758803,72.9720593 Z" id="Shape" fill="#7A7779" fill-rule="nonzero"></path>
                <ellipse id="Oval" fill="#F7B935" fill-rule="nonzero" cx="149.963804" cy="117.064898" rx="5.26914904" ry="5.27420157"></ellipse>
                <path d="M149.156124,92.7086092 C152.066195,92.7086092 154.425273,95.0699497 154.425273,97.9828108 L154.425273,102.961862 L143.89978,102.961862 L143.899795,97.9956434 C143.896391,96.5968369 144.44827,95.2539687 145.434023,94.2624565 C146.419777,93.2709444 147.758657,92.7120085 149.156124,92.7086092 Z" id="Shape" fill="#606060" fill-rule="nonzero"></path>
                <path d="M154.425273,97.9956434 L154.425273,102.974695 L153.284265,102.974695 L153.284265,97.9956434 C153.285437,96.596129 152.7322,95.2532433 151.745827,94.2613547 C150.887312,93.4095235 149.767407,92.8716345 148.56639,92.7342587 L149.130483,92.7342744 C150.528993,92.730856 151.871207,93.2854314 152.860105,94.275278 C153.849003,95.2651247 154.403048,96.6086256 154.399632,98.008476 L154.425273,97.9956434 Z" id="Shape" fill="#515151" fill-rule="nonzero"></path>
                <path d="M170.066056,117.064898 L128.246192,117.064898 C130.560075,107.381004 139.208649,100.550451 149.156124,100.550451 C159.103599,100.550451 167.752173,107.381004 170.066056,117.064898 Z" id="Shape" fill="#606060" fill-rule="nonzero"></path>
                <path d="M161.873875,117.064898 L128.246192,117.064898 C130.096565,109.268438 137.054269,103.764714 145.060034,103.764714 C153.065798,103.764714 160.023502,109.268438 161.873875,117.064898 Z" id="Shape" fill="#7A7779" fill-rule="nonzero"></path>
                <path d="M170.066056,117.064898 L167.79686,117.064898 C165.598861,107.775352 157.539919,101.052256 148.015116,100.562161 C148.399725,100.562165 148.771515,100.562165 149.156124,100.562165 C159.101774,100.556182 167.751735,107.382985 170.066056,117.064898 Z" id="Shape" fill="#515151" fill-rule="nonzero"></path>
                <path d="M170.271181,119.708415 L128.053887,119.708415 C127.345841,119.708415 126.771856,119.133879 126.771856,118.425154 C126.771856,117.716429 127.345841,117.141893 128.053887,117.141893 L170.284001,117.141893 C170.992048,117.141893 171.566033,117.716429 171.566033,118.425154 C171.56605,118.767731 171.429221,119.096093 171.186013,119.337124 C170.942806,119.578154 170.613413,119.711841 170.271181,119.708415 Z" id="Shape" fill="#515151" fill-rule="nonzero"></path>
                <path d="M163.643079,119.708415 L128.053887,119.708415 C127.345841,119.708415 126.771856,119.133879 126.771856,118.425154 C126.771856,117.716429 127.345841,117.141893 128.053887,117.141893 L163.655899,117.141893 C164.363945,117.141893 164.93793,117.716429 164.93793,118.425154 C164.937948,118.767731 164.801118,119.096093 164.557911,119.337124 C164.314703,119.578154 163.98531,119.711841 163.643079,119.708415 Z" id="Shape" fill="#606060" fill-rule="nonzero"></path>
                <path d="M145.656178,119.310604 L127.861582,119.310604 C127.493398,119.310604 127.194926,119.011846 127.194926,118.643308 C127.194892,118.467488 127.265536,118.299048 127.390941,118.175936 C127.516345,118.052825 127.685964,117.985398 127.861582,117.988845 L145.656178,117.988845 C145.831797,117.985398 146.001415,118.052825 146.12682,118.175936 C146.252225,118.299048 146.322868,118.467488 146.322835,118.643308 C146.322835,118.820286 146.252598,118.990015 146.127575,119.115158 C146.002553,119.2403 145.832987,119.310604 145.656178,119.310604 Z" id="Shape" fill="#7A7779" fill-rule="nonzero"></path>
                <path d="M146.502319,320.602881 C145.209253,320.600687 143.919735,320.738367 142.656225,321.013524 C140.564807,314.399757 135.700799,309.024823 129.331788,306.289461 C122.962776,303.554099 115.719674,303.729273 109.490073,306.76933 C109.528381,303.898696 108.270683,301.163996 106.067049,299.326418 C103.79644,302.209242 103.166829,306.058401 104.400408,309.515508 C101.610615,307.417212 97.8996394,307.008859 94.7210709,308.450402 C96.0093223,311.021531 98.2495317,312.987622 100.964564,313.929925 C100.171886,314.997492 99.4645746,316.125984 98.849212,317.304901 C98.3694826,317.123997 97.8618456,317.028453 97.3492353,317.022584 C95.0624332,317.026109 93.1769348,318.817642 93.0544301,321.103353 C87.6811083,319.898887 82.0521312,321.204337 77.7555121,324.651418 C73.4588931,328.098499 70.9604502,333.313495 70.9650292,338.825183 C70.9704108,340.345527 71.1685727,341.859039 71.5547636,343.329428 L164.130251,343.329428 C164.516442,341.859039 164.714603,340.345527 164.719985,338.825183 C164.733673,333.985915 162.818301,329.341088 159.398483,325.9204 C155.978665,322.499712 151.33694,320.585774 146.502319,320.602881 Z" id="Shape" fill="#A5C437" fill-rule="nonzero"></path>
                <path d="M178.489002,339.672135 C178.482298,340.889259 178.322934,342.100723 178.014651,343.278098 L103.695291,343.278098 C103.380771,342.101955 103.221301,340.889684 103.220939,339.672135 C103.212667,337.116489 103.885335,334.604854 105.169627,332.396047 C108.943345,325.806086 117.151987,323.238775 124.002668,326.50588 C126.116908,318.218905 133.459408,312.336045 142.000486,312.08591 C150.541564,311.835775 158.215123,317.278872 160.809789,325.427941 C161.842458,325.212277 162.896041,325.113274 163.950766,325.132791 C171.966256,325.153911 178.460831,331.648981 178.489002,339.672135 Z" id="Shape" fill="#83A127" fill-rule="nonzero"></path>
                <path d="M135.566591,341.006727 C135.560978,341.773038 135.461957,342.5358 135.271724,343.278098 L88.4519374,343.278098 C88.2617045,342.5358 88.1626835,341.773038 88.1570702,341.006727 C88.1515072,337.856276 89.7611263,334.923277 92.4204548,333.238115 C95.0797832,331.552953 98.4168937,331.351312 101.259431,332.70403 C102.32156,328.503204 105.553148,325.195402 109.725165,324.03864 C113.897181,322.881878 118.368503,324.053918 121.438605,327.109013 C122.829119,328.476184 123.863571,330.163736 124.451379,332.023901 C125.088081,331.890171 125.736684,331.821379 126.387246,331.81858 C131.453931,331.825648 135.55953,335.935184 135.566591,341.006727 Z" id="Shape" fill="#C9E94D" fill-rule="nonzero"></path>
                <path d="M87.4263123,324.375668 C85.7588543,326.040396 84.9017746,328.351573 85.0801948,330.702143 C83.6472651,328.859247 81.4638894,327.757092 79.1315692,327.699313 C79.1315692,327.699313 79.1315692,334.551925 86.9776013,335.398877 C86.9776013,335.398877 91.9134222,330.04768 87.4263123,324.375668 Z" id="Shape" fill="#C8E94B" fill-rule="nonzero"></path>
                <path d="M125.566746,300.750838 C124.088795,301.309664 122.927788,302.485841 122.387308,303.971822 C122.024738,302.441161 120.993809,301.154798 119.57966,300.46852 C118.513358,303.113655 119.679658,306.133227 122.246285,307.372463 C124.823596,306.276823 126.229034,303.474115 125.566746,300.750838 Z" id="Shape" fill="#C8E94B" fill-rule="nonzero"></path>
                <path d="M158.514953,314.237908 C156.988544,313.829242 155.360026,314.105606 154.053484,314.995032 C154.651272,313.541806 154.561765,311.89613 153.809898,310.516452 C151.400487,312.046593 150.597235,315.189589 151.976593,317.689879 C154.706028,318.293647 157.471467,316.833614 158.514953,314.237908 Z" id="Shape" fill="#C8E94B" fill-rule="nonzero"></path>
                <path d="M141.579318,319.90992 C140.460182,321.027971 139.884278,322.579247 140.00242,324.157513 C139.044513,322.908669 137.574888,322.159007 136.002482,322.117129 C136.149427,324.948269 138.452916,327.186811 141.284451,327.250172 C143.145495,325.19769 143.269718,322.105341 141.579318,319.90992 Z" id="Shape" fill="#A5C437" fill-rule="nonzero"></path>
                <path d="M134.464044,328.841415 C132.889499,328.984339 131.456196,329.809513 130.541028,331.099954 C130.585963,329.530428 129.933299,328.021753 128.759004,326.980687 C127.026167,329.250082 127.357588,332.477502 129.515403,334.346603 C132.288589,333.970952 134.382655,331.641378 134.464044,328.841415 Z" id="Shape" fill="#A5C437" fill-rule="nonzero"></path>
                <path d="M166.078938,323.374724 C165.180368,323.564836 164.408523,324.136081 163.963587,324.940302 C163.900501,324.031816 163.428939,323.201071 162.681555,322.681763 C161.83206,324.100584 162.237145,325.936479 163.604618,326.865193 C165.170816,326.463401 166.217294,324.987158 166.078938,323.374724 Z" id="Shape" fill="#A5C437" fill-rule="nonzero"></path>
                <path d="M105.913205,316.291125 C105.145614,317.674354 105.019202,319.323977 105.567057,320.808203 C104.287077,319.880179 102.655852,319.582879 101.131228,319.999748 C102.031348,322.705096 104.876982,324.244448 107.631127,323.515883 C108.90908,321.01217 108.180975,317.950109 105.913205,316.291125 Z" id="Shape" fill="#C8E94B" fill-rule="nonzero"></path>
                <path d="M489.586741,340.750074 C489.586355,341.612622 489.496125,342.47278 489.317514,343.316596 L397.152277,343.316596 C392.392484,335.089942 394.213933,324.63078 401.473818,318.501353 C408.733703,312.371926 419.340357,312.338201 426.638999,318.421338 C432.054952,308.550374 443.403857,303.532331 454.34116,306.172521 C465.278464,308.812712 473.094736,318.4571 473.420325,329.714032 C477.065624,328.304649 481.170165,328.779085 484.39861,330.982991 C487.627056,333.186897 489.566784,336.838596 489.586741,340.750074 Z" id="Shape" fill="#A6C437" fill-rule="nonzero"></path>
                <path d="M505.907,328.854247 C504.423952,328.854086 502.954061,329.132675 501.573734,329.675534 C501.248146,318.418602 493.431873,308.774214 482.49457,306.134024 C471.557266,303.493833 460.208361,308.511877 454.792409,318.38284 C451.291393,315.494831 446.893403,313.920021 442.356704,313.929925 C441.378003,313.934671 440.400993,314.011877 439.433673,314.160912 C440.44744,309.645166 438.953296,304.932875 435.523477,301.828777 C433.288976,304.612804 432.144935,308.116653 432.305578,311.684219 C429.713185,309.309053 426.276909,308.07469 422.767264,308.257913 C422.767264,308.257913 423.40828,315.585332 429.52357,318.72932 C422.451409,324.863641 420.705508,335.150139 425.356968,343.278098 L517.522205,343.278098 C517.700816,342.434282 517.791046,341.574124 517.791431,340.711577 C517.770239,334.156732 512.4556,328.854213 505.907,328.854247 Z" id="Shape" fill="#C8E94B" fill-rule="nonzero"></path>
                <path d="M475.804903,341.815181 C475.802297,342.320129 475.746432,342.823391 475.638239,343.316596 L420.844217,343.316596 C418.035482,338.441484 419.109138,332.25365 423.395624,328.611999 C427.682111,324.970347 433.956321,324.915685 438.305485,328.482102 C441.53025,322.619524 448.274812,319.641067 454.774732,321.20914 C461.274653,322.777213 465.923098,328.504175 466.125566,335.193555 C468.299716,334.340929 470.754336,334.618831 472.683301,335.935996 C474.612267,337.253161 475.766314,339.439383 475.766442,341.776683 L475.804903,341.815181 Z" id="Shape" fill="#83A127" fill-rule="nonzero"></path>
                <path d="M402.17784,329.855191 C402.433732,331.071961 403.003977,332.200272 403.831661,333.127506 C402.629998,333.249881 401.48323,333.693073 400.511199,334.410766 C402.801774,337.001438 406.731831,337.30797 409.395677,335.103727 C409.395677,335.103727 407.857239,329.50871 402.17784,329.855191 Z" id="Shape" fill="#83A127" fill-rule="nonzero"></path>
                <path d="M417.792983,317.689879 C417.283649,318.395536 416.969637,319.223376 416.88274,320.089577 C416.260953,319.523804 415.499831,319.134019 414.677646,318.960307 C414.433505,321.366478 416.131367,323.536161 418.52374,323.875196 C419.737953,321.892242 419.435789,319.334646 417.792983,317.689879 Z" id="Shape" fill="#83A127" fill-rule="nonzero"></path>
                <path d="M455.984698,310.477954 C454.789524,310.812795 453.702405,311.454192 452.830901,312.338682 C452.62888,311.154575 452.120571,310.044073 451.356564,309.117698 C448.88467,311.584593 448.839078,315.577724 451.254002,318.100523 C451.254002,318.100523 456.702635,316.149966 455.984698,310.477954 Z" id="Shape" fill="#83A127" fill-rule="nonzero"></path>
                <path d="M473.125458,320.923696 C472.25768,321.815937 471.642643,322.92318 471.343434,324.131848 C470.568843,323.208105 469.565222,322.504455 468.433223,322.091463 C467.607946,325.429706 469.558742,328.825648 472.856231,329.791028 C472.856231,329.791028 476.586942,325.427941 473.125458,320.923696 Z" id="Shape" fill="#A6C437" fill-rule="nonzero"></path>
                <path d="M486.009873,315.174688 C485.158543,315.520625 484.408708,316.076918 483.83042,316.791597 C483.608174,315.943054 483.165907,315.168346 482.548388,314.54589 C480.967761,316.53987 481.239208,319.426756 483.163763,321.09052 C485.358559,320.008196 486.532971,317.567101 486.009873,315.174688 Z" id="Shape" fill="#A6C437" fill-rule="nonzero"></path>
                <path d="M505.445469,326.980687 C504.53018,326.947402 503.622687,327.160092 502.817305,327.596652 C502.931727,326.726687 502.816815,325.841896 502.483977,325.030131 C500.240616,326.229456 499.341396,328.986312 500.445547,331.27961 C502.905055,331.176973 504.973072,329.398896 505.445469,326.980687 Z" id="Shape" fill="#A6C437" fill-rule="nonzero"></path>
                <path d="M423.715968,155.742376 C423.650102,155.727448 423.593383,155.685819 423.559355,155.62743 C423.525327,155.56904 423.517044,155.49913 423.536483,155.434393 L424.292882,152.867872 C424.310783,152.800994 424.35492,152.744193 424.415271,152.710364 C424.475623,152.676535 424.547069,152.668547 424.61339,152.688215 C424.680203,152.706134 424.73695,152.750313 424.770747,152.810722 C424.804544,152.871132 424.812523,152.942646 424.792874,153.009031 L424.023655,155.575552 C424.005871,155.639119 423.963097,155.692751 423.905109,155.724191 C423.847121,155.755631 423.778874,155.762193 423.715968,155.742376 Z" id="Shape" fill="#F7B935" fill-rule="nonzero"></path>
                <polygon id="Shape" fill="#F7B935" fill-rule="nonzero" points="416.613514 143.487236 415.331482 145.681612 417.664779 144.937321"></polygon>
                <path d="M423.01085,141.434019 C423.483309,143.226379 422.417315,145.063348 420.627815,145.540576 C418.838316,146.017803 417.000543,144.955214 416.519465,143.165153 C416.038386,141.375092 417.095527,139.533004 418.882709,139.047154 C420.68009,138.573187 422.523013,139.638753 423.01085,141.434019 Z" id="Shape" fill="#DB5C45" fill-rule="nonzero"></path>
                <path d="M425.933882,143.564232 C422.087788,140.202089 419.523725,144.090369 419.523725,144.116034 C416.510951,146.567062 421.728819,159.515162 435.702961,151.815598 C435.65168,151.789933 431.010726,147.952983 425.933882,143.564232 Z" id="Shape" fill="#DB5C45" fill-rule="nonzero"></path>
                <path d="M424.844155,142.730112 C423.280077,142.383632 419.023733,143.641227 422.280092,148.581781 C425.254405,153.175854 432.80557,150.660663 432.80557,150.660663 C432.80557,150.660663 429.203062,143.692558 424.844155,142.730112 Z" id="Shape" fill="#C64938" fill-rule="nonzero"></path>
                <path d="M425.767218,155.870702 C425.625609,155.870702 425.510812,155.755795 425.510812,155.61405 L425.510812,152.932035 C425.510812,152.79029 425.625609,152.675383 425.767218,152.675383 C425.908827,152.675383 426.023624,152.79029 426.023624,152.932035 L426.023624,155.61405 C426.023624,155.682118 425.99661,155.747399 425.948524,155.79553 C425.900439,155.843662 425.835221,155.870702 425.767218,155.870702 Z" id="Shape" fill="#F7B935" fill-rule="nonzero"></path>
                <path d="M412.228966,142.12698 C412.228966,144.175196 410.57015,145.835603 408.523896,145.835603 C406.477642,145.835603 404.818825,144.175196 404.818825,142.12698 C404.818825,140.078763 406.477642,138.418356 408.523896,138.418356 C410.57015,138.418356 412.228966,140.078763 412.228966,142.12698 Z" id="Shape" fill="#4F9EB6" fill-rule="nonzero"></path>
                <path d="M404.63934,145.386462 C406.277868,148.770733 406.659614,152.628243 405.716247,156.268513 C405.716247,156.268513 399.229168,149.723883 404.088067,145.283801 C404.168513,145.207246 404.280757,145.173951 404.389885,145.194274 C404.499012,145.214596 404.591783,145.28607 404.63934,145.386462 Z" id="Shape" fill="#0C2C44" fill-rule="nonzero"></path>
                <path d="M412.267427,145.335131 C410.627614,148.714466 410.245767,152.568448 411.190521,156.20435 C411.190521,156.20435 417.6776,149.65972 412.818701,145.219638 C412.736472,145.143891 412.622767,145.11254 412.513386,145.135456 C412.404006,145.158371 412.312406,145.232734 412.267427,145.335131 Z" id="Shape" fill="#0C2C44" fill-rule="nonzero"></path>
                <path d="M413.510998,147.401181 C413.510998,152.534224 408.523896,158.424391 408.523896,158.424391 C408.523896,158.424391 403.536793,152.996198 403.536793,147.401181 C403.536793,145.347964 406.472645,143.692558 408.523896,143.692558 C410.575146,143.692558 413.510998,145.347964 413.510998,147.401181 Z" id="Shape" fill="#4F9EB6" fill-rule="nonzero"></path>
                <polygon id="Shape" fill="#F7B935" fill-rule="nonzero" points="411.305904 142.537623 410.587966 144.013373 412.80588 144.205862"></polygon>
                <polygon id="Shape" fill="#575355" fill-rule="nonzero" points="172.399353 162.902971 172.399353 343.290931 167.566095 343.290931 167.566095 339.877457 112.105417 339.877457 112.105417 343.290931 107.272158 343.290931 107.272158 162.902971"></polygon>
                <polygon id="Shape" fill="#494748" fill-rule="nonzero" points="172.399353 158.96336 172.399353 343.290931 167.566095 343.290931 167.566095 339.877457 139.425506 339.877457 139.425506 158.96336"></polygon>
                <path d="M447.177142,162.902971 L94.8492741,162.902971 C93.7987774,162.913247 92.787773,162.502722 92.0413211,161.762785 C91.2948693,161.022848 90.8749266,160.014914 90.8749767,158.96336 C90.8749767,156.787574 92.6371107,155.02375 94.8108131,155.02375 L447.177142,155.02375 C449.347923,155.030793 451.105942,156.790498 451.112979,158.96336 C451.105942,161.136223 449.347923,162.895927 447.177142,162.902971 Z" id="Shape" fill="#3A3A3A" fill-rule="nonzero"></path>
                <path d="M365.627125,162.902971 L117.913019,162.902971 C115.742238,162.895927 113.984219,161.136223 113.977182,158.96336 C113.984219,156.790498 115.742238,155.030793 117.913019,155.02375 L365.627125,155.02375 C367.797906,155.030793 369.555925,156.790498 369.562961,158.96336 C369.555925,161.136223 367.797906,162.895927 365.627125,162.902971 Z" id="Shape" fill="#515151" fill-rule="nonzero"></path>
                <path d="M428.562046,160.875419 L375.037236,160.875419 C374.515964,160.878863 374.015045,160.673113 373.646442,160.304157 C373.27784,159.935201 373.072287,159.433801 373.075727,158.91203 C373.072287,158.390259 373.27784,157.888859 373.646442,157.519903 C374.015045,157.150947 374.515964,156.945197 375.037236,156.948641 L428.562046,156.948641 C429.084488,156.945223 429.586705,157.15057 429.957337,157.519148 C430.327969,157.887725 430.536386,158.389076 430.536375,158.91203 C430.536386,159.434984 430.327969,159.936334 429.957337,160.304912 C429.586705,160.67349 429.084488,160.878837 428.562046,160.875419 Z" id="Shape" fill="#4F4F4F" fill-rule="nonzero"></path>
                <rect id="Rectangle-path" fill="#575355" fill-rule="nonzero" x="426.972327" y="162.902971" width="10.2947121" height="180.38796"></rect>
                <rect id="Rectangle-path" fill="#424041" fill-rule="nonzero" x="432.113273" y="162.902971" width="5.1409459" height="180.38796"></rect>
                <rect id="Rectangle-path" fill="#575355" fill-rule="nonzero" x="172.399353" y="169.062622" width="254.572974" height="3.13115616"></rect>
                <rect id="Rectangle-path" fill="#424041" fill-rule="nonzero" x="172.399353" y="170.6282" width="254.572974" height="1.56557808"></rect>
                <rect id="Rectangle-path" fill="#575355" fill-rule="nonzero" x="172.399353" y="169.062622" width="254.572974" height="3.13115616"></rect>
                <rect id="Rectangle-path" fill="#424041" fill-rule="nonzero" x="172.399353" y="170.6282" width="254.572974" height="1.56557808"></rect>
                <rect id="Rectangle-path" fill="#575355" fill-rule="nonzero" x="172.399353" y="176.92901" width="254.572974" height="3.13115616"></rect>
                <rect id="Rectangle-path" fill="#FFFFFF" fill-rule="nonzero" x="172.399353" y="298.813114" width="254.572974" height="10.0735967"></rect>
                <rect id="Rectangle-path" fill="#575355" fill-rule="nonzero" x="172.399353" y="298.813114" width="254.572974" height="5.04321464"></rect>
                <rect id="Rectangle-path" fill="#FFFFFF" fill-rule="nonzero" x="254.539105" y="303.856329" width="5.26914904" height="39.434602"></rect>
                <rect id="Rectangle-path" fill="#FFFFFF" fill-rule="nonzero" x="343.089013" y="303.856329" width="5.26914904" height="39.434602"></rect>
                <rect id="Rectangle-path" fill="#EDEDED" fill-rule="nonzero" x="112.105417" y="189.543463" width="55.4606782" height="66.7295576" rx="3.37174257"></rect>
                <path d="M166.437907,262.907479 L113.233604,262.907479 C112.933339,262.910954 112.644359,262.793094 112.432026,262.580557 C112.219692,262.36802 112.101945,262.078762 112.105417,261.778209 C112.105397,261.479875 112.224667,261.193943 112.43662,260.984198 C112.648573,260.774452 112.935575,260.658344 113.233604,260.661773 L166.437907,260.661773 C166.735936,260.658344 167.022939,260.774452 167.234892,260.984198 C167.446845,261.193943 167.566114,261.479875 167.566095,261.778209 C167.569566,262.078762 167.451819,262.36802 167.239486,262.580557 C167.027152,262.793094 166.738172,262.910954 166.437907,262.907479 Z" id="Shape" fill="#FFFFFF" fill-rule="nonzero"></path>
                <path d="M166.437907,269.785756 L113.233604,269.785756 C112.610523,269.785756 112.105417,269.280165 112.105417,268.656487 C112.105397,268.358153 112.224667,268.07222 112.43662,267.862475 C112.648573,267.65273 112.935575,267.536621 113.233604,267.54005 L166.437907,267.54005 C166.735936,267.536621 167.022939,267.65273 167.234892,267.862475 C167.446845,268.07222 167.566114,268.358153 167.566095,268.656487 C167.566095,269.280165 167.060988,269.785756 166.437907,269.785756 Z" id="Shape" fill="#FFFFFF" fill-rule="nonzero"></path>
                <path d="M166.437907,276.664034 L113.233604,276.664034 C112.610523,276.664034 112.105417,276.158443 112.105417,275.534764 C112.105397,275.23643 112.224667,274.950498 112.43662,274.740752 C112.648573,274.531007 112.935575,274.414898 113.233604,274.418328 L166.437907,274.418328 C166.735936,274.414898 167.022939,274.531007 167.234892,274.740752 C167.446845,274.950498 167.566114,275.23643 167.566095,275.534764 C167.566095,276.158443 167.060988,276.664034 166.437907,276.664034 Z" id="Shape" fill="#FFFFFF" fill-rule="nonzero"></path>
                <g id="Group-2" transform="translate(113.951542, 191.673676)">
                    <mask id="mask-2" fill="white">
                        <use xlink:href="#path-1"></use>
                    </mask>
                    <use id="Mask" fill="#FFFFFF" fill-rule="nonzero" xlink:href="#path-1"></use>
                    <g id="Group" mask="url(#mask-2)" fill-rule="nonzero">
                        <g transform="translate(-34.614848, -28.231736)" id="Rectangle-path">
                            <rect fill="#C9E94D" transform="translate(56.226682, 21.974164) rotate(34.280000) translate(-56.226682, -21.974164) " x="53.8869751" y="10.469732" width="4.67941459" height="23.0088648"></rect>
                            <rect fill="#EFB259" transform="translate(63.727385, 27.100372) rotate(34.280000) translate(-63.727385, -27.100372) " x="60.2787204" y="15.5959394" width="6.89732891" height="23.0088648"></rect>
                            <rect fill="#EFB259" transform="translate(45.860620, 14.893464) rotate(34.280000) translate(-45.860620, -14.893464) " x="38.0979196" y="3.38903203" width="15.5254002" height="23.0088648"></rect>
                            <rect fill="#EFB259" transform="translate(71.289183, 32.247418) rotate(34.280000) translate(-71.289183, -32.247418) " x="67.8405189" y="20.7429859" width="6.89732891" height="23.0088648"></rect>
                            <rect fill="#EFB259" transform="translate(40.635642, 61.026829) rotate(34.280000) translate(-40.635642, -61.026829) " x="37.1869779" y="33.4816373" width="6.89732891" height="55.0903828"></rect>
                            <rect fill="#C9E94D" transform="translate(34.732226, 37.581504) rotate(34.280000) translate(-34.732226, -37.581504) " x="23.4054784" y="26.0770713" width="22.6534948" height="23.0088648"></rect>
                            <rect fill="#C9E94D" transform="translate(18.427773, 61.514508) rotate(34.280000) translate(-18.427773, -61.514508) " x="7.10102596" y="46.8981682" width="22.6534948" height="29.2326793"></rect>
                            <rect fill="#EFB259" transform="translate(57.216995, 52.917235) rotate(34.280000) translate(-57.216995, -52.917235) " x="53.7683306" y="41.4128029" width="6.89732891" height="23.0088648"></rect>
                            <rect fill="#EFB259" transform="translate(47.103122, 67.765100) rotate(34.280000) translate(-47.103122, -67.765100) " x="43.654458" y="63.3250174" width="6.89732891" height="8.8801642"></rect>
                            <rect fill="#EFB259" transform="translate(41.042041, 76.644596) rotate(34.280000) translate(-41.042041, -76.644596) " x="37.5933767" y="72.2045135" width="6.89732891" height="8.8801642"></rect>
                            <rect fill="#EFB259" transform="translate(35.085251, 85.396957) rotate(34.280000) translate(-35.085251, -85.396957) " x="31.6365864" y="81.1172827" width="6.89732891" height="8.55934902"></rect>
                            <rect fill="#BCDD33" transform="translate(33.327045, 30.420540) rotate(34.280000) translate(-33.327045, -30.420540) " x="29.1155714" y="26.2050287" width="8.42294627" height="8.43102295"></rect>
                            <rect fill="#BCDD33" transform="translate(41.906630, 36.284862) rotate(34.280000) translate(-41.906630, -36.284862) " x="37.6951564" y="32.0693508" width="8.42294627" height="8.43102295"></rect>
                            <rect fill="#BCDD33" transform="translate(27.557822, 38.878145) rotate(34.280000) translate(-27.557822, -38.878145) " x="23.3463489" y="34.6626335" width="8.42294627" height="8.43102295"></rect>
                            <rect fill="#BCDD33" transform="translate(36.137407, 44.742467) rotate(34.280000) translate(-36.137407, -44.742467) " x="31.9259339" y="40.5269556" width="8.42294627" height="8.43102295"></rect>
                            <rect fill="#D3923D" transform="translate(46.574139, 20.190779) rotate(34.280000) translate(-46.574139, -20.190779) " x="43.798541" y="14.0247113" width="5.55119594" height="12.3321355"></rect>
                            <rect fill="#D3923D" transform="translate(38.816688, 19.013029) rotate(34.280000) translate(-38.816688, -19.013029) " x="36.0410897" y="16.2347697" width="5.55119594" height="5.55651893"></rect>
                            <rect fill="#D3923D" transform="translate(49.729821, 9.264496) rotate(34.280000) translate(-49.729821, -9.264496) " x="43.4158166" y="5.72911297" width="12.6280092" height="7.07076658"></rect>
                            <rect fill="#D3923D" transform="translate(42.641894, 13.414855) rotate(34.280000) translate(-42.641894, -13.414855) " x="39.8662964" y="10.6365952" width="5.55119594" height="5.55651893"></rect>
                            <rect fill="#C9E94D" transform="translate(93.495368, 47.380579) rotate(34.280000) translate(-93.495368, -47.380579) " x="91.1556608" y="35.8761464" width="4.67941459" height="23.0088648"></rect>
                            <rect fill="#EFB259" transform="translate(100.985477, 52.499558) rotate(34.280000) translate(-100.985477, -52.499558) " x="97.5368128" y="40.995126" width="6.89732891" height="23.0088648"></rect>
                            <rect fill="#EFB259" transform="translate(83.109264, 40.310482) rotate(34.280000) translate(-83.109264, -40.310482) " x="75.3465641" y="28.80605" width="15.5254002" height="23.0088648"></rect>
                            <rect fill="#EFB259" transform="translate(108.537828, 57.664436) rotate(34.280000) translate(-108.537828, -57.664436) " x="105.089163" y="46.1600038" width="6.89732891" height="23.0088648"></rect>
                            <rect fill="#EFB259" transform="translate(86.900469, 73.182208) rotate(34.280000) translate(-86.900469, -73.182208) " x="83.4518042" y="61.6777756" width="6.89732891" height="23.0088648"></rect>
                            <rect fill="#C9E94D" transform="translate(62.950723, 76.260766) rotate(34.280000) translate(-62.950723, -76.260766) " x="51.6239754" y="48.7155749" width="22.6534948" height="55.0903828"></rect>
                            <rect fill="#EFB259" transform="translate(94.455046, 78.339858) rotate(34.280000) translate(-94.455046, -78.339858) " x="91.0063817" y="66.8354256" width="6.89732891" height="23.0088648"></rect>
                            <rect fill="#BCDD33" transform="translate(70.565096, 55.843163) rotate(34.280000) translate(-70.565096, -55.843163) " x="66.3536226" y="51.6276514" width="8.42294627" height="8.43102295"></rect>
                            <rect fill="#BCDD33" transform="translate(79.151902, 61.696882) rotate(34.280000) translate(-79.151902, -61.696882) " x="74.9404285" y="57.48137" width="8.42294627" height="8.43102295"></rect>
                            <rect fill="#BCDD33" transform="translate(64.806467, 64.307996) rotate(34.280000) translate(-64.806467, -64.307996) " x="60.5949934" y="60.0924841" width="8.42294627" height="8.43102295"></rect>
                            <rect fill="#BCDD33" transform="translate(73.398872, 70.159485) rotate(34.280000) translate(-73.398872, -70.159485) " x="69.1873987" y="65.9439735" width="8.42294627" height="8.43102295"></rect>
                            <rect fill="#BCDD33" transform="translate(58.758206, 73.187492) rotate(34.280000) translate(-58.758206, -73.187492) " x="54.5467325" y="68.9719801" width="8.42294627" height="8.43102295"></rect>
                            <rect fill="#BCDD33" transform="translate(67.350611, 79.038981) rotate(34.280000) translate(-67.350611, -79.038981) " x="63.1391378" y="74.8234696" width="8.42294627" height="8.43102295"></rect>
                            <rect fill="#BCDD33" transform="translate(52.702724, 82.077591) rotate(34.280000) translate(-52.702724, -82.077591) " x="48.4912506" y="77.8620797" width="8.42294627" height="8.43102295"></rect>
                            <rect fill="#BCDD33" transform="translate(61.295129, 87.941913) rotate(34.280000) translate(-61.295129, -87.941913) " x="57.0836559" y="83.7264018" width="8.42294627" height="8.43102295"></rect>
                            <rect fill="#BCDD33" transform="translate(46.654463, 90.957087) rotate(34.280000) translate(-46.654463, -90.957087) " x="42.4429897" y="86.7415758" width="8.42294627" height="8.43102295"></rect>
                            <rect fill="#BCDD33" transform="translate(55.246868, 96.821409) rotate(34.280000) translate(-55.246868, -96.821409) " x="51.035395" y="92.6058979" width="8.42294627" height="8.43102295"></rect>
                            <rect fill="#D3923D" transform="translate(83.819411, 45.602798) rotate(34.280000) translate(-83.819411, -45.602798) " x="81.043813" y="39.4367305" width="5.55119594" height="12.3321355"></rect>
                            <rect fill="#D3923D" transform="translate(76.061960, 44.425048) rotate(34.280000) translate(-76.061960, -44.425048) " x="73.2863618" y="41.6467889" width="5.55119594" height="5.55651893"></rect>
                            <rect fill="#D3923D" transform="translate(86.991286, 34.681514) rotate(34.280000) translate(-86.991286, -34.681514) " x="80.6772815" y="31.1461309" width="12.6280092" height="7.07076658"></rect>
                            <rect fill="#D3923D" transform="translate(79.874346, 38.814041) rotate(34.280000) translate(-79.874346, -38.814041) " x="77.0987482" y="36.0357818" width="5.55119594" height="5.55651893"></rect>
                            <rect fill="#EFB259" transform="translate(74.469262, 99.593953) rotate(34.280000) translate(-74.469262, -99.593953) " x="66.4565654" y="85.0866903" width="16.0253924" height="29.0145249"></rect>
                            <rect fill="#D3923D" transform="translate(73.710819, 107.227142) rotate(34.280000) translate(-73.710819, -107.227142) " x="70.8518892" y="100.862169" width="5.71786002" height="12.7299464"></rect>
                            <rect fill="#D3923D" transform="translate(65.716876, 105.997976) rotate(34.280000) translate(-65.716876, -105.997976) " x="62.8579461" y="103.136304" width="5.71786002" height="5.72334283"></rect>
                            <rect fill="#D3923D" transform="translate(78.350678, 93.925340) rotate(34.280000) translate(-78.350678, -93.925340) " x="71.8379585" y="87.8362681" width="13.025439" height="12.1781443"></rect>
                            <rect fill="#D3923D" transform="translate(69.648773, 100.213741) rotate(34.280000) translate(-69.648773, -100.213741) " x="66.7898432" y="97.35207" width="5.71786002" height="5.72334283"></rect>
                        </g>
                    </g>
                </g>
                <path d="M136.925544,224.204336 C136.933153,220.608721 134.21102,217.595458 130.636206,217.242355 C127.061391,216.889252 123.803361,219.311824 123.108705,222.839574 C122.414049,226.367325 124.510017,229.846186 127.951325,230.877291 L129.964114,234.36776 L131.976903,230.877291 C134.916098,229.988701 136.926632,227.277613 136.925544,224.204336 Z" id="Shape" fill="#F26B0F" fill-rule="nonzero"></path>
                <ellipse id="Oval" fill="#FFFFFF" fill-rule="nonzero" cx="129.951294" cy="224.204336" rx="3.49994571" ry="3.50330177"></ellipse>
                <rect id="Rectangle-path" fill="#FFFFFF" fill-rule="nonzero" style="mix-blend-mode: soft-light;" x="181.706979" y="178.289267" width="246.060286" height="113.6969"></rect>
                <polygon id="Shape" fill="#FFFFFF" fill-rule="nonzero" opacity="0.7" points="322.691894 291.986167 287.218085 291.986167 239.847025 178.289267 275.320834 178.289267"></polygon>
                <polyline id="Shape" fill="#FFFFFF" fill-rule="nonzero" opacity="0.4" points="271.615763 291.986167 263.603067 291.986167 216.232007 178.289267 224.257523 178.289267"></polyline>
                <polygon id="Shape" fill="#FFFFFF" fill-rule="nonzero" opacity="0.5" points="343.524904 291.986167 330.486645 291.986167 283.115584 178.289267 296.166664 178.289267"></polygon>
                <rect id="Rectangle-path" fill="#232323" fill-rule="nonzero" x="426.972327" y="162.902971" width="10.2947121" height="3.49046917"></rect>
                <rect id="Rectangle-path" fill="#232323" fill-rule="nonzero" x="107.272158" y="162.902971" width="65.1271949" height="3.49046917"></rect>
                <rect id="Rectangle-path" fill="#424041" fill-rule="nonzero" x="172.399353" y="178.494589" width="254.572974" height="1.56557808"></rect>
                <rect id="Rectangle-path" fill="#575355" fill-rule="nonzero" x="172.399353" y="176.92901" width="254.572974" height="3.13115616"></rect>
                <rect id="Rectangle-path" fill="#424041" fill-rule="nonzero" x="172.399353" y="178.494589" width="254.572974" height="1.56557808"></rect>
                <rect id="Rectangle-path" fill="#575355" fill-rule="nonzero" x="172.399353" y="290.266598" width="254.572974" height="3.13115616"></rect>
                <rect id="Rectangle-path" fill="#424041" fill-rule="nonzero" x="172.399353" y="291.832176" width="254.572974" height="1.56557808"></rect>
                <path d="M469.804996,134.478746 L469.805014,336.258662 L464.317872,336.258662 L464.317902,134.478746 C464.314491,133.748193 464.602036,133.046391 465.116921,132.528604 C465.631807,132.010817 466.331588,131.719727 467.061449,131.719735 C467.789105,131.717631 468.486924,132.009053 468.997316,132.528189 C469.516691,133.043841 469.807653,133.746519 469.804996,134.478746 Z" id="Shape" fill="#7A7779" fill-rule="nonzero"></path>
                <path d="M469.804996,134.478746 L469.805014,336.258662 L467.061449,336.258662 L467.061449,131.719724 C467.789105,131.717631 468.486924,132.009053 468.997316,132.528189 C469.516691,133.043841 469.807653,133.746519 469.804996,134.478746 Z" id="Shape" fill="#424041" fill-rule="nonzero"></path>
                <path d="M477.945896,343.290931 L456.151362,343.290931 C456.151355,339.412122 459.288987,336.26574 463.164074,336.258662 L470.856262,336.258662 C472.730631,336.241543 474.534114,336.974876 475.865554,338.295542 C477.196993,339.616209 477.945974,341.414687 477.945896,343.290931 Z" id="Shape" fill="#575355" fill-rule="nonzero"></path>
                <path d="M477.945896,343.290931 L459.394901,343.290931 C459.394895,339.412122 462.532526,336.26574 466.407613,336.258662 L470.920364,336.258662 C474.800458,336.258662 477.945896,339.407116 477.945896,343.290931 Z" id="Shape" fill="#444143" fill-rule="nonzero"></path>
                <rect id="Rectangle-path" fill="#FFFFFF" fill-rule="nonzero" x="474.484411" y="147.401181" width="64.6784839" height="74.6986067" rx="7.47424304"></rect>
                <rect id="Rectangle-path" fill="#FFFFFF" fill-rule="nonzero" x="474.484411" y="235.176215" width="64.6784839" height="21.9052605" rx="2.97431284"></rect>
                <rect id="Rectangle-path" fill="#AB39D7" fill-rule="nonzero" x="477.510005" y="150.622166" width="58.6144754" height="68.4106291" rx="3.80763324"></rect>
                <rect id="Rectangle-path" fill="#AB39D7" fill-rule="nonzero" x="477.510005" y="237.832564" width="58.6144754" height="16.3872394" rx="1.51279705"></rect>
                <rect id="Rectangle-path" fill="#575355" fill-rule="nonzero" x="469.804996" y="154.279459" width="4.67941459" height="9.36780328"></rect>
                <rect id="Rectangle-path" fill="#575355" fill-rule="nonzero" x="469.804996" y="198.834271" width="4.67941459" height="9.36780328"></rect>
                <rect id="Rectangle-path" fill="#575355" fill-rule="nonzero" x="469.804996" y="242.157153" width="4.67941459" height="9.36780328"></rect>
                <path d="M518.778596,167.779362 C517.760619,166.755645 516.375496,166.182579 514.932501,166.188118 L498.714804,166.188118 C495.705607,166.188118 493.266171,168.629894 493.266171,171.641976 L520.355579,171.641976 C520.363575,170.195839 519.796168,168.805976 518.778596,167.779362 Z M497.432773,169.999403 C496.830933,169.999403 496.343046,169.511047 496.343046,168.908631 C496.343046,168.306214 496.830933,167.817859 497.432773,167.817859 C498.034612,167.817859 498.5225,168.306214 498.5225,168.908631 C498.5225,169.197922 498.407689,169.475364 498.203326,169.679923 C497.998963,169.884482 497.721786,169.999403 497.432773,169.999403 Z M512.522282,170.204724 C512.522282,170.544912 512.24677,170.820689 511.906907,170.820689 L501.573734,170.820689 C501.409469,170.824227 501.250884,170.760467 501.134704,170.644176 C501.018524,170.527884 500.954825,170.369147 500.958359,170.204724 L500.958359,167.638203 C500.958323,167.475994 501.023563,167.320607 501.139352,167.207122 C501.255141,167.093636 501.411717,167.031619 501.573734,167.03507 L511.906907,167.03507 C512.241825,167.034998 512.515305,167.303037 512.522282,167.638203 L512.522282,170.204724 Z M516.035048,169.999403 C515.593166,170.004607 515.191894,169.742173 515.019178,169.33502 C514.846462,168.927866 514.936504,168.456617 515.247129,168.141992 C515.557755,167.827367 516.027454,167.731669 516.436233,167.89972 C516.845012,168.067771 517.111924,168.466294 517.111955,168.908631 C517.111996,169.506071 516.631875,169.992374 516.035048,169.999403 Z" id="Shape" fill="#FFFFFF" fill-rule="nonzero"></path>
                <path d="M522.317002,173.797854 C521.608956,173.797854 521.034971,174.37239 521.034971,175.081115 L521.034971,176.364376 L520.355494,176.364376 L520.355494,172.168113 L493.266171,172.168113 L493.266171,176.428539 L492.625155,176.428539 L492.625155,175.145278 C492.625155,174.436553 492.05117,173.862017 491.343124,173.862017 C490.635077,173.862017 490.061092,174.436553 490.061092,175.145278 L490.061092,178.276434 C490.061092,178.98516 490.635077,179.559695 491.343124,179.559695 C492.05117,179.559695 492.625155,178.98516 492.625155,178.276434 L492.625155,176.993174 L493.266171,176.993174 L493.266171,191.109041 C493.328763,193.565626 495.336713,195.524257 497.791742,195.523458 L515.855564,195.523458 C518.354968,195.523458 520.381135,193.495348 520.381135,190.993548 L520.381135,176.87768 L521.00933,176.87768 L521.00933,178.160941 C521.00933,178.869666 521.583315,179.444201 522.291362,179.444201 C522.999408,179.444201 523.573393,178.869666 523.573393,178.160941 L523.573393,175.029785 C523.546371,174.351005 522.995545,173.810902 522.317002,173.797854 Z M507.304415,173.797854 C507.300967,173.635682 507.362924,173.478955 507.476301,173.363055 C507.589678,173.247155 507.744916,173.181852 507.906969,173.181889 L518.676033,173.181889 C519.015895,173.181889 519.291408,173.457666 519.291408,173.797854 L519.291408,180.919951 C519.291408,181.260139 519.015895,181.535916 518.676033,181.535916 L507.906969,181.535916 C507.744916,181.535953 507.589678,181.470651 507.476301,181.35475 C507.362924,181.23885 507.300967,181.082124 507.304415,180.919951 L507.304415,173.797854 Z M494.304616,173.797854 C494.304616,173.457666 494.580129,173.181889 494.919991,173.181889 L505.689055,173.181889 C505.853321,173.178352 506.011905,173.242112 506.128085,173.358403 C506.244265,173.474695 506.307964,173.633431 506.30443,173.797854 L506.30443,180.919951 C506.307964,181.084374 506.244265,181.243111 506.128085,181.359403 C506.011905,181.475694 505.853321,181.539454 505.689055,181.535916 L494.919991,181.535916 C494.756784,181.535916 494.600261,181.47102 494.484855,181.355504 C494.36945,181.239989 494.304616,181.083315 494.304616,180.919951 L494.304616,173.797854 Z M497.432773,192.37947 C496.46983,192.37947 495.68921,191.598101 495.68921,190.634235 C495.68921,189.670369 496.46983,188.889 497.432773,188.889 C498.395716,188.889 499.176336,189.670369 499.176336,190.634235 C499.162321,191.588064 498.385791,192.353908 497.432773,192.353804 L497.432773,192.37947 Z M511.291532,190.146596 L502.317312,190.146596 C502.014854,190.102553 501.790528,189.842982 501.790528,189.537047 C501.790528,189.231112 502.014854,188.971541 502.317312,188.927498 L511.291532,188.927498 C511.530188,188.892746 511.767127,189.000739 511.897624,189.203744 C512.028122,189.406749 512.028122,189.667345 511.897624,189.87035 C511.767127,190.073356 511.530188,190.181348 511.291532,190.146596 Z M516.035048,192.37947 C515.378795,192.435953 514.746757,192.117439 514.401247,191.55612 C514.055736,190.994802 514.055736,190.286501 514.401247,189.725182 C514.746757,189.163864 515.378795,188.84535 516.035048,188.901833 C516.936765,188.979443 517.629239,189.73474 517.629239,190.640651 C517.629239,191.546563 516.936765,192.30186 516.035048,192.37947 Z M518.701674,188.106211 L494.932812,188.106211 C494.630353,188.062169 494.406027,187.802598 494.406027,187.496663 C494.406027,187.190727 494.630353,186.931156 494.932812,186.887114 L518.701674,186.887114 C518.940329,186.852362 519.177268,186.960354 519.307766,187.163359 C519.438263,187.366365 519.438263,187.62696 519.307766,187.829966 C519.177268,188.032971 518.940329,188.140963 518.701674,188.106211 Z M518.701674,186.052994 L494.932812,186.052994 C494.60003,186.052994 494.330257,185.782963 494.330257,185.449862 C494.330257,185.116761 494.60003,184.846729 494.932812,184.846729 L518.701674,184.846729 C519.034456,184.846729 519.304228,185.116761 519.304228,185.449862 C519.304228,185.782963 519.034456,186.052994 518.701674,186.052994 Z" id="Shape" fill="#FFFFFF" fill-rule="nonzero"></path>
                <path d="M497.432773,195.857106 L502.304492,195.857106 L502.304492,197.024873 C502.304492,198.279317 501.288539,199.296245 500.035297,199.296245 L499.714789,199.296245 C498.461547,199.296245 497.445593,198.279317 497.445593,197.024873 L497.445593,195.857106 L497.432773,195.857106 Z" id="Shape" fill="#FFFFFF" fill-rule="nonzero"></path>
                <path d="M511.163329,195.857106 L516.035048,195.857106 L516.035048,197.024873 C516.035048,198.279317 515.019095,199.296245 513.765853,199.296245 L513.445345,199.296245 C512.192103,199.296245 511.176149,198.279317 511.176149,197.024873 L511.176149,195.857106 L511.163329,195.857106 Z" id="Shape" fill="#FFFFFF" fill-rule="nonzero"></path>
                <path d="M529.111769,208.445894 L484.535537,208.445894 C483.947859,208.445894 483.471451,207.969029 483.471451,207.380787 C483.478472,206.797563 483.952829,206.328471 484.535537,206.328514 L529.111769,206.328514 C529.692367,206.328514 530.163034,206.799633 530.163034,207.380787 C530.163077,207.964054 529.694434,208.438867 529.111769,208.445894 Z" id="Shape" fill="#FFFFFF" fill-rule="nonzero" opacity="0.6"></path>
                <path d="M529.111769,212.436835 L484.535537,212.436835 C483.952829,212.436877 483.478472,211.967785 483.471451,211.384561 C483.471451,210.796319 483.947859,210.319454 484.535537,210.319454 L529.111769,210.319454 C529.694434,210.326482 530.163077,210.801294 530.163034,211.384561 C530.163034,211.663641 530.052276,211.931291 529.855126,212.128631 C529.657975,212.32597 529.390582,212.436835 529.111769,212.436835 Z" id="Shape" fill="#FFFFFF" fill-rule="nonzero" opacity="0.6"></path>
                <path d="M497.753281,245.172816 L484.535537,245.172816 C483.947859,245.172816 483.471451,244.695951 483.471451,244.107709 C483.478472,243.524485 483.952829,243.055393 484.535537,243.055436 L497.753281,243.055436 C498.335989,243.055393 498.810346,243.524485 498.817367,244.107709 C498.817367,244.695951 498.340959,245.172816 497.753281,245.172816 Z" id="Shape" fill="#FFFFFF" fill-rule="nonzero" opacity="0.6"></path>
                <path d="M529.111769,245.172816 L501.125023,245.172816 C500.542358,245.165788 500.073715,244.690976 500.073758,244.107709 C500.059712,243.819846 500.164238,243.538816 500.362931,243.33023 C500.561625,243.121644 500.837093,243.003762 501.125023,243.004105 L529.086128,243.004105 C529.666726,243.004105 530.137394,243.475224 530.137394,244.056379 C530.151292,244.341082 530.050602,244.619482 529.857849,244.829302 C529.665096,245.039122 529.396365,245.162853 529.111769,245.172816 Z" id="Shape" fill="#FFFFFF" fill-rule="nonzero" opacity="0.6"></path>
                <path d="M529.111769,249.176589 L484.535537,249.176589 C483.947859,249.176589 483.471451,248.699725 483.471451,248.111483 C483.47143,247.830165 483.583946,247.560552 483.783878,247.362839 C483.98381,247.165126 484.254509,247.055778 484.535537,247.059209 L529.111769,247.059209 C529.692367,247.059209 530.163034,247.530328 530.163034,248.111483 C530.163077,248.69475 529.694434,249.169562 529.111769,249.176589 Z" id="Shape" fill="#FFFFFF" fill-rule="nonzero" opacity="0.6"></path>
                <rect id="Rectangle-2" fill="#8E8C90" fill-rule="nonzero" x="30" y="352" width="541" height="42" rx="21"></rect>
                <path d="M547.380716,351.657791 L547.380716,352.081267 C547.380716,358.275526 542.364087,363.296965 536.175762,363.296965 L63.5164268,363.296965 C57.3281013,363.296965 52.3114724,358.275526 52.3114724,352.081267 L52.3114724,351.670623 C52.7337449,351.586988 53.1630476,351.544017 53.5935038,351.542297 L545.996122,351.542297 C546.460395,351.532974 546.924388,351.571677 547.380716,351.657791 Z" id="Shape" fill="#575355" fill-rule="nonzero"></path>
                <path d="M535.368082,359.780831 L64.3241065,359.780831 C59.7713683,359.780831 56.0806447,356.086568 56.0806447,351.529464 C56.0806447,346.972361 59.7713683,343.278098 64.3241065,343.278098 L535.368082,343.278098 C539.92082,343.278098 543.611544,346.972361 543.611544,351.529464 C543.611544,353.717863 542.743039,355.81663 541.19709,357.364062 C539.651141,358.911493 537.554384,359.780831 535.368082,359.780831 Z" id="Shape" fill="#7C797B" fill-rule="nonzero"></path>
                <path d="M83.0417649,378.413777 L79.5289989,378.413777 C78.8452486,378.414633 78.2811545,377.878229 78.2469675,377.194679 C78.2469675,376.485954 78.8209525,375.911418 79.5289989,375.911418 L83.0417649,375.911418 C83.7498113,375.911418 84.3237963,376.485954 84.3237963,377.194679 C84.2896093,377.878229 83.7255152,378.414633 83.0417649,378.413777 Z" id="Shape" fill="#6D6A6C" fill-rule="nonzero"></path>
                <path d="M153.553492,386.30583 L150.053546,386.30583 C149.729481,386.3093 149.417677,386.181974 149.188516,385.952592 C148.959354,385.723211 148.83215,385.411108 148.835616,385.086732 C148.834761,384.402326 149.37065,383.837691 150.053546,383.803472 L153.553492,383.803472 C154.261538,383.803472 154.835523,384.378007 154.835523,385.086732 C154.83978,385.422675 154.703873,385.745174 154.460529,385.976572 C154.217185,386.207971 153.888453,386.327302 153.553492,386.30583 Z" id="Shape" fill="#6D6A6C" fill-rule="nonzero"></path>
                <path d="M132.066645,370.598719 L128.553879,370.598719 C127.870129,370.599575 127.306035,370.063172 127.271848,369.379621 C127.271848,368.670896 127.845833,368.09636 128.553879,368.09636 L132.066645,368.09636 C132.774692,368.09636 133.348677,368.670896 133.348677,369.379621 C133.31449,370.063172 132.750396,370.599575 132.066645,370.598719 Z" id="Shape" fill="#6D6A6C" fill-rule="nonzero"></path>
                <path d="M237.090657,371.817816 L233.577891,371.817816 C232.919044,371.78559 232.392157,371.258198 232.359962,370.598719 C232.392157,369.939239 232.919044,369.411848 233.577891,369.379621 L237.090657,369.379621 C237.749505,369.411848 238.276392,369.939239 238.308587,370.598719 C238.276392,371.258198 237.749505,371.78559 237.090657,371.817816 Z" id="Shape" fill="#6D6A6C" fill-rule="nonzero"></path>
                <path d="M252.141706,384.996904 L248.64176,384.996904 C247.95801,384.99776 247.393916,384.461357 247.359729,383.777806 C247.393916,383.094256 247.95801,382.557853 248.64176,382.558709 L252.141706,382.558709 C252.476667,382.537237 252.805399,382.656568 253.048743,382.887966 C253.292088,383.119365 253.427994,383.441864 253.423737,383.777806 C253.38955,384.461357 252.825456,384.99776 252.141706,384.996904 Z" id="Shape" fill="#6D6A6C" fill-rule="nonzero"></path>
                <path d="M365.152773,374.256012 L361.640007,374.256012 C360.98116,374.223785 360.454273,373.696394 360.422078,373.036914 C360.454273,372.377435 360.98116,371.850043 361.640007,371.817816 L365.152773,371.817816 C365.811621,371.850043 366.338508,372.377435 366.370703,373.036914 C366.338508,373.696394 365.811621,374.223785 365.152773,374.256012 Z" id="Shape" fill="#6D6A6C" fill-rule="nonzero"></path>
                <path d="M447.279705,387.332439 L443.766939,387.332439 C443.084043,387.298219 442.548154,386.733584 442.549009,386.049178 C442.581204,385.389698 443.108091,384.862307 443.766939,384.83008 L447.279705,384.83008 C447.938552,384.862307 448.465439,385.389698 448.497634,386.049178 C448.519086,386.384461 448.399869,386.713507 448.168692,386.957085 C447.937515,387.200663 447.615325,387.3367 447.279705,387.332439 Z" id="Shape" fill="#6D6A6C" fill-rule="nonzero"></path>
                <path d="M469.381926,382.969352 L465.86916,382.969352 C465.210312,382.937126 464.683426,382.409734 464.65123,381.750254 C464.683426,381.090775 465.210312,380.563383 465.86916,380.531157 L469.381926,380.531157 C470.040774,380.563383 470.56766,381.090775 470.599856,381.750254 C470.56766,382.409734 470.040774,382.937126 469.381926,382.969352 Z" id="Shape" fill="#6D6A6C" fill-rule="nonzero"></path>
                <path d="M519.291408,366.877263 L515.791462,366.877263 C515.132615,366.845036 514.605728,366.317644 514.573533,365.658165 C514.570066,365.333789 514.69727,365.021687 514.926432,364.792305 C515.155594,364.562924 515.467397,364.435598 515.791462,364.439067 L519.291408,364.439067 C519.615473,364.435598 519.927277,364.562924 520.156438,364.792305 C520.3856,365.021687 520.512804,365.333789 520.509338,365.658165 C520.477142,366.317644 519.950256,366.845036 519.291408,366.877263 Z" id="Shape" fill="#6D6A6C" fill-rule="nonzero"></path>
                <path d="M138.489623,351.542297 L181.437675,351.542297 C182.322732,351.542297 183.040214,352.260466 183.040214,353.146373 L183.040214,359.780831 L136.887084,359.780831 L136.887084,353.13354 C136.894124,352.252649 137.609547,351.542269 138.489623,351.542297 Z" id="Shape" fill="#575355" fill-rule="nonzero"></path>
                <path d="M142.4511,359.780831 L140.643436,359.780831 L140.643436,353.492853 C140.643436,352.996746 141.045225,352.594571 141.540857,352.594571 C141.781082,352.591135 142.012652,352.684257 142.183735,352.853091 C142.354817,353.021926 142.451124,353.252374 142.4511,353.492853 L142.4511,359.780831 Z" id="Shape" fill="#C6C6C6" fill-rule="nonzero"></path>
                <path d="M148.56639,359.780831 L146.758725,359.780831 L146.758725,353.492853 C146.758725,352.996746 147.160515,352.594571 147.656147,352.594571 C147.896372,352.591135 148.127942,352.684257 148.299024,352.853091 C148.470107,353.021926 148.566414,353.252374 148.56639,353.492853 L148.56639,359.780831 Z" id="Shape" fill="#C6C6C6" fill-rule="nonzero"></path>
                <path d="M154.732961,359.780831 L152.925296,359.780831 L152.925296,353.492853 C152.925296,352.996746 153.327086,352.594571 153.822718,352.594571 C154.062943,352.591135 154.294513,352.684257 154.465595,352.853091 C154.636678,353.021926 154.732985,353.252374 154.732961,353.492853 L154.732961,359.780831 Z" id="Shape" fill="#C6C6C6" fill-rule="nonzero"></path>
                <path d="M160.873891,359.780831 L159.053406,359.780831 L159.053406,353.492853 C159.053382,353.252374 159.149689,353.021926 159.320772,352.853091 C159.491854,352.684257 159.723424,352.591135 159.963649,352.594571 C160.203873,352.591135 160.435443,352.684257 160.606526,352.853091 C160.777608,353.021926 160.873915,353.252374 160.873891,353.492853 L160.873891,359.780831 Z" id="Shape" fill="#C6C6C6" fill-rule="nonzero"></path>
                <path d="M166.835337,359.780831 L165.232798,359.780831 L165.232798,353.492853 C165.162494,353.27033 165.208819,353.027332 165.356043,352.846357 C165.503267,352.665382 165.731613,352.570743 165.963556,352.594571 C166.20378,352.591135 166.43535,352.684257 166.606433,352.853091 C166.777515,353.021926 166.873822,353.252374 166.873798,353.492853 L166.835337,359.780831 Z" id="Shape" fill="#C6C6C6" fill-rule="nonzero"></path>
                <path d="M173.155752,359.780831 L171.155783,359.780831 L171.155783,353.492853 C171.155758,353.252374 171.252066,353.021926 171.423148,352.853091 C171.59423,352.684257 171.8258,352.591135 172.066025,352.594571 C172.576087,352.648831 173.004744,353.002181 173.155752,353.492853 L173.155752,359.780831 Z" id="Shape" fill="#C6C6C6" fill-rule="nonzero"></path>
                <path d="M179.335143,359.780831 L177.514658,359.780831 L177.514658,353.492853 C177.514634,353.252374 177.610941,353.021926 177.782024,352.853091 C177.953106,352.684257 178.184676,352.591135 178.424901,352.594571 C178.665125,352.591135 178.896696,352.684257 179.067778,352.853091 C179.23886,353.021926 179.335168,353.252374 179.335143,353.492853 L179.335143,359.780831 Z" id="Shape" fill="#C6C6C6" fill-rule="nonzero"></path>
                <path d="M299.640969,251.717445 L299.423024,251.024485" id="Shape"></path>
                <path d="M300.615313,254.848602 L300.410188,254.168473" id="Shape"></path>
                <path d="M301.589657,257.979758 L301.384532,257.29963" id="Shape"></path>
                <path d="M302.564001,261.136579 L302.346055,260.443618" id="Shape"></path>
                <path d="M304.512688,267.411724 L304.307563,266.718763" id="Shape"></path>
                <path d="M306.474197,273.699702 L306.256251,273.006741" id="Shape"></path>
                <path d="M307.43572,276.830858 L307.230595,276.15073" id="Shape"></path>
                <path d="M308.422884,279.987679 L308.204939,279.294718" id="Shape"></path>
                <path d="M309.397228,283.118835 L309.179283,282.438707" id="Shape"></path>
                <path d="M329.332816,262.804818 L329.332816,262.150355" id="Shape"></path>
                <path d="M329.332816,268.759148 L329.332816,268.117517" id="Shape"></path>
                <path d="M329.332816,280.693473 L329.332816,280.051842" id="Shape"></path>
                <path d="M329.332816,283.68347 L329.332816,283.029007" id="Shape"></path>
                <path d="M534.342457,294.514191 L534.342457,343.278098 L525.175932,343.278098 L525.175932,340.53192 L492.43285,340.53192 L492.43285,343.265265 L483.266326,343.265265 L483.266326,294.501358 C483.266326,280.383549 494.700107,268.938804 508.804391,268.938804 C522.908675,268.938804 534.342457,280.383549 534.342457,294.501358 L534.342457,294.514191 Z" id="Shape" fill="#F26B0F" fill-rule="nonzero"></path>
                <rect id="Rectangle-path" fill="#C65509" fill-rule="nonzero" x="489.509819" y="293.538912" width="38.589145" height="6.9296079" rx="3.46148477"></rect>
                <path d="M524.560557,299.839723 L493.150788,299.839723 C492.397134,299.843136 491.673178,299.545851 491.139057,299.013626 C490.604936,298.481401 490.304671,297.758101 490.304678,297.003716 C490.30125,296.247111 490.600006,295.520502 491.1345,294.985495 C491.668994,294.450489 492.394907,294.151446 493.150788,294.154878 L524.560557,294.154878 C525.316438,294.151446 526.042351,294.450489 526.576845,294.985495 C527.111339,295.520502 527.410095,296.247111 527.406667,297.003716 C527.406675,297.758101 527.106409,298.481401 526.572288,299.013626 C526.038167,299.545851 525.314211,299.843136 524.560557,299.839723 Z" id="Shape" fill="#AA4A09" fill-rule="nonzero"></path>
                <path d="M520.906768,311.016923 L496.689195,311.016923 C495.981148,311.016923 495.407163,310.442388 495.407163,309.733663 C495.407163,309.024937 495.981148,308.450402 496.689195,308.450402 L520.906768,308.450402 C521.257748,308.432814 521.600554,308.560209 521.85503,308.8028 C522.109506,309.04539 522.25334,309.381906 522.252901,309.733663 C522.25334,310.085419 522.109506,310.421935 521.85503,310.664526 C521.600554,310.907116 521.257748,311.034512 520.906768,311.016923 Z" id="Shape" fill="#C65509" fill-rule="nonzero"></path>
                <path d="M520.906768,315.636662 L496.689195,315.636662 C496.337775,315.637102 496.001582,315.49313 495.759223,315.23841 C495.516865,314.983689 495.389592,314.640555 495.407163,314.289238 C495.407163,313.580513 495.981148,313.005978 496.689195,313.005978 L520.906768,313.005978 C521.257748,312.988389 521.600554,313.115785 521.85503,313.358375 C522.109506,313.600966 522.25334,313.937482 522.252901,314.289238 C522.271523,314.651991 522.135689,315.005651 521.879092,315.262495 C521.622494,315.519338 521.269173,315.655302 520.906768,315.636662 Z" id="Shape" fill="#C65509" fill-rule="nonzero"></path>
                <path d="M520.906768,320.243568 L496.689195,320.243568 C496.337775,320.244008 496.001582,320.100036 495.759223,319.845316 C495.516865,319.590595 495.389592,319.247461 495.407163,318.896144 C495.407163,318.187419 495.981148,317.612884 496.689195,317.612884 L520.906768,317.612884 C521.257748,317.595295 521.600554,317.722691 521.85503,317.965281 C522.109506,318.207872 522.25334,318.544388 522.252901,318.896144 C522.271523,319.258897 522.135689,319.612557 521.879092,319.869401 C521.622494,320.126244 521.269173,320.262208 520.906768,320.243568 Z" id="Shape" fill="#C65509" fill-rule="nonzero"></path>
                <path d="M515.124806,280.808966 L515.124806,281.360768 L508.817212,284.517589 L502.483977,281.296605 L502.483977,280.808966 C502.483977,280.376644 502.834107,280.026177 503.266016,280.026177 L514.368408,280.026177 C514.572426,280.029552 514.766746,280.113928 514.908604,280.260735 C515.050463,280.407543 515.128235,280.604753 515.124806,280.808966 Z" id="Shape" fill="#FFFFFF" fill-rule="nonzero"></path>
                <path d="M508.817212,284.9154 L515.137626,281.771412 L515.137626,287.315098 C515.137626,287.740333 514.793235,288.085054 514.368408,288.085054 L503.266016,288.085054 C503.059794,288.088495 502.86083,288.008896 502.713789,287.864127 C502.566748,287.719358 502.483948,287.521546 502.483977,287.315098 L502.483977,281.694416 L508.817212,284.9154 Z" id="Shape" fill="#FFFFFF" fill-rule="nonzero"></path>
                <path d="M495.830234,272.519102 C490.310218,277.494417 487.117342,284.551531 487.022678,291.986167 L487.022678,343.316596 L483.266308,343.316596 L483.266326,294.552688 C483.255615,285.498008 488.035918,277.11469 495.830234,272.519102 Z" id="Shape" fill="#F48337" fill-rule="nonzero"></path>
                <path d="M521.81701,272.519102 C527.332275,277.496692 530.520365,284.553499 530.611745,291.986167 L530.611745,343.316596 L534.368125,343.316596 L534.368097,294.552688 C534.381482,285.500626 529.606398,277.117908 521.81701,272.519102 Z" id="Shape" fill="#DD600B" fill-rule="nonzero"></path>
            </g>
        </g>
    </g>
</svg>