<?xml version="1.0" encoding="UTF-8"?>
<svg width="779px" height="450px" viewBox="0 0 779 450" version="1.1" xmlns="http://www.w3.org/2000/svg" xmlns:xlink="http://www.w3.org/1999/xlink">
    <!-- Generator: Sketch 52 (66869) - http://www.bohemiancoding.com/sketch -->
    <title>318322-P9A6XZ-853 Copy 5</title>
    <desc>Created with Sketch.</desc>
    <defs>
        <path d="M1.52561736,0.115493465 L50.2428104,0.115493465 C51.0712247,0.115493465 51.7427871,0.787055923 51.7427871,1.6154702 L51.7427871,60.8408292 C51.7427871,61.6692435 51.0712247,62.3408059 50.2428104,62.3408059 L1.52561736,62.3408059 C0.697203086,62.3408059 0.0256406279,61.6692435 0.0256406279,60.8408292 L0.0256406279,1.6154702 C0.0256406279,0.787055923 0.697203086,0.115493465 1.52561736,0.115493465 Z" id="path-1"></path>
    </defs>
    <g id="illustration" stroke="none" stroke-width="1" fill="none" fill-rule="evenodd">
        <g id="Artboard" transform="translate(0.000000, -70.000000)">
            <g id="318322-P9A6XZ-853-Copy-5" transform="translate(0.000000, 70.000000)">
                <g id="OBJECTS">
                    <path d="M652,434 C618,451.765578 169.059534,456.668624 126,434 C78.1420243,408.805244 87.3468117,322.379509 100,273 C112.653188,223.620491 202,38 401,38 C600,38 673.308774,237.51155 683,302 C692.691226,366.48845 686,416.234422 652,434 Z" id="Shape" fill="#FFFFFF" fill-rule="nonzero"></path>
                    <polygon id="Shape" fill="#A7BACD" fill-rule="nonzero" points="177.092938 391.607403 177.092938 270.339265 244.617531 270.339265 244.617531 370.253945 324.962439 370.253945 324.962439 150.790696 403.589424 150.790696 403.589424 313.418328 443.755468 313.418328 443.755468 199.926749 506.151936 131.708609 506.151936 223.744068 603.586322 223.744068 603.586322 407.160523 177.092938 407.160523"></polygon>
                    <polygon id="Shape" fill="#7F929E" fill-rule="nonzero" points="643.239553 329.266598 643.239553 419.531157 135.452558 419.531157 135.452558 339.442855 177.092938 339.442855 177.092938 374.386045 220.310216 374.386045 220.310216 247.445894 259.014744 247.445894 259.014744 350.222245 268.25819 350.222245 268.25819 177.559515 346.987738 177.559515 346.987738 402.296965 385.602524 402.296965 385.602524 276.832564 465.537181 276.832564 465.537181 372.448321 522.831164 372.448321 522.831164 161.326267 591.560867 161.326267 591.560867 329.266598"></polygon>
                    <polygon id="Rectangle-path" fill="#DAE2F5" fill-rule="nonzero" points="268.25819 191.251907 324.962439 191.251907 324.962439 197.96336 268.25819 197.96336"></polygon>
                    <polygon id="Rectangle-path" fill="#DAE2F5" fill-rule="nonzero" points="268.25819 208.203781 324.962439 208.203781 324.962439 214.915234 268.25819 214.915234"></polygon>
                    <polygon id="Rectangle-path" fill="#DAE2F5" fill-rule="nonzero" points="268.25819 225.168488 324.962439 225.168488 324.962439 231.879941 268.25819 231.879941"></polygon>
                    <polygon id="Rectangle-path" fill="#DAE2F5" fill-rule="nonzero" points="268.25819 242.120362 324.962439 242.120362 324.962439 248.831815 268.25819 248.831815"></polygon>
                    <polygon id="Rectangle-path" fill="#DAE2F5" fill-rule="nonzero" points="268.25819 259.085069 324.962439 259.085069 324.962439 265.796522 268.25819 265.796522"></polygon>
                    <polygon id="Rectangle-path" fill="#DAE2F5" fill-rule="nonzero" points="268.25819 276.049775 324.962439 276.049775 324.962439 282.761229 268.25819 282.761229"></polygon>
                    <polygon id="Rectangle-path" fill="#DAE2F5" fill-rule="nonzero" points="268.25819 293.001649 324.962439 293.001649 324.962439 299.713103 268.25819 299.713103"></polygon>
                    <polygon id="Rectangle-path" fill="#DAE2F5" fill-rule="nonzero" points="268.25819 309.966356 324.962439 309.966356 324.962439 316.67781 268.25819 316.67781"></polygon>
                    <polygon id="Rectangle-path" fill="#DAE2F5" fill-rule="nonzero" points="268.25819 326.931063 324.962439 326.931063 324.962439 333.642517 268.25819 333.642517"></polygon>
                    <polygon id="Rectangle-path" fill="#DAE2F5" fill-rule="nonzero" points="392.269087 284.673287 400.589471 284.673287 400.589471 293.001649 392.269087 293.001649"></polygon>
                    <polygon id="Rectangle-path" fill="#DAE2F5" fill-rule="nonzero" points="406.576557 284.673287 414.896941 284.673287 414.896941 293.001649 406.576557 293.001649"></polygon>
                    <polygon id="Rectangle-path" fill="#DAE2F5" fill-rule="nonzero" points="420.896848 284.673287 429.217232 284.673287 429.217232 293.001649 420.896848 293.001649"></polygon>
                    <polygon id="Rectangle-path" fill="#DAE2F5" fill-rule="nonzero" points="435.217139 284.673287 443.537522 284.673287 443.537522 293.001649 435.217139 293.001649"></polygon>
                    <polygon id="Rectangle-path" fill="#DAE2F5" fill-rule="nonzero" points="449.524609 284.673287 457.844993 284.673287 457.844993 293.001649 449.524609 293.001649"></polygon>
                    <polygon id="Rectangle-path" fill="#DAE2F5" fill-rule="nonzero" points="392.269087 298.147525 400.589471 298.147525 400.589471 306.475887 392.269087 306.475887"></polygon>
                    <polygon id="Rectangle-path" fill="#DAE2F5" fill-rule="nonzero" points="406.576557 298.147525 414.896941 298.147525 414.896941 306.475887 406.576557 306.475887"></polygon>
                    <polygon id="Rectangle-path" fill="#DAE2F5" fill-rule="nonzero" points="420.896848 298.147525 429.217232 298.147525 429.217232 306.475887 420.896848 306.475887"></polygon>
                    <polygon id="Rectangle-path" fill="#DAE2F5" fill-rule="nonzero" points="435.217139 298.147525 443.537522 298.147525 443.537522 306.475887 435.217139 306.475887"></polygon>
                    <polygon id="Rectangle-path" fill="#DAE2F5" fill-rule="nonzero" points="449.524609 298.147525 457.844993 298.147525 457.844993 306.475887 449.524609 306.475887"></polygon>
                    <polygon id="Rectangle-path" fill="#DAE2F5" fill-rule="nonzero" points="392.269087 311.621763 400.589471 311.621763 400.589471 319.950125 392.269087 319.950125"></polygon>
                    <polygon id="Rectangle-path" fill="#DAE2F5" fill-rule="nonzero" points="406.576557 311.621763 414.896941 311.621763 414.896941 319.950125 406.576557 319.950125"></polygon>
                    <polygon id="Rectangle-path" fill="#DAE2F5" fill-rule="nonzero" points="420.896848 311.621763 429.217232 311.621763 429.217232 319.950125 420.896848 319.950125"></polygon>
                    <polygon id="Rectangle-path" fill="#DAE2F5" fill-rule="nonzero" points="435.217139 311.621763 443.537522 311.621763 443.537522 319.950125 435.217139 319.950125"></polygon>
                    <polygon id="Rectangle-path" fill="#DAE2F5" fill-rule="nonzero" points="449.524609 311.621763 457.844993 311.621763 457.844993 319.950125 449.524609 319.950125"></polygon>
                    <polygon id="Rectangle-path" fill="#DAE2F5" fill-rule="nonzero" points="392.269087 325.096 400.589471 325.096 400.589471 333.424362 392.269087 333.424362"></polygon>
                    <polygon id="Rectangle-path" fill="#DAE2F5" fill-rule="nonzero" points="406.576557 325.096 414.896941 325.096 414.896941 333.424362 406.576557 333.424362"></polygon>
                    <polygon id="Rectangle-path" fill="#DAE2F5" fill-rule="nonzero" points="420.896848 325.096 429.217232 325.096 429.217232 333.424362 420.896848 333.424362"></polygon>
                    <polygon id="Rectangle-path" fill="#DAE2F5" fill-rule="nonzero" points="435.217139 325.096 443.537522 325.096 443.537522 333.424362 435.217139 333.424362"></polygon>
                    <polygon id="Rectangle-path" fill="#DAE2F5" fill-rule="nonzero" points="449.524609 325.096 457.844993 325.096 457.844993 333.424362 449.524609 333.424362"></polygon>
                    <polygon id="Rectangle-path" fill="#DAE2F5" fill-rule="nonzero" points="392.269087 338.570238 400.589471 338.570238 400.589471 346.8986 392.269087 346.8986"></polygon>
                    <polygon id="Rectangle-path" fill="#DAE2F5" fill-rule="nonzero" points="406.576557 338.570238 414.896941 338.570238 414.896941 346.8986 406.576557 346.8986"></polygon>
                    <polygon id="Rectangle-path" fill="#DAE2F5" fill-rule="nonzero" points="420.896848 338.570238 429.217232 338.570238 429.217232 346.8986 420.896848 346.8986"></polygon>
                    <polygon id="Rectangle-path" fill="#DAE2F5" fill-rule="nonzero" points="435.217139 338.570238 443.537522 338.570238 443.537522 346.8986 435.217139 346.8986"></polygon>
                    <polygon id="Rectangle-path" fill="#DAE2F5" fill-rule="nonzero" points="449.524609 338.570238 457.844993 338.570238 457.844993 346.8986 449.524609 346.8986"></polygon>
                    <g id="Group" transform="translate(0.875752, 0.115868)" fill-rule="nonzero">
                        <path d="M663.164704,133.538277 L536.705127,133.538277 C536.235048,131.640776 535.998256,129.692909 536.00001,127.737939 C536.009346,118.829744 540.88409,110.639654 548.70604,106.390451 C556.52799,102.141248 566.045039,102.513129 573.512248,107.359758 C582.962624,96.8165756 598.994942,95.4985132 610.037323,104.356928 C611.150141,99.6803054 614.907413,96.0966293 619.627786,95.2095697 C624.348158,94.3225102 629.148134,96.2980953 631.879758,100.252265 C634.611383,104.206434 634.763386,109.399098 632.267747,113.506577 C638.364432,115.454785 643.141719,120.236653 645.088061,126.339184 C648.355106,124.371437 652.354799,124.050563 655.893247,125.472341 C659.431696,126.894119 662.0996,129.894091 663.100602,133.576775 L663.164704,133.538277 Z" id="Shape" fill="#DFDFE7"></path>
                        <path d="M674.144302,205.169134 L600.440317,205.169134 C598.994955,199.51088 601.179974,193.545962 605.936863,190.164024 C610.693752,186.782086 617.040115,186.681568 621.901522,189.911164 C627.412386,183.776037 636.748251,183.010437 643.183243,188.165929 C643.926311,185.535272 646.112959,183.565771 648.804664,183.102749 C651.496368,182.639727 654.214445,183.765527 655.792276,185.996947 C657.370107,188.228367 657.527096,191.16858 656.195862,193.555624 C659.743166,194.688179 662.526452,197.464576 663.670105,201.011369 C665.574734,199.863331 667.907092,199.67611 669.970159,200.505658 C672.033226,201.335207 673.588038,203.085437 674.169942,205.233297 L674.144302,205.169134 Z" id="Shape" fill="#DBDBE4"></path>
                        <path d="M249.498555,133.61026 L155.525654,133.61026 C155.17434,132.200043 154.997802,130.7519 155.000021,129.298504 C155.011015,122.664804 158.650273,116.569779 164.481942,113.418194 C170.31361,110.266609 177.401188,110.564573 182.948305,114.194525 C189.974498,106.36854 201.880404,105.389034 210.08891,111.961651 C211.14766,107.489216 215.388451,104.522201 219.948358,105.063614 C224.508266,105.605028 227.937911,109.48278 227.921966,114.079031 C227.932376,115.728542 227.48882,117.349072 226.639935,118.762933 C231.173334,120.198793 234.732199,123.741945 236.191069,128.271895 C238.607612,126.839344 241.552151,126.612652 244.15913,127.658455 C246.76611,128.704258 248.739255,130.903704 249.498555,133.61026 Z" id="Shape" fill="#DBDBE4"></path>
                        <path d="M476.413415,66.2234996 C472.865857,66.2212931 469.385244,67.1856228 466.348234,69.0121336 C463.486948,60.1840982 456.868975,53.0588565 448.255608,49.532705 C457.349834,34.4372639 452.438021,14.8557912 437.284766,5.79626159 C422.131511,-3.26326798 402.475043,1.62980513 393.380816,16.7252463 C385.865812,4.08217142 370.878863,-2.10615248 356.588949,1.53336312 C342.299035,5.17287873 332.132659,17.767534 331.631238,32.4523218 C331.137241,32.4523218 330.622661,32.4523218 330.108082,32.4523218 C308.509293,32.4523218 291.000016,49.8947963 291.000016,71.4111791 C290.997199,74.5349401 291.377372,77.6473514 292.132091,80.6792861 L495.164704,80.6792861 C492.900427,72.2005395 485.220492,66.279906 476.413415,66.2234996 Z" id="Shape" fill="#DBDBE4"></path>
                        <path d="M407.973327,138.8055 C406.693759,138.802601 405.438239,139.153418 404.345178,139.819276 C403.298843,136.621498 400.911259,134.039498 397.806818,132.748509 C401.085072,127.255888 399.294239,120.14314 393.80688,116.861741 C388.31952,113.580343 381.213586,115.372894 377.935331,120.865515 C375.21665,116.290626 369.811676,114.055586 364.659898,115.37592 C359.50812,116.696253 355.841296,121.256276 355.653625,126.576025 L355.102352,126.576025 C347.313842,126.576025 341.000006,132.895914 341.000006,140.691893 C340.99891,141.825182 341.136689,142.954327 341.410257,144.054036 L414.716812,144.054036 C413.903946,140.98564 411.14456,138.837976 407.973327,138.8055 Z" id="Shape" fill="#D7D6E1"></path>
                        <path d="M133.934878,239.864871 C132.651496,239.863579 131.392278,240.21419 130.293909,240.878647 C129.247574,237.680869 126.85999,235.098869 123.755549,233.80788 C124.9388,231.962549 125.566341,229.81528 125.563213,227.622564 C125.59611,222.350049 122.05742,217.724611 116.963526,216.381872 C111.869631,215.039133 106.513933,217.320031 103.948164,221.924886 C101.223088,217.356468 95.8200596,215.127034 90.6703083,216.446089 C85.5205569,217.765144 81.8514907,222.3183 81.6536377,227.635396 L81.1023642,227.635396 C73.313854,227.635396 67.0000189,233.955286 67.0000189,241.751264 C66.9981436,242.8846 67.1359339,244.01384 67.4102689,245.113407 L140.793746,245.113407 C139.961888,242.008894 137.146018,239.854137 133.934878,239.864871 Z" id="Shape" fill="#DBDBE4"></path>
                        <path d="M66.934878,153.864871 C65.651496,153.863579 64.3922777,154.21419 63.2939089,154.878647 C62.2475739,151.680869 59.8599903,149.098869 56.7555488,147.80788 C57.9388002,145.962549 58.5663415,143.81528 58.563213,141.622564 C58.5961102,136.350049 55.0574202,131.724611 49.9635256,130.381872 C44.8696309,129.039133 39.5139327,131.320031 36.9481637,135.924886 C34.2230884,131.356468 28.8200596,129.127034 23.6703083,130.446089 C18.5205569,131.765144 14.8514907,136.3183 14.6536377,141.635396 L14.1023642,141.635396 C6.31385396,141.635396 1.88854692e-05,147.955286 1.88854692e-05,155.751264 C-0.00185639887,156.8846 0.135933919,158.01384 0.410268932,159.113407 L73.793746,159.113407 C72.9618878,156.008894 70.1460184,153.854137 66.934878,153.864871 Z" id="Shape-Copy" fill="#DBDBE4"></path>
                        <path d="M770.934878,167.864871 C769.651496,167.863579 768.392278,168.21419 767.293909,168.878647 C766.247574,165.680869 763.85999,163.098869 760.755549,161.80788 C761.9388,159.962549 762.566341,157.81528 762.563213,155.622564 C762.59611,150.350049 759.05742,145.724611 753.963526,144.381872 C748.869631,143.039133 743.513933,145.320031 740.948164,149.924886 C738.223088,145.356468 732.82006,143.127034 727.670308,144.446089 C722.520557,145.765144 718.851491,150.3183 718.653638,155.635396 L718.102364,155.635396 C710.313854,155.635396 704.000019,161.955286 704.000019,169.751264 C703.998144,170.8846 704.135934,172.01384 704.410269,173.113407 L777.793746,173.113407 C776.961888,170.008894 774.146018,167.854137 770.934878,167.864871 Z" id="Shape-Copy-2" fill="#DBDBE4"></path>
                    </g>
                    <path d="M197.233651,333.629684 L197.233651,382.919728 L174.580156,382.919728 L174.580156,333.629684 C174.580156,329.334809 178.058505,325.853124 182.349266,325.853124 L189.413259,325.853124 C191.482626,325.839451 193.47193,326.652725 194.94003,328.112598 C196.408131,329.57247 197.233696,331.558288 197.233651,333.629684 Z" id="Shape" fill="#565656" fill-rule="nonzero"></path>
                    <path d="M197.233651,333.629684 L197.233651,382.919728 L185.913314,382.919728 L185.913314,325.852954 L189.413259,325.853124 C191.482626,325.839451 193.47193,326.652725 194.94003,328.112598 C196.408131,329.57247 197.233696,331.558288 197.233651,333.629684 Z" id="Shape" fill="#3A3A3A" fill-rule="nonzero"></path>
                    <path d="M189.079931,325.853124 L182.477469,325.853124 L182.477469,134.069809 C182.258764,123.763915 187.626524,114.145794 196.508474,108.928614 C205.390425,103.711434 216.396966,103.711434 225.278916,108.928614 C234.160867,114.145794 239.528627,123.763915 239.309921,134.069809 L239.309921,135.455731 L232.694639,135.455731 L232.694639,134.069809 C232.694639,122.021478 222.936894,112.254377 210.900105,112.254377 C198.863317,112.254377 189.105572,122.021478 189.105572,134.069809 L189.079931,325.853124 Z" id="Shape" fill="#606060" fill-rule="nonzero"></path>
                    <path d="M228.758803,111.972059 C220.044426,106.147741 208.833848,105.600311 199.594468,110.547918 C190.355087,115.495525 184.588554,125.134049 184.592821,135.622554 L184.592821,325.853124 L182.477463,325.853124 L182.477469,134.069809 C182.470165,123.106347 188.762696,113.116049 198.648553,108.395892 C208.534409,103.675735 220.250983,105.067302 228.758803,111.972059 Z" id="Shape" fill="#7A7779" fill-rule="nonzero"></path>
                    <ellipse id="Oval" fill="#F7B935" fill-rule="nonzero" cx="236.963804" cy="156.064898" rx="5.26914904" ry="5.27420157"></ellipse>
                    <path d="M236.156124,131.708609 C239.066195,131.708609 241.425273,134.06995 241.425273,136.982811 L241.425273,141.961862 L230.89978,141.961862 L230.899795,136.995643 C230.896391,135.596837 231.44827,134.253969 232.434023,133.262457 C233.419777,132.270944 234.758657,131.712008 236.156124,131.708609 Z" id="Shape" fill="#606060" fill-rule="nonzero"></path>
                    <path d="M241.425273,136.995643 L241.425273,141.974695 L240.284265,141.974695 L240.284265,136.995643 C240.285437,135.596129 239.7322,134.253243 238.745827,133.261355 C237.887312,132.409523 236.767407,131.871635 235.56639,131.734259 L236.130483,131.734274 C237.528993,131.730856 238.871207,132.285431 239.860105,133.275278 C240.849003,134.265125 241.403048,135.608626 241.399632,137.008476 L241.425273,136.995643 Z" id="Shape" fill="#515151" fill-rule="nonzero"></path>
                    <path d="M257.066056,156.064898 L215.246192,156.064898 C217.560075,146.381004 226.208649,139.550451 236.156124,139.550451 C246.103599,139.550451 254.752173,146.381004 257.066056,156.064898 Z" id="Shape" fill="#606060" fill-rule="nonzero"></path>
                    <path d="M248.873875,156.064898 L215.246192,156.064898 C217.096565,148.268438 224.054269,142.764714 232.060034,142.764714 C240.065798,142.764714 247.023502,148.268438 248.873875,156.064898 Z" id="Shape" fill="#7A7779" fill-rule="nonzero"></path>
                    <path d="M257.066056,156.064898 L254.79686,156.064898 C252.598861,146.775352 244.539919,140.052256 235.015116,139.562161 C235.399725,139.562165 235.771515,139.562165 236.156124,139.562165 C246.101774,139.556182 254.751735,146.382985 257.066056,156.064898 Z" id="Shape" fill="#515151" fill-rule="nonzero"></path>
                    <path d="M257.271181,158.708415 L215.053887,158.708415 C214.345841,158.708415 213.771856,158.133879 213.771856,157.425154 C213.771856,156.716429 214.345841,156.141893 215.053887,156.141893 L257.284001,156.141893 C257.992048,156.141893 258.566033,156.716429 258.566033,157.425154 C258.56605,157.767731 258.429221,158.096093 258.186013,158.337124 C257.942806,158.578154 257.613413,158.711841 257.271181,158.708415 Z" id="Shape" fill="#515151" fill-rule="nonzero"></path>
                    <path d="M250.643079,158.708415 L215.053887,158.708415 C214.345841,158.708415 213.771856,158.133879 213.771856,157.425154 C213.771856,156.716429 214.345841,156.141893 215.053887,156.141893 L250.655899,156.141893 C251.363945,156.141893 251.93793,156.716429 251.93793,157.425154 C251.937948,157.767731 251.801118,158.096093 251.557911,158.337124 C251.314703,158.578154 250.98531,158.711841 250.643079,158.708415 Z" id="Shape" fill="#606060" fill-rule="nonzero"></path>
                    <path d="M232.656178,158.310604 L214.861582,158.310604 C214.493398,158.310604 214.194926,158.011846 214.194926,157.643308 C214.194892,157.467488 214.265536,157.299048 214.390941,157.175936 C214.516345,157.052825 214.685964,156.985398 214.861582,156.988845 L232.656178,156.988845 C232.831797,156.985398 233.001415,157.052825 233.12682,157.175936 C233.252225,157.299048 233.322868,157.467488 233.322835,157.643308 C233.322835,157.820286 233.252598,157.990015 233.127575,158.115158 C233.002553,158.2403 232.832987,158.310604 232.656178,158.310604 Z" id="Shape" fill="#7A7779" fill-rule="nonzero"></path>
                    <path d="M233.502319,359.602881 C232.209253,359.600687 230.919735,359.738367 229.656225,360.013524 C227.564807,353.399757 222.700799,348.024823 216.331788,345.289461 C209.962776,342.554099 202.719674,342.729273 196.490073,345.76933 C196.528381,342.898696 195.270683,340.163996 193.067049,338.326418 C190.79644,341.209242 190.166829,345.058401 191.400408,348.515508 C188.610615,346.417212 184.899639,346.008859 181.721071,347.450402 C183.009322,350.021531 185.249532,351.987622 187.964564,352.929925 C187.171886,353.997492 186.464575,355.125984 185.849212,356.304901 C185.369483,356.123997 184.861846,356.028453 184.349235,356.022584 C182.062433,356.026109 180.176935,357.817642 180.05443,360.103353 C174.681108,358.898887 169.052131,360.204337 164.755512,363.651418 C160.458893,367.098499 157.96045,372.313495 157.965029,377.825183 C157.970411,379.345527 158.168573,380.859039 158.554764,382.329428 L251.130251,382.329428 C251.516442,380.859039 251.714603,379.345527 251.719985,377.825183 C251.733673,372.985915 249.818301,368.341088 246.398483,364.9204 C242.978665,361.499712 238.33694,359.585774 233.502319,359.602881 Z" id="Shape" fill="#A5C437" fill-rule="nonzero"></path>
                    <path d="M265.489002,378.672135 C265.482298,379.889259 265.322934,381.100723 265.014651,382.278098 L190.695291,382.278098 C190.380771,381.101955 190.221301,379.889684 190.220939,378.672135 C190.212667,376.116489 190.885335,373.604854 192.169627,371.396047 C195.943345,364.806086 204.151987,362.238775 211.002668,365.50588 C213.116908,357.218905 220.459408,351.336045 229.000486,351.08591 C237.541564,350.835775 245.215123,356.278872 247.809789,364.427941 C248.842458,364.212277 249.896041,364.113274 250.950766,364.132791 C258.966256,364.153911 265.460831,370.648981 265.489002,378.672135 Z" id="Shape" fill="#83A127" fill-rule="nonzero"></path>
                    <path d="M222.566591,380.006727 C222.560978,380.773038 222.461957,381.5358 222.271724,382.278098 L175.451937,382.278098 C175.261704,381.5358 175.162683,380.773038 175.15707,380.006727 C175.151507,376.856276 176.761126,373.923277 179.420455,372.238115 C182.079783,370.552953 185.416894,370.351312 188.259431,371.70403 C189.32156,367.503204 192.553148,364.195402 196.725165,363.03864 C200.897181,361.881878 205.368503,363.053918 208.438605,366.109013 C209.829119,367.476184 210.863571,369.163736 211.451379,371.023901 C212.088081,370.890171 212.736684,370.821379 213.387246,370.81858 C218.453931,370.825648 222.55953,374.935184 222.566591,380.006727 Z" id="Shape" fill="#C9E94D" fill-rule="nonzero"></path>
                    <path d="M174.426312,363.375668 C172.758854,365.040396 171.901775,367.351573 172.080195,369.702143 C170.647265,367.859247 168.463889,366.757092 166.131569,366.699313 C166.131569,366.699313 166.131569,373.551925 173.977601,374.398877 C173.977601,374.398877 178.913422,369.04768 174.426312,363.375668 Z" id="Shape" fill="#C8E94B" fill-rule="nonzero"></path>
                    <path d="M212.566746,339.750838 C211.088795,340.309664 209.927788,341.485841 209.387308,342.971822 C209.024738,341.441161 207.993809,340.154798 206.57966,339.46852 C205.513358,342.113655 206.679658,345.133227 209.246285,346.372463 C211.823596,345.276823 213.229034,342.474115 212.566746,339.750838 Z" id="Shape" fill="#C8E94B" fill-rule="nonzero"></path>
                    <path d="M245.514953,353.237908 C243.988544,352.829242 242.360026,353.105606 241.053484,353.995032 C241.651272,352.541806 241.561765,350.89613 240.809898,349.516452 C238.400487,351.046593 237.597235,354.189589 238.976593,356.689879 C241.706028,357.293647 244.471467,355.833614 245.514953,353.237908 Z" id="Shape" fill="#C8E94B" fill-rule="nonzero"></path>
                    <path d="M228.579318,358.90992 C227.460182,360.027971 226.884278,361.579247 227.00242,363.157513 C226.044513,361.908669 224.574888,361.159007 223.002482,361.117129 C223.149427,363.948269 225.452916,366.186811 228.284451,366.250172 C230.145495,364.19769 230.269718,361.105341 228.579318,358.90992 Z" id="Shape" fill="#A5C437" fill-rule="nonzero"></path>
                    <path d="M221.464044,367.841415 C219.889499,367.984339 218.456196,368.809513 217.541028,370.099954 C217.585963,368.530428 216.933299,367.021753 215.759004,365.980687 C214.026167,368.250082 214.357588,371.477502 216.515403,373.346603 C219.288589,372.970952 221.382655,370.641378 221.464044,367.841415 Z" id="Shape" fill="#A5C437" fill-rule="nonzero"></path>
                    <path d="M253.078938,362.374724 C252.180368,362.564836 251.408523,363.136081 250.963587,363.940302 C250.900501,363.031816 250.428939,362.201071 249.681555,361.681763 C248.83206,363.100584 249.237145,364.936479 250.604618,365.865193 C252.170816,365.463401 253.217294,363.987158 253.078938,362.374724 Z" id="Shape" fill="#A5C437" fill-rule="nonzero"></path>
                    <path d="M192.913205,355.291125 C192.145614,356.674354 192.019202,358.323977 192.567057,359.808203 C191.287077,358.880179 189.655852,358.582879 188.131228,358.999748 C189.031348,361.705096 191.876982,363.244448 194.631127,362.515883 C195.90908,360.01217 195.180975,356.950109 192.913205,355.291125 Z" id="Shape" fill="#C8E94B" fill-rule="nonzero"></path>
                    <path d="M576.586741,379.750074 C576.586355,380.612622 576.496125,381.47278 576.317514,382.316596 L484.152277,382.316596 C479.392484,374.089942 481.213933,363.63078 488.473818,357.501353 C495.733703,351.371926 506.340357,351.338201 513.638999,357.421338 C519.054952,347.550374 530.403857,342.532331 541.34116,345.172521 C552.278464,347.812712 560.094736,357.4571 560.420325,368.714032 C564.065624,367.304649 568.170165,367.779085 571.39861,369.982991 C574.627056,372.186897 576.566784,375.838596 576.586741,379.750074 Z" id="Shape" fill="#A6C437" fill-rule="nonzero"></path>
                    <path d="M592.907,367.854247 C591.423952,367.854086 589.954061,368.132675 588.573734,368.675534 C588.248146,357.418602 580.431873,347.774214 569.49457,345.134024 C558.557266,342.493833 547.208361,347.511877 541.792409,357.38284 C538.291393,354.494831 533.893403,352.920021 529.356704,352.929925 C528.378003,352.934671 527.400993,353.011877 526.433673,353.160912 C527.44744,348.645166 525.953296,343.932875 522.523477,340.828777 C520.288976,343.612804 519.144935,347.116653 519.305578,350.684219 C516.713185,348.309053 513.276909,347.07469 509.767264,347.257913 C509.767264,347.257913 510.40828,354.585332 516.52357,357.72932 C509.451409,363.863641 507.705508,374.150139 512.356968,382.278098 L604.522205,382.278098 C604.700816,381.434282 604.791046,380.574124 604.791431,379.711577 C604.770239,373.156732 599.4556,367.854213 592.907,367.854247 Z" id="Shape" fill="#C8E94B" fill-rule="nonzero"></path>
                    <path d="M562.804903,380.815181 C562.802297,381.320129 562.746432,381.823391 562.638239,382.316596 L507.844217,382.316596 C505.035482,377.441484 506.109138,371.25365 510.395624,367.611999 C514.682111,363.970347 520.956321,363.915685 525.305485,367.482102 C528.53025,361.619524 535.274812,358.641067 541.774732,360.20914 C548.274653,361.777213 552.923098,367.504175 553.125566,374.193555 C555.299716,373.340929 557.754336,373.618831 559.683301,374.935996 C561.612267,376.253161 562.766314,378.439383 562.766442,380.776683 L562.804903,380.815181 Z" id="Shape" fill="#83A127" fill-rule="nonzero"></path>
                    <path d="M489.17784,368.855191 C489.433732,370.071961 490.003977,371.200272 490.831661,372.127506 C489.629998,372.249881 488.48323,372.693073 487.511199,373.410766 C489.801774,376.001438 493.731831,376.30797 496.395677,374.103727 C496.395677,374.103727 494.857239,368.50871 489.17784,368.855191 Z" id="Shape" fill="#83A127" fill-rule="nonzero"></path>
                    <path d="M504.792983,356.689879 C504.283649,357.395536 503.969637,358.223376 503.88274,359.089577 C503.260953,358.523804 502.499831,358.134019 501.677646,357.960307 C501.433505,360.366478 503.131367,362.536161 505.52374,362.875196 C506.737953,360.892242 506.435789,358.334646 504.792983,356.689879 Z" id="Shape" fill="#83A127" fill-rule="nonzero"></path>
                    <path d="M542.984698,349.477954 C541.789524,349.812795 540.702405,350.454192 539.830901,351.338682 C539.62888,350.154575 539.120571,349.044073 538.356564,348.117698 C535.88467,350.584593 535.839078,354.577724 538.254002,357.100523 C538.254002,357.100523 543.702635,355.149966 542.984698,349.477954 Z" id="Shape" fill="#83A127" fill-rule="nonzero"></path>
                    <path d="M560.125458,359.923696 C559.25768,360.815937 558.642643,361.92318 558.343434,363.131848 C557.568843,362.208105 556.565222,361.504455 555.433223,361.091463 C554.607946,364.429706 556.558742,367.825648 559.856231,368.791028 C559.856231,368.791028 563.586942,364.427941 560.125458,359.923696 Z" id="Shape" fill="#A6C437" fill-rule="nonzero"></path>
                    <path d="M573.009873,354.174688 C572.158543,354.520625 571.408708,355.076918 570.83042,355.791597 C570.608174,354.943054 570.165907,354.168346 569.548388,353.54589 C567.967761,355.53987 568.239208,358.426756 570.163763,360.09052 C572.358559,359.008196 573.532971,356.567101 573.009873,354.174688 Z" id="Shape" fill="#A6C437" fill-rule="nonzero"></path>
                    <path d="M592.445469,365.980687 C591.53018,365.947402 590.622687,366.160092 589.817305,366.596652 C589.931727,365.726687 589.816815,364.841896 589.483977,364.030131 C587.240616,365.229456 586.341396,367.986312 587.445547,370.27961 C589.905055,370.176973 591.973072,368.398896 592.445469,365.980687 Z" id="Shape" fill="#A6C437" fill-rule="nonzero"></path>
                    <path d="M510.715968,194.742376 C510.650102,194.727448 510.593383,194.685819 510.559355,194.62743 C510.525327,194.56904 510.517044,194.49913 510.536483,194.434393 L511.292882,191.867872 C511.310783,191.800994 511.35492,191.744193 511.415271,191.710364 C511.475623,191.676535 511.547069,191.668547 511.61339,191.688215 C511.680203,191.706134 511.73695,191.750313 511.770747,191.810722 C511.804544,191.871132 511.812523,191.942646 511.792874,192.009031 L511.023655,194.575552 C511.005871,194.639119 510.963097,194.692751 510.905109,194.724191 C510.847121,194.755631 510.778874,194.762193 510.715968,194.742376 Z" id="Shape" fill="#F7B935" fill-rule="nonzero"></path>
                    <polygon id="Shape" fill="#F7B935" fill-rule="nonzero" points="503.613514 182.487236 502.331482 184.681612 504.664779 183.937321"></polygon>
                    <path d="M510.01085,180.434019 C510.483309,182.226379 509.417315,184.063348 507.627815,184.540576 C505.838316,185.017803 504.000543,183.955214 503.519465,182.165153 C503.038386,180.375092 504.095527,178.533004 505.882709,178.047154 C507.68009,177.573187 509.523013,178.638753 510.01085,180.434019 Z" id="Shape" fill="#DB5C45" fill-rule="nonzero"></path>
                    <path d="M512.933882,182.564232 C509.087788,179.202089 506.523725,183.090369 506.523725,183.116034 C503.510951,185.567062 508.728819,198.515162 522.702961,190.815598 C522.65168,190.789933 518.010726,186.952983 512.933882,182.564232 Z" id="Shape" fill="#DB5C45" fill-rule="nonzero"></path>
                    <path d="M511.844155,181.730112 C510.280077,181.383632 506.023733,182.641227 509.280092,187.581781 C512.254405,192.175854 519.80557,189.660663 519.80557,189.660663 C519.80557,189.660663 516.203062,182.692558 511.844155,181.730112 Z" id="Shape" fill="#C64938" fill-rule="nonzero"></path>
                    <path d="M512.767218,194.870702 C512.625609,194.870702 512.510812,194.755795 512.510812,194.61405 L512.510812,191.932035 C512.510812,191.79029 512.625609,191.675383 512.767218,191.675383 C512.908827,191.675383 513.023624,191.79029 513.023624,191.932035 L513.023624,194.61405 C513.023624,194.682118 512.99661,194.747399 512.948524,194.79553 C512.900439,194.843662 512.835221,194.870702 512.767218,194.870702 Z" id="Shape" fill="#F7B935" fill-rule="nonzero"></path>
                    <path d="M499.228966,181.12698 C499.228966,183.175196 497.57015,184.835603 495.523896,184.835603 C493.477642,184.835603 491.818825,183.175196 491.818825,181.12698 C491.818825,179.078763 493.477642,177.418356 495.523896,177.418356 C497.57015,177.418356 499.228966,179.078763 499.228966,181.12698 Z" id="Shape" fill="#4F9EB6" fill-rule="nonzero"></path>
                    <path d="M491.63934,184.386462 C493.277868,187.770733 493.659614,191.628243 492.716247,195.268513 C492.716247,195.268513 486.229168,188.723883 491.088067,184.283801 C491.168513,184.207246 491.280757,184.173951 491.389885,184.194274 C491.499012,184.214596 491.591783,184.28607 491.63934,184.386462 Z" id="Shape" fill="#0C2C44" fill-rule="nonzero"></path>
                    <path d="M499.267427,184.335131 C497.627614,187.714466 497.245767,191.568448 498.190521,195.20435 C498.190521,195.20435 504.6776,188.65972 499.818701,184.219638 C499.736472,184.143891 499.622767,184.11254 499.513386,184.135456 C499.404006,184.158371 499.312406,184.232734 499.267427,184.335131 Z" id="Shape" fill="#0C2C44" fill-rule="nonzero"></path>
                    <path d="M500.510998,186.401181 C500.510998,191.534224 495.523896,197.424391 495.523896,197.424391 C495.523896,197.424391 490.536793,191.996198 490.536793,186.401181 C490.536793,184.347964 493.472645,182.692558 495.523896,182.692558 C497.575146,182.692558 500.510998,184.347964 500.510998,186.401181 Z" id="Shape" fill="#4F9EB6" fill-rule="nonzero"></path>
                    <polygon id="Shape" fill="#F7B935" fill-rule="nonzero" points="498.305904 181.537623 497.587966 183.013373 499.80588 183.205862"></polygon>
                    <polygon id="Shape" fill="#575355" fill-rule="nonzero" points="259.399353 201.902971 259.399353 382.290931 254.566095 382.290931 254.566095 378.877457 199.105417 378.877457 199.105417 382.290931 194.272158 382.290931 194.272158 201.902971"></polygon>
                    <polygon id="Shape" fill="#494748" fill-rule="nonzero" points="259.399353 197.96336 259.399353 382.290931 254.566095 382.290931 254.566095 378.877457 226.425506 378.877457 226.425506 197.96336"></polygon>
                    <path d="M534.177142,201.902971 L181.849274,201.902971 C180.798777,201.913247 179.787773,201.502722 179.041321,200.762785 C178.294869,200.022848 177.874927,199.014914 177.874977,197.96336 C177.874977,195.787574 179.637111,194.02375 181.810813,194.02375 L534.177142,194.02375 C536.347923,194.030793 538.105942,195.790498 538.112979,197.96336 C538.105942,200.136223 536.347923,201.895927 534.177142,201.902971 Z" id="Shape" fill="#3A3A3A" fill-rule="nonzero"></path>
                    <path d="M452.627125,201.902971 L204.913019,201.902971 C202.742238,201.895927 200.984219,200.136223 200.977182,197.96336 C200.984219,195.790498 202.742238,194.030793 204.913019,194.02375 L452.627125,194.02375 C454.797906,194.030793 456.555925,195.790498 456.562961,197.96336 C456.555925,200.136223 454.797906,201.895927 452.627125,201.902971 Z" id="Shape" fill="#515151" fill-rule="nonzero"></path>
                    <path d="M515.562046,199.875419 L462.037236,199.875419 C461.515964,199.878863 461.015045,199.673113 460.646442,199.304157 C460.27784,198.935201 460.072287,198.433801 460.075727,197.91203 C460.072287,197.390259 460.27784,196.888859 460.646442,196.519903 C461.015045,196.150947 461.515964,195.945197 462.037236,195.948641 L515.562046,195.948641 C516.084488,195.945223 516.586705,196.15057 516.957337,196.519148 C517.327969,196.887725 517.536386,197.389076 517.536375,197.91203 C517.536386,198.434984 517.327969,198.936334 516.957337,199.304912 C516.586705,199.67349 516.084488,199.878837 515.562046,199.875419 Z" id="Shape" fill="#4F4F4F" fill-rule="nonzero"></path>
                    <polygon id="Rectangle-path" fill="#575355" fill-rule="nonzero" points="513.972327 201.902971 524.267039 201.902971 524.267039 382.290931 513.972327 382.290931"></polygon>
                    <polygon id="Rectangle-path" fill="#424041" fill-rule="nonzero" points="519.113273 201.902971 524.254219 201.902971 524.254219 382.290931 519.113273 382.290931"></polygon>
                    <polygon id="Rectangle-path" fill="#575355" fill-rule="nonzero" points="259.399353 208.062622 513.972327 208.062622 513.972327 211.193778 259.399353 211.193778"></polygon>
                    <polygon id="Rectangle-path" fill="#424041" fill-rule="nonzero" points="259.399353 209.6282 513.972327 209.6282 513.972327 211.193778 259.399353 211.193778"></polygon>
                    <polygon id="Rectangle-path" fill="#575355" fill-rule="nonzero" points="259.399353 208.062622 513.972327 208.062622 513.972327 211.193778 259.399353 211.193778"></polygon>
                    <polygon id="Rectangle-path" fill="#424041" fill-rule="nonzero" points="259.399353 209.6282 513.972327 209.6282 513.972327 211.193778 259.399353 211.193778"></polygon>
                    <polygon id="Rectangle-path" fill="#575355" fill-rule="nonzero" points="259.399353 215.92901 513.972327 215.92901 513.972327 219.060167 259.399353 219.060167"></polygon>
                    <polygon id="Rectangle-path" fill="#FFFFFF" fill-rule="nonzero" points="259.399353 337.813114 513.972327 337.813114 513.972327 347.886711 259.399353 347.886711"></polygon>
                    <polygon id="Rectangle-path" fill="#575355" fill-rule="nonzero" points="259.399353 337.813114 513.972327 337.813114 513.972327 342.856329 259.399353 342.856329"></polygon>
                    <polygon id="Rectangle-path" fill="#FFFFFF" fill-rule="nonzero" points="341.539105 342.856329 346.808254 342.856329 346.808254 382.290931 341.539105 382.290931"></polygon>
                    <polygon id="Rectangle-path" fill="#FFFFFF" fill-rule="nonzero" points="430.089013 342.856329 435.358162 342.856329 435.358162 382.290931 430.089013 382.290931"></polygon>
                    <path d="M202.477159,228.543463 L251.194352,228.543463 C253.056514,228.543463 254.566095,230.053044 254.566095,231.915206 L254.566095,291.901278 C254.566095,293.76344 253.056514,295.273021 251.194352,295.273021 L202.477159,295.273021 C200.614997,295.273021 199.105417,293.76344 199.105417,291.901278 L199.105417,231.915206 C199.105417,230.053044 200.614997,228.543463 202.477159,228.543463 Z" id="Rectangle-path" fill="#EDEDED" fill-rule="nonzero"></path>
                    <path d="M253.437907,301.907479 L200.233604,301.907479 C199.933339,301.910954 199.644359,301.793094 199.432026,301.580557 C199.219692,301.36802 199.101945,301.078762 199.105417,300.778209 C199.105397,300.479875 199.224667,300.193943 199.43662,299.984198 C199.648573,299.774452 199.935575,299.658344 200.233604,299.661773 L253.437907,299.661773 C253.735936,299.658344 254.022939,299.774452 254.234892,299.984198 C254.446845,300.193943 254.566114,300.479875 254.566095,300.778209 C254.569566,301.078762 254.451819,301.36802 254.239486,301.580557 C254.027152,301.793094 253.738172,301.910954 253.437907,301.907479 Z" id="Shape" fill="#FFFFFF" fill-rule="nonzero"></path>
                    <path d="M253.437907,308.785756 L200.233604,308.785756 C199.610523,308.785756 199.105417,308.280165 199.105417,307.656487 C199.105397,307.358153 199.224667,307.07222 199.43662,306.862475 C199.648573,306.65273 199.935575,306.536621 200.233604,306.54005 L253.437907,306.54005 C253.735936,306.536621 254.022939,306.65273 254.234892,306.862475 C254.446845,307.07222 254.566114,307.358153 254.566095,307.656487 C254.566095,308.280165 254.060988,308.785756 253.437907,308.785756 Z" id="Shape" fill="#FFFFFF" fill-rule="nonzero"></path>
                    <path d="M253.437907,315.664034 L200.233604,315.664034 C199.610523,315.664034 199.105417,315.158443 199.105417,314.534764 C199.105397,314.23643 199.224667,313.950498 199.43662,313.740752 C199.648573,313.531007 199.935575,313.414898 200.233604,313.418328 L253.437907,313.418328 C253.735936,313.414898 254.022939,313.531007 254.234892,313.740752 C254.446845,313.950498 254.566114,314.23643 254.566095,314.534764 C254.566095,315.158443 254.060988,315.664034 253.437907,315.664034 Z" id="Shape" fill="#FFFFFF" fill-rule="nonzero"></path>
                    <g id="Group-2" transform="translate(200.951542, 230.673676)">
                        <mask id="mask-2" fill="white">
                            <use xlink:href="#path-1"></use>
                        </mask>
                        <use id="Mask" fill="#FFFFFF" fill-rule="nonzero" xlink:href="#path-1"></use>
                        <g id="Group" mask="url(#mask-2)" fill-rule="nonzero">
                            <g transform="translate(-34.614848, -28.231736)" id="Rectangle-path">
                                <polygon fill="#C9E94D" transform="translate(56.226682, 21.974164) rotate(34.280000) translate(-56.226682, -21.974164) " points="53.8869751 10.469732 58.5663897 10.469732 58.5663897 33.4785968 53.8869751 33.4785968"></polygon>
                                <polygon fill="#EFB259" transform="translate(63.727385, 27.100372) rotate(34.280000) translate(-63.727385, -27.100372) " points="60.2787204 15.5959394 67.1760493 15.5959394 67.1760493 38.6048041 60.2787204 38.6048041"></polygon>
                                <polygon fill="#EFB259" transform="translate(45.860620, 14.893464) rotate(34.280000) translate(-45.860620, -14.893464) " points="38.0979196 3.38903203 53.6233198 3.38903203 53.6233198 26.3978968 38.0979196 26.3978968"></polygon>
                                <polygon fill="#EFB259" transform="translate(71.289183, 32.247418) rotate(34.280000) translate(-71.289183, -32.247418) " points="67.8405189 20.7429859 74.7378478 20.7429859 74.7378478 43.7518506 67.8405189 43.7518506"></polygon>
                                <polygon fill="#EFB259" transform="translate(40.635642, 61.026829) rotate(34.280000) translate(-40.635642, -61.026829) " points="37.1869779 33.4816373 44.0843068 33.4816373 44.0843068 88.5720201 37.1869779 88.5720201"></polygon>
                                <polygon fill="#C9E94D" transform="translate(34.732226, 37.581504) rotate(34.280000) translate(-34.732226, -37.581504) " points="23.4054784 26.0770713 46.0589732 26.0770713 46.0589732 49.085936 23.4054784 49.085936"></polygon>
                                <polygon fill="#C9E94D" transform="translate(18.427773, 61.514508) rotate(34.280000) translate(-18.427773, -61.514508) " points="7.10102596 46.8981682 29.7545207 46.8981682 29.7545207 76.1308475 7.10102596 76.1308475"></polygon>
                                <polygon fill="#EFB259" transform="translate(57.216995, 52.917235) rotate(34.280000) translate(-57.216995, -52.917235) " points="53.7683306 41.4128029 60.6656595 41.4128029 60.6656595 64.4216676 53.7683306 64.4216676"></polygon>
                                <polygon fill="#EFB259" transform="translate(47.103122, 67.765100) rotate(34.280000) translate(-47.103122, -67.765100) " points="43.654458 63.3250174 50.5517869 63.3250174 50.5517869 72.2051816 43.654458 72.2051816"></polygon>
                                <polygon fill="#EFB259" transform="translate(41.042041, 76.644596) rotate(34.280000) translate(-41.042041, -76.644596) " points="37.5933767 72.2045135 44.4907056 72.2045135 44.4907056 81.0846777 37.5933767 81.0846777"></polygon>
                                <polygon fill="#EFB259" transform="translate(35.085251, 85.396957) rotate(34.280000) translate(-35.085251, -85.396957) " points="31.6365864 81.1172827 38.5339153 81.1172827 38.5339153 89.6766318 31.6365864 89.6766318"></polygon>
                                <polygon fill="#BCDD33" transform="translate(33.327045, 30.420540) rotate(34.280000) translate(-33.327045, -30.420540) " points="29.1155714 26.2050287 37.5385177 26.2050287 37.5385177 34.6360517 29.1155714 34.6360517"></polygon>
                                <polygon fill="#BCDD33" transform="translate(41.906630, 36.284862) rotate(34.280000) translate(-41.906630, -36.284862) " points="37.6951564 32.0693508 46.1181027 32.0693508 46.1181027 40.5003738 37.6951564 40.5003738"></polygon>
                                <polygon fill="#BCDD33" transform="translate(27.557822, 38.878145) rotate(34.280000) translate(-27.557822, -38.878145) " points="23.3463489 34.6626335 31.7692951 34.6626335 31.7692951 43.0936565 23.3463489 43.0936565"></polygon>
                                <polygon fill="#BCDD33" transform="translate(36.137407, 44.742467) rotate(34.280000) translate(-36.137407, -44.742467) " points="31.9259339 40.5269556 40.3488801 40.5269556 40.3488801 48.9579786 31.9259339 48.9579786"></polygon>
                                <polygon fill="#D3923D" transform="translate(46.574139, 20.190779) rotate(34.280000) translate(-46.574139, -20.190779) " points="43.798541 14.0247113 49.3497369 14.0247113 49.3497369 26.3568469 43.798541 26.3568469"></polygon>
                                <polygon fill="#D3923D" transform="translate(38.816688, 19.013029) rotate(34.280000) translate(-38.816688, -19.013029) " points="36.0410897 16.2347697 41.5922857 16.2347697 41.5922857 21.7912886 36.0410897 21.7912886"></polygon>
                                <polygon fill="#D3923D" transform="translate(49.729821, 9.264496) rotate(34.280000) translate(-49.729821, -9.264496) " points="43.4158166 5.72911297 56.0438259 5.72911297 56.0438259 12.7998796 43.4158166 12.7998796"></polygon>
                                <polygon fill="#D3923D" transform="translate(42.641894, 13.414855) rotate(34.280000) translate(-42.641894, -13.414855) " points="39.8662964 10.6365952 45.4174924 10.6365952 45.4174924 16.1931141 39.8662964 16.1931141"></polygon>
                                <polygon fill="#C9E94D" transform="translate(93.495368, 47.380579) rotate(34.280000) translate(-93.495368, -47.380579) " points="91.1556608 35.8761464 95.8350754 35.8761464 95.8350754 58.8850112 91.1556608 58.8850112"></polygon>
                                <polygon fill="#EFB259" transform="translate(100.985477, 52.499558) rotate(34.280000) translate(-100.985477, -52.499558) " points="97.5368128 40.995126 104.434142 40.995126 104.434142 64.0039907 97.5368128 64.0039907"></polygon>
                                <polygon fill="#EFB259" transform="translate(83.109264, 40.310482) rotate(34.280000) translate(-83.109264, -40.310482) " points="75.3465641 28.80605 90.8719643 28.80605 90.8719643 51.8149147 75.3465641 51.8149147"></polygon>
                                <polygon fill="#EFB259" transform="translate(108.537828, 57.664436) rotate(34.280000) translate(-108.537828, -57.664436) " points="105.089163 46.1600038 111.986492 46.1600038 111.986492 69.1688686 105.089163 69.1688686"></polygon>
                                <polygon fill="#EFB259" transform="translate(86.900469, 73.182208) rotate(34.280000) translate(-86.900469, -73.182208) " points="83.4518042 61.6777756 90.3491331 61.6777756 90.3491331 84.6866403 83.4518042 84.6866403"></polygon>
                                <polygon fill="#C9E94D" transform="translate(62.950723, 76.260766) rotate(34.280000) translate(-62.950723, -76.260766) " points="51.6239754 48.7155749 74.2774701 48.7155749 74.2774701 103.805958 51.6239754 103.805958"></polygon>
                                <polygon fill="#EFB259" transform="translate(94.455046, 78.339858) rotate(34.280000) translate(-94.455046, -78.339858) " points="91.0063817 66.8354256 97.9037106 66.8354256 97.9037106 89.8442904 91.0063817 89.8442904"></polygon>
                                <polygon fill="#BCDD33" transform="translate(70.565096, 55.843163) rotate(34.280000) translate(-70.565096, -55.843163) " points="66.3536226 51.6276514 74.7765689 51.6276514 74.7765689 60.0586744 66.3536226 60.0586744"></polygon>
                                <polygon fill="#BCDD33" transform="translate(79.151902, 61.696882) rotate(34.280000) translate(-79.151902, -61.696882) " points="74.9404285 57.48137 83.3633748 57.48137 83.3633748 65.912393 74.9404285 65.912393"></polygon>
                                <polygon fill="#BCDD33" transform="translate(64.806467, 64.307996) rotate(34.280000) translate(-64.806467, -64.307996) " points="60.5949934 60.0924841 69.0179397 60.0924841 69.0179397 68.523507 60.5949934 68.523507"></polygon>
                                <polygon fill="#BCDD33" transform="translate(73.398872, 70.159485) rotate(34.280000) translate(-73.398872, -70.159485) " points="69.1873987 65.9439735 77.610345 65.9439735 77.610345 74.3749965 69.1873987 74.3749965"></polygon>
                                <polygon fill="#BCDD33" transform="translate(58.758206, 73.187492) rotate(34.280000) translate(-58.758206, -73.187492) " points="54.5467325 68.9719801 62.9696787 68.9719801 62.9696787 77.4030031 54.5467325 77.4030031"></polygon>
                                <polygon fill="#BCDD33" transform="translate(67.350611, 79.038981) rotate(34.280000) translate(-67.350611, -79.038981) " points="63.1391378 74.8234696 71.562084 74.8234696 71.562084 83.2544926 63.1391378 83.2544926"></polygon>
                                <polygon fill="#BCDD33" transform="translate(52.702724, 82.077591) rotate(34.280000) translate(-52.702724, -82.077591) " points="48.4912506 77.8620797 56.9141969 77.8620797 56.9141969 86.2931027 48.4912506 86.2931027"></polygon>
                                <polygon fill="#BCDD33" transform="translate(61.295129, 87.941913) rotate(34.280000) translate(-61.295129, -87.941913) " points="57.0836559 83.7264018 65.5066022 83.7264018 65.5066022 92.1574248 57.0836559 92.1574248"></polygon>
                                <polygon fill="#BCDD33" transform="translate(46.654463, 90.957087) rotate(34.280000) translate(-46.654463, -90.957087) " points="42.4429897 86.7415758 50.8659359 86.7415758 50.8659359 95.1725987 42.4429897 95.1725987"></polygon>
                                <polygon fill="#BCDD33" transform="translate(55.246868, 96.821409) rotate(34.280000) translate(-55.246868, -96.821409) " points="51.035395 92.6058979 59.4583412 92.6058979 59.4583412 101.036921 51.035395 101.036921"></polygon>
                                <polygon fill="#D3923D" transform="translate(83.819411, 45.602798) rotate(34.280000) translate(-83.819411, -45.602798) " points="81.043813 39.4367305 86.595009 39.4367305 86.595009 51.7688661 81.043813 51.7688661"></polygon>
                                <polygon fill="#D3923D" transform="translate(76.061960, 44.425048) rotate(34.280000) translate(-76.061960, -44.425048) " points="73.2863618 41.6467889 78.8375577 41.6467889 78.8375577 47.2033078 73.2863618 47.2033078"></polygon>
                                <polygon fill="#D3923D" transform="translate(86.991286, 34.681514) rotate(34.280000) translate(-86.991286, -34.681514) " points="80.6772815 31.1461309 93.3052907 31.1461309 93.3052907 38.2168975 80.6772815 38.2168975"></polygon>
                                <polygon fill="#D3923D" transform="translate(79.874346, 38.814041) rotate(34.280000) translate(-79.874346, -38.814041) " points="77.0987482 36.0357818 82.6499441 36.0357818 82.6499441 41.5923007 77.0987482 41.5923007"></polygon>
                                <polygon fill="#EFB259" transform="translate(74.469262, 99.593953) rotate(34.280000) translate(-74.469262, -99.593953) " points="66.4565654 85.0866903 82.4819578 85.0866903 82.4819578 114.101215 66.4565654 114.101215"></polygon>
                                <polygon fill="#D3923D" transform="translate(73.710819, 107.227142) rotate(34.280000) translate(-73.710819, -107.227142) " points="70.8518892 100.862169 76.5697492 100.862169 76.5697492 113.592115 70.8518892 113.592115"></polygon>
                                <polygon fill="#D3923D" transform="translate(65.716876, 105.997976) rotate(34.280000) translate(-65.716876, -105.997976) " points="62.8579461 103.136304 68.5758061 103.136304 68.5758061 108.859647 62.8579461 108.859647"></polygon>
                                <polygon fill="#D3923D" transform="translate(78.350678, 93.925340) rotate(34.280000) translate(-78.350678, -93.925340) " points="71.8379585 87.8362681 84.8633975 87.8362681 84.8633975 100.014412 71.8379585 100.014412"></polygon>
                                <polygon fill="#D3923D" transform="translate(69.648773, 100.213741) rotate(34.280000) translate(-69.648773, -100.213741) " points="66.7898432 97.35207 72.5077032 97.35207 72.5077032 103.075413 66.7898432 103.075413"></polygon>
                            </g>
                        </g>
                    </g>
                    <path d="M223.925544,263.204336 C223.933153,259.608721 221.21102,256.595458 217.636206,256.242355 C214.061391,255.889252 210.803361,258.311824 210.108705,261.839574 C209.414049,265.367325 211.510017,268.846186 214.951325,269.877291 L216.964114,273.36776 L218.976903,269.877291 C221.916098,268.988701 223.926632,266.277613 223.925544,263.204336 Z" id="Shape" fill="#F26B0F" fill-rule="nonzero"></path>
                    <ellipse id="Oval" fill="#FFFFFF" fill-rule="nonzero" cx="216.951294" cy="263.204336" rx="3.49994571" ry="3.50330177"></ellipse>
                    <polygon id="Rectangle-path" fill="#FFFFFF" fill-rule="nonzero" style="mix-blend-mode: soft-light;" points="268.706979 217.289267 514.767264 217.289267 514.767264 330.986167 268.706979 330.986167"></polygon>
                    <polygon id="Shape" fill="#FFFFFF" fill-rule="nonzero" opacity="0.7" points="409.691894 330.986167 374.218085 330.986167 326.847025 217.289267 362.320834 217.289267"></polygon>
                    <polyline id="Shape" fill="#FFFFFF" fill-rule="nonzero" opacity="0.4" points="358.615763 330.986167 350.603067 330.986167 303.232007 217.289267 311.257523 217.289267"></polyline>
                    <polygon id="Shape" fill="#FFFFFF" fill-rule="nonzero" opacity="0.5" points="430.524904 330.986167 417.486645 330.986167 370.115584 217.289267 383.166664 217.289267"></polygon>
                    <polygon id="Rectangle-path" fill="#232323" fill-rule="nonzero" points="513.972327 201.902971 524.267039 201.902971 524.267039 205.39344 513.972327 205.39344"></polygon>
                    <polygon id="Rectangle-path" fill="#232323" fill-rule="nonzero" points="194.272158 201.902971 259.399353 201.902971 259.399353 205.39344 194.272158 205.39344"></polygon>
                    <polygon id="Rectangle-path" fill="#424041" fill-rule="nonzero" points="259.399353 217.494589 513.972327 217.494589 513.972327 219.060167 259.399353 219.060167"></polygon>
                    <polygon id="Rectangle-path" fill="#575355" fill-rule="nonzero" points="259.399353 215.92901 513.972327 215.92901 513.972327 219.060167 259.399353 219.060167"></polygon>
                    <polygon id="Rectangle-path" fill="#424041" fill-rule="nonzero" points="259.399353 217.494589 513.972327 217.494589 513.972327 219.060167 259.399353 219.060167"></polygon>
                    <polygon id="Rectangle-path" fill="#575355" fill-rule="nonzero" points="259.399353 329.266598 513.972327 329.266598 513.972327 332.397754 259.399353 332.397754"></polygon>
                    <polygon id="Rectangle-path" fill="#424041" fill-rule="nonzero" points="259.399353 330.832176 513.972327 330.832176 513.972327 332.397754 259.399353 332.397754"></polygon>
                    <path d="M556.804996,173.478746 L556.805014,375.258662 L551.317872,375.258662 L551.317902,173.478746 C551.314491,172.748193 551.602036,172.046391 552.116921,171.528604 C552.631807,171.010817 553.331588,170.719727 554.061449,170.719735 C554.789105,170.717631 555.486924,171.009053 555.997316,171.528189 C556.516691,172.043841 556.807653,172.746519 556.804996,173.478746 Z" id="Shape" fill="#7A7779" fill-rule="nonzero"></path>
                    <path d="M556.804996,173.478746 L556.805014,375.258662 L554.061449,375.258662 L554.061449,170.719713 C554.789105,170.717631 555.486924,171.009053 555.997316,171.528189 C556.516691,172.043841 556.807653,172.746519 556.804996,173.478746 Z" id="Shape" fill="#424041" fill-rule="nonzero"></path>
                    <path d="M564.945896,382.290931 L543.151362,382.290931 C543.151355,378.412122 546.288987,375.26574 550.164074,375.258662 L557.856262,375.258662 C559.730631,375.241543 561.534114,375.974876 562.865554,377.295542 C564.196993,378.616209 564.945974,380.414687 564.945896,382.290931 Z" id="Shape" fill="#575355" fill-rule="nonzero"></path>
                    <path d="M564.945896,382.290931 L546.394901,382.290931 C546.394895,378.412122 549.532526,375.26574 553.407613,375.258662 L557.920364,375.258662 C561.800458,375.258662 564.945896,378.407116 564.945896,382.290931 Z" id="Shape" fill="#444143" fill-rule="nonzero"></path>
                    <path d="M568.958654,186.401181 L618.688652,186.401181 C622.816562,186.401181 626.162895,189.747514 626.162895,193.875424 L626.162895,253.625545 C626.162895,257.753455 622.816562,261.099788 618.688652,261.099788 L568.958654,261.099788 C564.830743,261.099788 561.484411,257.753455 561.484411,253.625545 L561.484411,193.875424 C561.484411,189.747514 564.830743,186.401181 568.958654,186.401181 Z" id="Rectangle-path" fill="#FFFFFF" fill-rule="nonzero"></path>
                    <path d="M564.458724,274.176215 L623.188582,274.176215 C624.83125,274.176215 626.162895,275.50786 626.162895,277.150528 L626.162895,293.107162 C626.162895,294.74983 624.83125,296.081475 623.188582,296.081475 L564.458724,296.081475 C562.816056,296.081475 561.484411,294.74983 561.484411,293.107162 L561.484411,277.150528 C561.484411,275.50786 562.816056,274.176215 564.458724,274.176215 Z" id="Rectangle-path" fill="#FFFFFF" fill-rule="nonzero"></path>
                    <path d="M568.317638,189.622166 L619.316847,189.622166 C621.419745,189.622166 623.12448,191.326901 623.12448,193.429799 L623.12448,254.225162 C623.12448,256.328059 621.419745,258.032795 619.316847,258.032795 L568.317638,258.032795 C566.21474,258.032795 564.510005,256.328059 564.510005,254.225162 L564.510005,193.429799 C564.510005,191.326901 566.21474,189.622166 568.317638,189.622166 Z" id="Rectangle-path" fill="#8F1ABC" fill-rule="nonzero"></path>
                    <path d="M566.022802,276.832564 L621.611683,276.832564 C622.447178,276.832564 623.12448,277.509867 623.12448,278.345361 L623.12448,291.707007 C623.12448,292.542502 622.447178,293.219804 621.611683,293.219804 L566.022802,293.219804 C565.187307,293.219804 564.510005,292.542502 564.510005,291.707007 L564.510005,278.345361 C564.510005,277.509867 565.187307,276.832564 566.022802,276.832564 Z" id="Rectangle-path" fill="#8F1ABC" fill-rule="nonzero"></path>
                    <polygon id="Rectangle-path" fill="#575355" fill-rule="nonzero" points="556.804996 193.279459 561.484411 193.279459 561.484411 202.647262 556.804996 202.647262"></polygon>
                    <polygon id="Rectangle-path" fill="#575355" fill-rule="nonzero" points="556.804996 237.834271 561.484411 237.834271 561.484411 247.202074 556.804996 247.202074"></polygon>
                    <polygon id="Rectangle-path" fill="#575355" fill-rule="nonzero" points="556.804996 281.157153 561.484411 281.157153 561.484411 290.524956 556.804996 290.524956"></polygon>
                    <path d="M605.778596,206.779362 C604.760619,205.755645 603.375496,205.182579 601.932501,205.188118 L585.714804,205.188118 C582.705607,205.188118 580.266171,207.629894 580.266171,210.641976 L607.355579,210.641976 C607.363575,209.195839 606.796168,207.805976 605.778596,206.779362 Z M584.432773,208.999403 C583.830933,208.999403 583.343046,208.511047 583.343046,207.908631 C583.343046,207.306214 583.830933,206.817859 584.432773,206.817859 C585.034612,206.817859 585.5225,207.306214 585.5225,207.908631 C585.5225,208.197922 585.407689,208.475364 585.203326,208.679923 C584.998963,208.884482 584.721786,208.999403 584.432773,208.999403 Z M599.522282,209.204724 C599.522282,209.544912 599.24677,209.820689 598.906907,209.820689 L588.573734,209.820689 C588.409469,209.824227 588.250884,209.760467 588.134704,209.644176 C588.018524,209.527884 587.954825,209.369147 587.958359,209.204724 L587.958359,206.638203 C587.958323,206.475994 588.023563,206.320607 588.139352,206.207122 C588.255141,206.093636 588.411717,206.031619 588.573734,206.03507 L598.906907,206.03507 C599.241825,206.034998 599.515305,206.303037 599.522282,206.638203 L599.522282,209.204724 Z M603.035048,208.999403 C602.593166,209.004607 602.191894,208.742173 602.019178,208.33502 C601.846462,207.927866 601.936504,207.456617 602.247129,207.141992 C602.557755,206.827367 603.027454,206.731669 603.436233,206.89972 C603.845012,207.067771 604.111924,207.466294 604.111955,207.908631 C604.111996,208.506071 603.631875,208.992374 603.035048,208.999403 Z" id="Shape" fill="#FFFFFF" fill-rule="nonzero"></path>
                    <path d="M609.317002,212.797854 C608.608956,212.797854 608.034971,213.37239 608.034971,214.081115 L608.034971,215.364376 L607.355494,215.364376 L607.355494,211.168113 L580.266171,211.168113 L580.266171,215.428539 L579.625155,215.428539 L579.625155,214.145278 C579.625155,213.436553 579.05117,212.862017 578.343124,212.862017 C577.635077,212.862017 577.061092,213.436553 577.061092,214.145278 L577.061092,217.276434 C577.061092,217.98516 577.635077,218.559695 578.343124,218.559695 C579.05117,218.559695 579.625155,217.98516 579.625155,217.276434 L579.625155,215.993174 L580.266171,215.993174 L580.266171,230.109041 C580.328763,232.565626 582.336713,234.524257 584.791742,234.523458 L602.855564,234.523458 C605.354968,234.523458 607.381135,232.495348 607.381135,229.993548 L607.381135,215.87768 L608.00933,215.87768 L608.00933,217.160941 C608.00933,217.869666 608.583315,218.444201 609.291362,218.444201 C609.999408,218.444201 610.573393,217.869666 610.573393,217.160941 L610.573393,214.029785 C610.546371,213.351005 609.995545,212.810902 609.317002,212.797854 Z M594.304415,212.797854 C594.300967,212.635682 594.362924,212.478955 594.476301,212.363055 C594.589678,212.247155 594.744916,212.181852 594.906969,212.181889 L605.676033,212.181889 C606.015895,212.181889 606.291408,212.457666 606.291408,212.797854 L606.291408,219.919951 C606.291408,220.260139 606.015895,220.535916 605.676033,220.535916 L594.906969,220.535916 C594.744916,220.535953 594.589678,220.470651 594.476301,220.35475 C594.362924,220.23885 594.300967,220.082124 594.304415,219.919951 L594.304415,212.797854 Z M581.304616,212.797854 C581.304616,212.457666 581.580129,212.181889 581.919991,212.181889 L592.689055,212.181889 C592.853321,212.178352 593.011905,212.242112 593.128085,212.358403 C593.244265,212.474695 593.307964,212.633431 593.30443,212.797854 L593.30443,219.919951 C593.307964,220.084374 593.244265,220.243111 593.128085,220.359403 C593.011905,220.475694 592.853321,220.539454 592.689055,220.535916 L581.919991,220.535916 C581.756784,220.535916 581.600261,220.47102 581.484855,220.355504 C581.36945,220.239989 581.304616,220.083315 581.304616,219.919951 L581.304616,212.797854 Z M584.432773,231.37947 C583.46983,231.37947 582.68921,230.598101 582.68921,229.634235 C582.68921,228.670369 583.46983,227.889 584.432773,227.889 C585.395716,227.889 586.176336,228.670369 586.176336,229.634235 C586.162321,230.588064 585.385791,231.353908 584.432773,231.353804 L584.432773,231.37947 Z M598.291532,229.146596 L589.317312,229.146596 C589.014854,229.102553 588.790528,228.842982 588.790528,228.537047 C588.790528,228.231112 589.014854,227.971541 589.317312,227.927498 L598.291532,227.927498 C598.530188,227.892746 598.767127,228.000739 598.897624,228.203744 C599.028122,228.406749 599.028122,228.667345 598.897624,228.87035 C598.767127,229.073356 598.530188,229.181348 598.291532,229.146596 Z M603.035048,231.37947 C602.378795,231.435953 601.746757,231.117439 601.401247,230.55612 C601.055736,229.994802 601.055736,229.286501 601.401247,228.725182 C601.746757,228.163864 602.378795,227.84535 603.035048,227.901833 C603.936765,227.979443 604.629239,228.73474 604.629239,229.640651 C604.629239,230.546563 603.936765,231.30186 603.035048,231.37947 Z M605.701674,227.106211 L581.932812,227.106211 C581.630353,227.062169 581.406027,226.802598 581.406027,226.496663 C581.406027,226.190727 581.630353,225.931156 581.932812,225.887114 L605.701674,225.887114 C605.940329,225.852362 606.177268,225.960354 606.307766,226.163359 C606.438263,226.366365 606.438263,226.62696 606.307766,226.829966 C606.177268,227.032971 605.940329,227.140963 605.701674,227.106211 Z M605.701674,225.052994 L581.932812,225.052994 C581.60003,225.052994 581.330257,224.782963 581.330257,224.449862 C581.330257,224.116761 581.60003,223.846729 581.932812,223.846729 L605.701674,223.846729 C606.034456,223.846729 606.304228,224.116761 606.304228,224.449862 C606.304228,224.782963 606.034456,225.052994 605.701674,225.052994 Z" id="Shape" fill="#FFFFFF" fill-rule="nonzero"></path>
                    <path d="M584.432773,234.857106 L589.304492,234.857106 L589.304492,236.024873 C589.304492,237.279317 588.288539,238.296245 587.035297,238.296245 L586.714789,238.296245 C585.461547,238.296245 584.445593,237.279317 584.445593,236.024873 L584.445593,234.857106 L584.432773,234.857106 Z" id="Shape" fill="#FFFFFF" fill-rule="nonzero"></path>
                    <path d="M598.163329,234.857106 L603.035048,234.857106 L603.035048,236.024873 C603.035048,237.279317 602.019095,238.296245 600.765853,238.296245 L600.445345,238.296245 C599.192103,238.296245 598.176149,237.279317 598.176149,236.024873 L598.176149,234.857106 L598.163329,234.857106 Z" id="Shape" fill="#FFFFFF" fill-rule="nonzero"></path>
                    <path d="M616.111769,247.445894 L571.535537,247.445894 C570.947859,247.445894 570.471451,246.969029 570.471451,246.380787 C570.478472,245.797563 570.952829,245.328471 571.535537,245.328514 L616.111769,245.328514 C616.692367,245.328514 617.163034,245.799633 617.163034,246.380787 C617.163077,246.964054 616.694434,247.438867 616.111769,247.445894 Z" id="Shape" fill="#FFFFFF" fill-rule="nonzero" opacity="0.6"></path>
                    <path d="M616.111769,251.436835 L571.535537,251.436835 C570.952829,251.436877 570.478472,250.967785 570.471451,250.384561 C570.471451,249.796319 570.947859,249.319454 571.535537,249.319454 L616.111769,249.319454 C616.694434,249.326482 617.163077,249.801294 617.163034,250.384561 C617.163034,250.663641 617.052276,250.931291 616.855126,251.128631 C616.657975,251.32597 616.390582,251.436835 616.111769,251.436835 Z" id="Shape" fill="#FFFFFF" fill-rule="nonzero" opacity="0.6"></path>
                    <path d="M584.753281,284.172816 L571.535537,284.172816 C570.947859,284.172816 570.471451,283.695951 570.471451,283.107709 C570.478472,282.524485 570.952829,282.055393 571.535537,282.055436 L584.753281,282.055436 C585.335989,282.055393 585.810346,282.524485 585.817367,283.107709 C585.817367,283.695951 585.340959,284.172816 584.753281,284.172816 Z" id="Shape" fill="#FFFFFF" fill-rule="nonzero" opacity="0.6"></path>
                    <path d="M616.111769,284.172816 L588.125023,284.172816 C587.542358,284.165788 587.073715,283.690976 587.073758,283.107709 C587.059712,282.819846 587.164238,282.538816 587.362931,282.33023 C587.561625,282.121644 587.837093,282.003762 588.125023,282.004105 L616.086128,282.004105 C616.666726,282.004105 617.137394,282.475224 617.137394,283.056379 C617.151292,283.341082 617.050602,283.619482 616.857849,283.829302 C616.665096,284.039122 616.396365,284.162853 616.111769,284.172816 Z" id="Shape" fill="#FFFFFF" fill-rule="nonzero" opacity="0.6"></path>
                    <path d="M616.111769,288.176589 L571.535537,288.176589 C570.947859,288.176589 570.471451,287.699725 570.471451,287.111483 C570.47143,286.830165 570.583946,286.560552 570.783878,286.362839 C570.98381,286.165126 571.254509,286.055778 571.535537,286.059209 L616.111769,286.059209 C616.692367,286.059209 617.163034,286.530328 617.163034,287.111483 C617.163077,287.69475 616.694434,288.169562 616.111769,288.176589 Z" id="Shape" fill="#FFFFFF" fill-rule="nonzero" opacity="0.6"></path>
                    <rect id="Rectangle-2" fill="#8E8C90" fill-rule="nonzero" x="117" y="391" width="541" height="42" rx="21"></rect>
                    <path d="M634.380716,390.657791 L634.380716,391.081267 C634.380716,397.275526 629.364087,402.296965 623.175762,402.296965 L150.516427,402.296965 C144.328101,402.296965 139.311472,397.275526 139.311472,391.081267 L139.311472,390.670623 C139.733745,390.586988 140.163048,390.544017 140.593504,390.542297 L632.996122,390.542297 C633.460395,390.532974 633.924388,390.571677 634.380716,390.657791 Z" id="Shape" fill="#575355" fill-rule="nonzero"></path>
                    <path d="M622.368082,398.780831 L151.324107,398.780831 C146.771368,398.780831 143.080645,395.086568 143.080645,390.529464 C143.080645,385.972361 146.771368,382.278098 151.324107,382.278098 L622.368082,382.278098 C626.92082,382.278098 630.611544,385.972361 630.611544,390.529464 C630.611544,392.717863 629.743039,394.81663 628.19709,396.364062 C626.651141,397.911493 624.554384,398.780831 622.368082,398.780831 Z" id="Shape" fill="#7C797B" fill-rule="nonzero"></path>
                    <path d="M170.041765,417.413777 L166.528999,417.413777 C165.845249,417.414633 165.281154,416.878229 165.246967,416.194679 C165.246967,415.485954 165.820952,414.911418 166.528999,414.911418 L170.041765,414.911418 C170.749811,414.911418 171.323796,415.485954 171.323796,416.194679 C171.289609,416.878229 170.725515,417.414633 170.041765,417.413777 Z" id="Shape" fill="#6D6A6C" fill-rule="nonzero"></path>
                    <path d="M240.553492,425.30583 L237.053546,425.30583 C236.729481,425.3093 236.417677,425.181974 236.188516,424.952592 C235.959354,424.723211 235.83215,424.411108 235.835616,424.086732 C235.834761,423.402326 236.37065,422.837691 237.053546,422.803472 L240.553492,422.803472 C241.261538,422.803472 241.835523,423.378007 241.835523,424.086732 C241.83978,424.422675 241.703873,424.745174 241.460529,424.976572 C241.217185,425.207971 240.888453,425.327302 240.553492,425.30583 Z" id="Shape" fill="#6D6A6C" fill-rule="nonzero"></path>
                    <path d="M219.066645,409.598719 L215.553879,409.598719 C214.870129,409.599575 214.306035,409.063172 214.271848,408.379621 C214.271848,407.670896 214.845833,407.09636 215.553879,407.09636 L219.066645,407.09636 C219.774692,407.09636 220.348677,407.670896 220.348677,408.379621 C220.31449,409.063172 219.750396,409.599575 219.066645,409.598719 Z" id="Shape" fill="#6D6A6C" fill-rule="nonzero"></path>
                    <path d="M324.090657,410.817816 L320.577891,410.817816 C319.919044,410.78559 319.392157,410.258198 319.359962,409.598719 C319.392157,408.939239 319.919044,408.411848 320.577891,408.379621 L324.090657,408.379621 C324.749505,408.411848 325.276392,408.939239 325.308587,409.598719 C325.276392,410.258198 324.749505,410.78559 324.090657,410.817816 Z" id="Shape" fill="#6D6A6C" fill-rule="nonzero"></path>
                    <path d="M339.141706,423.996904 L335.64176,423.996904 C334.95801,423.99776 334.393916,423.461357 334.359729,422.777806 C334.393916,422.094256 334.95801,421.557853 335.64176,421.558709 L339.141706,421.558709 C339.476667,421.537237 339.805399,421.656568 340.048743,421.887966 C340.292088,422.119365 340.427994,422.441864 340.423737,422.777806 C340.38955,423.461357 339.825456,423.99776 339.141706,423.996904 Z" id="Shape" fill="#6D6A6C" fill-rule="nonzero"></path>
                    <path d="M452.152773,413.256012 L448.640007,413.256012 C447.98116,413.223785 447.454273,412.696394 447.422078,412.036914 C447.454273,411.377435 447.98116,410.850043 448.640007,410.817816 L452.152773,410.817816 C452.811621,410.850043 453.338508,411.377435 453.370703,412.036914 C453.338508,412.696394 452.811621,413.223785 452.152773,413.256012 Z" id="Shape" fill="#6D6A6C" fill-rule="nonzero"></path>
                    <path d="M534.279705,426.332439 L530.766939,426.332439 C530.084043,426.298219 529.548154,425.733584 529.549009,425.049178 C529.581204,424.389698 530.108091,423.862307 530.766939,423.83008 L534.279705,423.83008 C534.938552,423.862307 535.465439,424.389698 535.497634,425.049178 C535.519086,425.384461 535.399869,425.713507 535.168692,425.957085 C534.937515,426.200663 534.615325,426.3367 534.279705,426.332439 Z" id="Shape" fill="#6D6A6C" fill-rule="nonzero"></path>
                    <path d="M556.381926,421.969352 L552.86916,421.969352 C552.210312,421.937126 551.683426,421.409734 551.65123,420.750254 C551.683426,420.090775 552.210312,419.563383 552.86916,419.531157 L556.381926,419.531157 C557.040774,419.563383 557.56766,420.090775 557.599856,420.750254 C557.56766,421.409734 557.040774,421.937126 556.381926,421.969352 Z" id="Shape" fill="#6D6A6C" fill-rule="nonzero"></path>
                    <path d="M606.291408,405.877263 L602.791462,405.877263 C602.132615,405.845036 601.605728,405.317644 601.573533,404.658165 C601.570066,404.333789 601.69727,404.021687 601.926432,403.792305 C602.155594,403.562924 602.467397,403.435598 602.791462,403.439067 L606.291408,403.439067 C606.615473,403.435598 606.927277,403.562924 607.156438,403.792305 C607.3856,404.021687 607.512804,404.333789 607.509338,404.658165 C607.477142,405.317644 606.950256,405.845036 606.291408,405.877263 Z" id="Shape" fill="#6D6A6C" fill-rule="nonzero"></path>
                    <path d="M225.489623,390.542297 L268.437675,390.542297 C269.322732,390.542297 270.040214,391.260466 270.040214,392.146373 L270.040214,398.780831 L223.887084,398.780831 L223.887084,392.13354 C223.894124,391.252649 224.609547,390.542269 225.489623,390.542297 Z" id="Shape" fill="#575355" fill-rule="nonzero"></path>
                    <path d="M229.4511,398.780831 L227.643436,398.780831 L227.643436,392.492853 C227.643436,391.996746 228.045225,391.594571 228.540857,391.594571 C228.781082,391.591135 229.012652,391.684257 229.183735,391.853091 C229.354817,392.021926 229.451124,392.252374 229.4511,392.492853 L229.4511,398.780831 Z" id="Shape" fill="#C6C6C6" fill-rule="nonzero"></path>
                    <path d="M235.56639,398.780831 L233.758725,398.780831 L233.758725,392.492853 C233.758725,391.996746 234.160515,391.594571 234.656147,391.594571 C234.896372,391.591135 235.127942,391.684257 235.299024,391.853091 C235.470107,392.021926 235.566414,392.252374 235.56639,392.492853 L235.56639,398.780831 Z" id="Shape" fill="#C6C6C6" fill-rule="nonzero"></path>
                    <path d="M241.732961,398.780831 L239.925296,398.780831 L239.925296,392.492853 C239.925296,391.996746 240.327086,391.594571 240.822718,391.594571 C241.062943,391.591135 241.294513,391.684257 241.465595,391.853091 C241.636678,392.021926 241.732985,392.252374 241.732961,392.492853 L241.732961,398.780831 Z" id="Shape" fill="#C6C6C6" fill-rule="nonzero"></path>
                    <path d="M247.873891,398.780831 L246.053406,398.780831 L246.053406,392.492853 C246.053382,392.252374 246.149689,392.021926 246.320772,391.853091 C246.491854,391.684257 246.723424,391.591135 246.963649,391.594571 C247.203873,391.591135 247.435443,391.684257 247.606526,391.853091 C247.777608,392.021926 247.873915,392.252374 247.873891,392.492853 L247.873891,398.780831 Z" id="Shape" fill="#C6C6C6" fill-rule="nonzero"></path>
                    <path d="M253.835337,398.780831 L252.232798,398.780831 L252.232798,392.492853 C252.162494,392.27033 252.208819,392.027332 252.356043,391.846357 C252.503267,391.665382 252.731613,391.570743 252.963556,391.594571 C253.20378,391.591135 253.43535,391.684257 253.606433,391.853091 C253.777515,392.021926 253.873822,392.252374 253.873798,392.492853 L253.835337,398.780831 Z" id="Shape" fill="#C6C6C6" fill-rule="nonzero"></path>
                    <path d="M260.155752,398.780831 L258.155783,398.780831 L258.155783,392.492853 C258.155758,392.252374 258.252066,392.021926 258.423148,391.853091 C258.59423,391.684257 258.8258,391.591135 259.066025,391.594571 C259.576087,391.648831 260.004744,392.002181 260.155752,392.492853 L260.155752,398.780831 Z" id="Shape" fill="#C6C6C6" fill-rule="nonzero"></path>
                    <path d="M266.335143,398.780831 L264.514658,398.780831 L264.514658,392.492853 C264.514634,392.252374 264.610941,392.021926 264.782024,391.853091 C264.953106,391.684257 265.184676,391.591135 265.424901,391.594571 C265.665125,391.591135 265.896696,391.684257 266.067778,391.853091 C266.23886,392.021926 266.335168,392.252374 266.335143,392.492853 L266.335143,398.780831 Z" id="Shape" fill="#C6C6C6" fill-rule="nonzero"></path>
                    <path d="M386.640969,290.717445 L386.423024,290.024485" id="Shape"></path>
                    <path d="M387.615313,293.848602 L387.410188,293.168473" id="Shape"></path>
                    <path d="M388.589657,296.979758 L388.384532,296.29963" id="Shape"></path>
                    <path d="M389.564001,300.136579 L389.346055,299.443618" id="Shape"></path>
                    <path d="M391.512688,306.411724 L391.307563,305.718763" id="Shape"></path>
                    <path d="M393.474197,312.699702 L393.256251,312.006741" id="Shape"></path>
                    <path d="M394.43572,315.830858 L394.230595,315.15073" id="Shape"></path>
                    <path d="M395.422884,318.987679 L395.204939,318.294718" id="Shape"></path>
                    <path d="M396.397228,322.118835 L396.179283,321.438707" id="Shape"></path>
                    <path d="M416.332816,301.804818 L416.332816,301.150355" id="Shape"></path>
                    <path d="M416.332816,307.759148 L416.332816,307.117517" id="Shape"></path>
                    <path d="M416.332816,319.693473 L416.332816,319.051842" id="Shape"></path>
                    <path d="M416.332816,322.68347 L416.332816,322.029007" id="Shape"></path>
                    <path d="M621.342457,333.514191 L621.342457,382.278098 L612.175932,382.278098 L612.175932,379.53192 L579.43285,379.53192 L579.43285,382.265265 L570.266326,382.265265 L570.266326,333.501358 C570.266326,319.383549 581.700107,307.938804 595.804391,307.938804 C609.908675,307.938804 621.342457,319.383549 621.342457,333.501358 L621.342457,333.514191 Z" id="Shape" fill="#F26B0F" fill-rule="nonzero"></path>
                    <path d="M579.971304,332.538912 L611.637479,332.538912 C613.549204,332.538912 615.098964,334.088672 615.098964,336.000397 L615.098964,336.007036 C615.098964,337.918761 613.549204,339.46852 611.637479,339.46852 L579.971304,339.46852 C578.059578,339.46852 576.509819,337.918761 576.509819,336.007036 L576.509819,336.000397 C576.509819,334.088672 578.059578,332.538912 579.971304,332.538912 Z" id="Rectangle-path" fill="#C65509" fill-rule="nonzero"></path>
                    <path d="M611.560557,338.839723 L580.150788,338.839723 C579.397134,338.843136 578.673178,338.545851 578.139057,338.013626 C577.604936,337.481401 577.304671,336.758101 577.304678,336.003716 C577.30125,335.247111 577.600006,334.520502 578.1345,333.985495 C578.668994,333.450489 579.394907,333.151446 580.150788,333.154878 L611.560557,333.154878 C612.316438,333.151446 613.042351,333.450489 613.576845,333.985495 C614.111339,334.520502 614.410095,335.247111 614.406667,336.003716 C614.406675,336.758101 614.106409,337.481401 613.572288,338.013626 C613.038167,338.545851 612.314211,338.843136 611.560557,338.839723 Z" id="Shape" fill="#AA4A09" fill-rule="nonzero"></path>
                    <path d="M607.906768,350.016923 L583.689195,350.016923 C582.981148,350.016923 582.407163,349.442388 582.407163,348.733663 C582.407163,348.024937 582.981148,347.450402 583.689195,347.450402 L607.906768,347.450402 C608.257748,347.432814 608.600554,347.560209 608.85503,347.8028 C609.109506,348.04539 609.25334,348.381906 609.252901,348.733663 C609.25334,349.085419 609.109506,349.421935 608.85503,349.664526 C608.600554,349.907116 608.257748,350.034512 607.906768,350.016923 Z" id="Shape" fill="#C65509" fill-rule="nonzero"></path>
                    <path d="M607.906768,354.636662 L583.689195,354.636662 C583.337775,354.637102 583.001582,354.49313 582.759223,354.23841 C582.516865,353.983689 582.389592,353.640555 582.407163,353.289238 C582.407163,352.580513 582.981148,352.005978 583.689195,352.005978 L607.906768,352.005978 C608.257748,351.988389 608.600554,352.115785 608.85503,352.358375 C609.109506,352.600966 609.25334,352.937482 609.252901,353.289238 C609.271523,353.651991 609.135689,354.005651 608.879092,354.262495 C608.622494,354.519338 608.269173,354.655302 607.906768,354.636662 Z" id="Shape" fill="#C65509" fill-rule="nonzero"></path>
                    <path d="M607.906768,359.243568 L583.689195,359.243568 C583.337775,359.244008 583.001582,359.100036 582.759223,358.845316 C582.516865,358.590595 582.389592,358.247461 582.407163,357.896144 C582.407163,357.187419 582.981148,356.612884 583.689195,356.612884 L607.906768,356.612884 C608.257748,356.595295 608.600554,356.722691 608.85503,356.965281 C609.109506,357.207872 609.25334,357.544388 609.252901,357.896144 C609.271523,358.258897 609.135689,358.612557 608.879092,358.869401 C608.622494,359.126244 608.269173,359.262208 607.906768,359.243568 Z" id="Shape" fill="#C65509" fill-rule="nonzero"></path>
                    <path d="M602.124806,319.808966 L602.124806,320.360768 L595.817212,323.517589 L589.483977,320.296605 L589.483977,319.808966 C589.483977,319.376644 589.834107,319.026177 590.266016,319.026177 L601.368408,319.026177 C601.572426,319.029552 601.766746,319.113928 601.908604,319.260735 C602.050463,319.407543 602.128235,319.604753 602.124806,319.808966 Z" id="Shape" fill="#FFFFFF" fill-rule="nonzero"></path>
                    <path d="M595.817212,323.9154 L602.137626,320.771412 L602.137626,326.315098 C602.137626,326.740333 601.793235,327.085054 601.368408,327.085054 L590.266016,327.085054 C590.059794,327.088495 589.86083,327.008896 589.713789,326.864127 C589.566748,326.719358 589.483948,326.521546 589.483977,326.315098 L589.483977,320.694416 L595.817212,323.9154 Z" id="Shape" fill="#FFFFFF" fill-rule="nonzero"></path>
                    <path d="M582.830234,311.519102 C577.310218,316.494417 574.117342,323.551531 574.022678,330.986167 L574.022678,382.316596 L570.266308,382.316596 L570.266326,333.552688 C570.255615,324.498008 575.035918,316.11469 582.830234,311.519102 Z" id="Shape" fill="#F48337" fill-rule="nonzero"></path>
                    <path d="M608.81701,311.519102 C614.332275,316.496692 617.520365,323.553499 617.611745,330.986167 L617.611745,382.316596 L621.368125,382.316596 L621.368097,333.552688 C621.381482,324.500626 616.606398,316.117908 608.81701,311.519102 Z" id="Shape" fill="#DD600B" fill-rule="nonzero"></path>
                </g>
            </g>
        </g>
    </g>
</svg>