<?xml version="1.0" encoding="UTF-8"?>
<svg width="272px" height="272px" viewBox="0 0 272 272" version="1.1" xmlns="http://www.w3.org/2000/svg" xmlns:xlink="http://www.w3.org/1999/xlink">
    <!-- Generator: Sketch 52 (66869) - http://www.bohemiancoding.com/sketch -->
    <title>4 colostate</title>
    <desc>Created with Sketch.</desc>
    <defs>
        <path d="M5.24921904,0.397966218 L172.923254,0.397966218 C175.77358,0.397966218 178.084226,2.70861171 178.084226,5.55893737 L178.084226,209.652349 C178.084226,212.502675 175.77358,214.813321 172.923254,214.813321 L5.24921904,214.813321 C2.39889337,214.813321 0.0882478819,212.502675 0.0882478819,209.652349 L0.0882478819,5.55893737 C0.0882478819,2.70861171 2.39889337,0.397966218 5.24921904,0.397966218 Z" id="path-1"></path>
    </defs>
    <g id="Page-1" stroke="none" stroke-width="1" fill="none" fill-rule="evenodd">
        <g id="Artboard-Copy">
            <g id="Group-3" transform="translate(41.000000, 21.000000)">
                <rect id="Rectangle-path" fill="#FFFFFF" fill-rule="nonzero" x="0" y="0" width="190.880168" height="229.936037" rx="11.6011574"></rect>
                <g id="Group-2" transform="translate(6.353847, 7.340266)">
                    <mask id="mask-2" fill="white">
                        <use xlink:href="#path-1"></use>
                    </mask>
                    <use id="Mask" fill="#FFFFFF" fill-rule="nonzero" xlink:href="#path-1"></use>
                    <g id="Group" mask="url(#mask-2)" fill-rule="nonzero">
                        <g transform="translate(-119.134641, -97.280631)" id="Rectangle-path">
                            <polygon fill="#C9E94D" transform="translate(193.516541, 75.718354) rotate(34.280000) translate(-193.516541, -75.718354) " points="185.463922 36.076497 201.56916 36.076497 201.56916 115.360211 185.463922 115.360211"></polygon>
                            <polygon fill="#EFB259" transform="translate(219.331865, 93.382188) rotate(34.280000) translate(-219.331865, -93.382188) " points="207.462525 53.7403306 231.201205 53.7403306 231.201205 133.024045 207.462525 133.024045"></polygon>
                            <polygon fill="#EFB259" transform="translate(157.839448, 51.319750) rotate(34.280000) translate(-157.839448, -51.319750) " points="131.122401 11.6778924 184.556494 11.6778924 184.556494 90.9616066 131.122401 90.9616066"></polygon>
                            <polygon fill="#EFB259" transform="translate(245.357464, 111.117829) rotate(34.280000) translate(-245.357464, -111.117829) " points="233.488123 71.4759716 257.226804 71.4759716 257.226804 150.759686 233.488123 150.759686"></polygon>
                            <polygon fill="#EFB259" transform="translate(139.856535, 210.285631) rotate(34.280000) translate(-139.856535, -210.285631) " points="127.987195 115.370688 151.725875 115.370688 151.725875 305.200574 127.987195 305.200574"></polygon>
                            <polygon fill="#C9E94D" transform="translate(119.538623, 129.497966) rotate(34.280000) translate(-119.538623, -129.497966) " points="80.5551214 89.8561092 158.522125 89.8561092 158.522125 169.139823 80.5551214 169.139823"></polygon>
                            <polygon fill="#C9E94D" transform="translate(63.423250, 211.966071) rotate(34.280000) translate(-63.423250, -211.966071) " points="24.4397486 161.601235 102.406752 161.601235 102.406752 262.330907 24.4397486 262.330907"></polygon>
                            <polygon fill="#EFB259" transform="translate(196.924921, 182.341676) rotate(34.280000) translate(-196.924921, -182.341676) " points="185.055581 142.699819 208.794261 142.699819 208.794261 221.983533 185.055581 221.983533"></polygon>
                            <polygon fill="#EFB259" transform="translate(162.115795, 233.504297) rotate(34.280000) translate(-162.115795, -233.504297) " points="150.246455 218.204707 173.985135 218.204707 173.985135 248.803887 150.246455 248.803887"></polygon>
                            <polygon fill="#EFB259" transform="translate(141.255246, 264.101175) rotate(34.280000) translate(-141.255246, -264.101175) " points="129.385906 248.801585 153.124586 248.801585 153.124586 279.400765 129.385906 279.400765"></polygon>
                            <polygon fill="#EFB259" transform="translate(120.753637, 294.259974) rotate(34.280000) translate(-120.753637, -294.259974) " points="108.884297 279.513115 132.622977 279.513115 132.622977 309.006834 108.884297 309.006834"></polygon>
                            <polygon fill="#BCDD33" transform="translate(114.702382, 104.822791) rotate(34.280000) translate(-114.702382, -104.822791) " points="100.207667 90.2970238 129.197096 90.2970238 129.197096 119.348558 100.207667 119.348558"></polygon>
                            <polygon fill="#BCDD33" transform="translate(144.230918, 125.030013) rotate(34.280000) translate(-144.230918, -125.030013) " points="129.736203 110.504246 158.725632 110.504246 158.725632 139.55578 129.736203 139.55578"></polygon>
                            <polygon fill="#BCDD33" transform="translate(94.846329, 133.965920) rotate(34.280000) translate(-94.846329, -133.965920) " points="80.351614 119.440153 109.341043 119.440153 109.341043 148.491687 80.351614 148.491687"></polygon>
                            <polygon fill="#BCDD33" transform="translate(124.374865, 154.173142) rotate(34.280000) translate(-124.374865, -154.173142) " points="109.88015 139.647375 138.869579 139.647375 138.869579 168.698909 109.88015 168.698909"></polygon>
                            <polygon fill="#D3923D" transform="translate(160.295182, 69.573183) rotate(34.280000) translate(-160.295182, -69.573183) " points="150.742349 48.3262089 169.848015 48.3262089 169.848015 90.8201572 150.742349 90.8201572"></polygon>
                            <polygon fill="#D3923D" transform="translate(133.596201, 65.514904) rotate(34.280000) translate(-133.596201, -65.514904) " points="124.043367 55.9416057 143.149034 55.9416057 143.149034 75.0882027 124.043367 75.0882027"></polygon>
                            <polygon fill="#C9E94D" transform="translate(321.784951, 163.263521) rotate(34.280000) translate(-321.784951, -163.263521) " points="313.732332 123.621664 329.83757 123.621664 329.83757 202.905378 313.732332 202.905378"></polygon>
                            <polygon fill="#EFB259" transform="translate(347.563815, 180.902449) rotate(34.280000) translate(-347.563815, -180.902449) " points="335.694475 141.260592 359.433156 141.260592 359.433156 220.544306 335.694475 220.544306"></polygon>
                            <polygon fill="#EFB259" transform="translate(286.038882, 138.901454) rotate(34.280000) translate(-286.038882, -138.901454) " points="259.321835 99.2595965 312.755928 99.2595965 312.755928 178.543311 259.321835 178.543311"></polygon>
                            <polygon fill="#EFB259" transform="translate(373.556897, 198.699533) rotate(34.280000) translate(-373.556897, -198.699533) " points="361.687557 159.057676 385.426238 159.057676 385.426238 238.34139 361.687557 238.34139"></polygon>
                            <polygon fill="#EFB259" transform="translate(299.087149, 252.170514) rotate(34.280000) translate(-299.087149, -252.170514) " points="287.217808 212.528657 310.956489 212.528657 310.956489 291.812372 287.217808 291.812372"></polygon>
                            <polygon fill="#C9E94D" transform="translate(216.658811, 262.778580) rotate(34.280000) translate(-216.658811, -262.778580) " points="177.675309 167.863637 255.642312 167.863637 255.642312 357.693523 177.675309 357.693523"></polygon>
                            <polygon fill="#EFB259" transform="translate(325.087895, 269.942693) rotate(34.280000) translate(-325.087895, -269.942693) " points="313.218555 230.300836 336.957235 230.300836 336.957235 309.58455 313.218555 309.58455"></polygon>
                            <polygon fill="#BCDD33" transform="translate(242.865356, 192.423808) rotate(34.280000) translate(-242.865356, -192.423808) " points="228.370642 177.898041 257.360071 177.898041 257.360071 206.949575 228.370642 206.949575"></polygon>
                            <polygon fill="#BCDD33" transform="translate(272.418745, 212.594492) rotate(34.280000) translate(-272.418745, -212.594492) " points="257.92403 198.068725 286.913459 198.068725 286.913459 227.120259 257.92403 227.120259"></polygon>
                            <polygon fill="#BCDD33" transform="translate(223.045763, 221.591843) rotate(34.280000) translate(-223.045763, -221.591843) " points="208.551048 207.066076 237.540477 207.066076 237.540477 236.11761 208.551048 236.11761"></polygon>
                            <polygon fill="#BCDD33" transform="translate(252.618422, 241.754846) rotate(34.280000) translate(-252.618422, -241.754846) " points="238.123708 227.229079 267.113137 227.229079 267.113137 256.280613 238.123708 256.280613"></polygon>
                            <polygon fill="#BCDD33" transform="translate(202.229337, 252.188721) rotate(34.280000) translate(-202.229337, -252.188721) " points="187.734623 237.662954 216.724052 237.662954 216.724052 266.714488 187.734623 266.714488"></polygon>
                            <polygon fill="#BCDD33" transform="translate(231.801997, 272.351724) rotate(34.280000) translate(-231.801997, -272.351724) " points="217.307282 257.825957 246.296712 257.825957 246.296712 286.877491 217.307282 286.877491"></polygon>
                            <polygon fill="#BCDD33" transform="translate(181.388059, 282.822136) rotate(34.280000) translate(-181.388059, -282.822136) " points="166.893345 268.296369 195.882774 268.296369 195.882774 297.347903 166.893345 297.347903"></polygon>
                            <polygon fill="#BCDD33" transform="translate(210.960719, 303.029358) rotate(34.280000) translate(-210.960719, -303.029358) " points="196.466005 288.503591 225.455434 288.503591 225.455434 317.555125 196.466005 317.555125"></polygon>
                            <polygon fill="#BCDD33" transform="translate(160.571634, 313.419014) rotate(34.280000) translate(-160.571634, -313.419014) " points="146.076919 298.893247 175.066349 298.893247 175.066349 327.944781 146.076919 327.944781"></polygon>
                            <polygon fill="#BCDD33" transform="translate(190.144294, 333.626236) rotate(34.280000) translate(-190.144294, -333.626236) " points="175.649579 319.100469 204.639009 319.100469 204.639009 348.152003 175.649579 348.152003"></polygon>
                            <polygon fill="#D3923D" transform="translate(288.483009, 157.137663) rotate(34.280000) translate(-288.483009, -157.137663) " points="278.930175 135.890688 298.035842 135.890688 298.035842 178.384637 278.930175 178.384637"></polygon>
                            <polygon fill="#D3923D" transform="translate(261.784027, 153.079384) rotate(34.280000) translate(-261.784027, -153.079384) " points="252.231194 143.506085 271.336861 143.506085 271.336861 162.652682 252.231194 162.652682"></polygon>
                            <polygon fill="#D3923D" transform="translate(299.399717, 119.505212) rotate(34.280000) translate(-299.399717, -119.505212) " points="277.668676 107.323024 321.130758 107.323024 321.130758 131.6874 277.668676 131.6874"></polygon>
                            <polygon fill="#D3923D" transform="translate(274.905197, 133.745032) rotate(34.280000) translate(-274.905197, -133.745032) " points="265.352364 124.171734 284.45803 124.171734 284.45803 143.31833 265.352364 143.31833"></polygon>
                            <polygon fill="#EFB259" transform="translate(256.302405, 343.179838) rotate(34.280000) translate(-256.302405, -343.179838) " points="228.724942 293.19086 283.879868 293.19086 283.879868 393.168817 228.724942 393.168817"></polygon>
                            <polygon fill="#D3923D" transform="translate(269.661156, 323.646990) rotate(34.280000) translate(-269.661156, -323.646990) " points="247.246194 302.665327 292.076118 302.665327 292.076118 344.628654 247.246194 344.628654"></polygon>
                            <polygon fill="#D3923D" transform="translate(239.711630, 345.315500) rotate(34.280000) translate(-239.711630, -345.315500) " points="229.871991 335.454781 249.551269 335.454781 249.551269 355.176218 229.871991 355.176218"></polygon>
                        </g>
                    </g>
                </g>
                <path d="M85.4239496,119.434084 C85.4501353,107.044353 76.0813148,96.6612798 63.7778021,95.444561 C51.4742894,94.2278422 40.2610592,102.575515 37.870247,114.731404 C35.4794347,126.887292 42.6931713,138.874714 54.537191,142.427687 L61.4646497,154.455111 L68.3921084,142.427687 C78.5079965,139.365792 85.4276926,130.023952 85.4239496,119.434084 Z" id="Shape" fill="#A859C7" fill-rule="nonzero"></path>
                <ellipse id="Oval" fill="#FFFFFF" fill-rule="nonzero" cx="61.4205258" cy="119.434084" rx="12.0458359" ry="12.0716419"></ellipse>
            </g>
        </g>
    </g>
</svg>